<svg xmlns="http://www.w3.org/2000/svg" width="653.277" height="356.235" viewBox="0 0 653.277 356.235"><path d="M616.222,287.441a7.4,7.4,0,0,0-1.688.13c-2.466-.26-5.063-.909-7.529,0-6.231-.779-6.75,2.856-5.971,7.529-1.947.909-4.414,1.428-5.322,3.894a25.3,25.3,0,0,0-2.986-.779c-4.154-.649-6.361,2.986-9.087,4.933-1.817,1.3,1.947,2.077,1.688,3.764l.13-.13c-5.582-1.947-10.385,1.038-15.448,2.207-1.817.389-3.245,3.894-5.322,1.558-2.337-2.6-.13-4.543,2.726-5.582-5.842-4.024-6.88-3.894-8.308,1.168-.389,1.558-.519.909-1.3.519a4.194,4.194,0,0,0-5.322.909c-2.6,2.986-5.322,2.337-7.789-.13-1.038-.909-.909-1.038,3.375-5.322-3.245-.649-4.414,1.428-6.231,2.6-1.687,1.168-4.024,1.558-5.971,2.207.13-1.039-.13-2.207.389-2.986,1.039-1.558,4.284-2.337,1.817-4.933-1.947-1.947-4.414-1.428-6.491,0-3.116,2.207-6.1,4.673-9.087,6.88-2.337-.389-4.543-.779-6.88.649-8.438,5.063-17.005,9.866-25.833,14.15-7.14,3.5-15.188,5.322-22.587,8.438,7.529-5.842,17.005-8.048,24.924-13.76-2.6-2.207-4.673-.519-6.231.779-4.284,3.375-9.736,2.726-14.539,4.284a9.57,9.57,0,0,0-.519-1.817c2.077-.909,4.543-1.168,5.712-3.635a13.888,13.888,0,0,0-8.438-1.558c-2.856.519-.649,1.947-.26,2.986-6.361-.779-11.553,2.6-16.876,4.933-3.894,1.688-4.8.649-4.933-2.986,3.115,1.817,5.452.519,7.659-1.817-7.529-5.452-9.736-5.971-14.279-3.765,1.428,2.986,5.063,3.245,6.88,5.712-2.726.26-4.933-1.428-7.27-2.466-2.337-1.168-4.543-1.168-6.62.519,1.428,2.6,5.192,2.466,6.75,5.452-3.375-.13-5.582-2.466-8.438-3.245a4.363,4.363,0,0,0-4.8,1.168c-1.558,1.947,1.947,1.817,1.558,3.894-9.346-4.284-14.928,6.231-23.366,5.971-1.3-2.077,1.947-4.933-1.038-6.361-2.726-1.3-4.543,1.428-6.75,2.6-9.736,5.192-19.472,10.385-29.6,14.8,3.765-4.933,10-6.1,15.188-10-4.284-1.428-6.62,2.337-9.866,2.077-.649-1.039-1.3-2.077-1.817-2.986-3.5-2.466-10-.13-14.539,5.193-5.582-1.688-9.476,4.284-15.577,3.894,2.856-3.635,7.27-3.375,8.957-7.269C333.231,340.015,317,347.544,298.7,348.842c5.712-2.466,11.423-4.933,17.005-7.4-9.346-.779-16.746,5.192-25.833,5.712l20.251-9.346c-13.5,2.986-26.092,9.217-40.761,12.072,6.361-6.88,14.8-8.178,21.419-12.851-12.981,1.558-24.534,8.568-38.424,11.034,2.207-2.986,4.933-2.986,6.75-4.284-5.582,0-11.164-2.207-17.005-.13,3.635-6.75,12.722-5.063,16.616-11.294A617.127,617.127,0,0,1,195.76,349.88c5.192-4.8,10.9-5.322,14.928-8.957-11.813,3.635-22.977,9.087-35.309,11.034,23.885-11.034,48.16-21.03,72.825-30.246-36.867,10.385-73.6,20.77-109.951,32.972,16.486-8.827,34.79-13.241,51.8-20.64-10.645.13-20.121,5.063-30.246,7.529-10.645,2.466-20.51,8.7-33.362,8.438,4.543-3.765,9.346-3.245,13.89-6.62-18.174,3.5-34.66,8.438-51.406,12.722,9.476-4.543,19.342-7.529,29.208-11.034-15.318.909-29.857,5.971-45.694,9.217,1.688-4.673,5.582-3.765,7.529-5.842-3.765-3.635-9.217-3.894-16.876-1.168a23.829,23.829,0,0,1-18.823-.649c3.245-.779,5.842-.519,7.659-2.726-1.558-2.6-3.765-3.115-6.62-2.337-5.192,1.428-10.385,2.466-15.577,3.5a2.517,2.517,0,0,1-1.947-.26c-7.269-5.582-14.539-.519-21.679.26-2.207.26-5.452,2.077-6.361-.26-.909-2.466,1.558-5.063,4.024-6.62,7.529-4.543,15.058-9.087,22.847-13.371C37.909,318.6,47.9,310.158,60.5,306.393c8.048-2.337,16.356-.649,24.4-2.207,5.582-1.039,10.774-2.986,16.1-4.8,2.986-.909,3.245-2.466.909-5.063a23.121,23.121,0,0,0-14.539-7.789c-16.486-1.558-29.078-10.774-39.073-22.068-8.308-9.346-11.164-22.847-13.371-35.179-1.168-6.88,1.428-15.318,6.88-20.9,9.217-9.476,15.188-21.419,23.366-31.544,6.88-8.568,16.1-15.707,25.184-22.068,9.217-6.491,8.568-14.669,8.438-24.275-.389-22.328-4.543-45.434,6.62-66.464A158.227,158.227,0,0,0,115.926,39.37c.389-1.168.519-2.466,1.558-3.375,10.9-10,21.419-20.77,37.256-22.587,2.986-.389,5.971.649,8.957.519,19.731-.519,39.463-1.038,58.675,5.192,6.231,2.077,13.241.389,18.433-3.765C260.926-.353,282.864-4.247,306.88,4.321c3.635,1.3,7.27.779,10.774,1.688,3.635,1.038,5.322,3.245,2.337,5.842-6.62,5.712-5.193,13.241-6.88,20.38-1.947,8.7-5.712,17.005-7.4,25.962a3.466,3.466,0,0,1-1.688,2.6c-7.659,3.375-5.971,10.125-6.1,16.356,0,5.712,0,11.423-1.3,17.265-.519-9.736-1.039-19.472-1.558-29.727-4.154,1.817-3.115,6.361-5.452,8.438-3.894-1.558,2.986-5.582-1.817-6.62-4.284-.909-4.284,3.245-5.842,5.582-.779,1.3-2.466,0-3.765,1.558-5.063,6.62-4.933,7.659,1.039,13.5,12.722,12.722,24.4,26.222,29.987,44.266,1.428,4.543,8.178,8.178,13.111,10.645a53.563,53.563,0,0,1,21.159,18.3c1.3,1.817,2.986,2.207,5.063,2.077,5.452,6.361,9.346-.389,14.279-1.038-1.688-2.337-2.856-4.024-5.192-4.414-4.543-5.712-8.957-11.423-13.63-17.135a8.958,8.958,0,0,0-5.971-3.375,30.83,30.83,0,0,1-20.64-12.981c-2.466-3.5-4.414-7.789-2.207-11.294,2.077-3.375,6.75-3.115,10.645-2.337,8.308,1.688,16.1,6.231,25.184,4.8,2.986-8.178-4.8-8.438-11.034-11.294,5.193-.649,8.568,1.817,12.332.26-3.115-4.024-7.789-7.14-10.255-13.89,4.284,4.024,7.4,6.88,10.385,9.866,1.947,1.947,4.024,2.337,4.414-.909.779-8.438,5.063-14.669,11.164-20.121a6.326,6.326,0,0,0,1.947-7.01c-.649-1.947-.26-4.024,1.947-4.933a3.688,3.688,0,0,1,4.673,1.3c1.947,3.115,4.284,2.986,7.529,2.207,3.765-.779,6.491,1.947,9.606,3.894,21.679,13.241,39.723,30.246,53.483,51.665,7.529,11.683,19.082,17.395,31.155,22.977,13.89,6.361,26.482,14.8,39.333,23.107,15.318,10,30.766,20.77,48.809,25.443,16.1,4.154,32.323,6.361,49.069,2.077,6.1-1.558,12.851-1.3,19.212-1.558,4.414-.13,8.568,1.428,9.736,5.842,1.3,4.8-2.466,6.361-6.361,8.178a131.664,131.664,0,0,1-68.93,12.2c-6.231-.519-11.943-3.375-17.525-6.361-3.115-1.688-4.673-1.688-5.971,2.337a48.98,48.98,0,0,1-7.4,14.409c-5.452,6.88-4.673,13.76,1.558,20.121,2.986,3.115,5.712,6.491,9.606,8.7,7.269,4.154,14.02-.26,21.03-1.168,9.476-1.3,18.693-4.024,28.429-3.5,8.568.389,15.967-4.284,24.145-5.842,9.217-1.817,18.433-3.115,27.91-4.024-10.9,2.466-13.371,14.409-22.587,18.693,7.918.519,10.9-7.919,18.3-8.568L631.15,271.214c-3.245,2.466-8.048,3.245-8.957,8.308-3.635-2.207-5.712,1.038-7.659,2.726C612.846,283.806,614.664,285.883,616.222,287.441ZM349.2,134.263c-.389-.519-.909-1.038-1.3-1.558-.779-2.337-2.337-2.466-4.414-1.558-3.635-3.375-6.1-6.62,2.856-7.529-8.308-1.688-8.438-1.558-7.529,4.284.389,2.6-1.3,3.5-3.245,4.543,2.6-.779,6.231,4.933,7.789-1.428,1.558.389,2.6,2.077,4.543,1.558a4.417,4.417,0,0,1-.13,1.3,16.67,16.67,0,0,0,4.933,10.515c2.986,3.765,7.789,3.375,11.683,5.063a25.968,25.968,0,0,0,6.75,1.3c1.947.26,2.726-1.038,3.245-2.466.649-1.558-1.038-2.6-1.817-2.986-3.245-1.947-.779,1.428-1.688,2.077a3.627,3.627,0,0,1-3.5.909c-.779-.26-1.817-1.038-1.3-1.817,2.856-5.063-1.558-5.582-4.284-7.14l.13.13c.13-1.558.389-3.115.649-5.063-4.154,3.375-8.178-1.428-12.332.26a6.327,6.327,0,0,1-1.428-.519ZM237.43,262.647c-3.894-2.337-7.919-2.986-11.943-.389-2.856,1.428-5.452,4.673-9.217,2.077,1.168-3.245,4.673-.389,5.322-3.5-6.361-4.414-9.087.26-12.073,4.543-.26.649,0,.909.779.909,6.361,4.414,13.63,2.466,15.058-4.154,2.337.519,4.673,1.168,7.01,1.688-.779,2.856-3.894,3.115-5.971,5.192,5.582,2.466,10.255.389,14.928-1.688-1.168-1.3-2.077-2.337-3.115-3.375A11.418,11.418,0,0,1,237.43,262.647ZM298.312,13.8c4.673-1.428,5.971-2.337,5.192-3.765-1.558-3.245-4.673-4.543-8.178-5.192-3.375-.649-3.375,1.428-3.375,3.635-5.971,2.856-.519-5.192-4.284-4.543-3.115.649,2.077,5.322-3.5,6.361-2.856.519-5.193-1.428-7.529-.389-.649,2.856,3.635,5.842-1.039,8.048-1.3.649-.13,2.207.779,3.115.779.779,1.817,1.688.389,2.466q-1.947,1.168-3.116-1.168c-1.558-3.115-3.375-6.1-5.841-10.515-.389,5.712-2.856,9.476-.779,14.02-7.01-.909-8.178-8.957-14.669-10,1.168,3.5,5.971,4.543,5.452,9.087-2.986-1.817-5.192-5.842-8.568-3.115-2.986,2.466.389,9.087,6.491,12.592-5.063,2.6-6.62-2.337-9.606-4.284-1.038,2.726,2.337,4.673.389,7.01-3.245-.26-2.726-4.414-5.842-5.582.519,1.688,1.428,3.5,1.038,3.894-2.337,2.077-1.168,7.659-2.077,6.88-4.284-3.375-4.414,1.428-4.154,2.207,1.688,3.5-5.582,3.894-2.6,6.491,6.361,5.582,2.077,9.866-1.038,14.539-2.207-6.75-4.024-14.15-2.337-20.77,1.558-5.842.649-11.943,3.115-17.525.649-1.428.13-3.765-3.115-4.8a31.193,31.193,0,0,1-2.856,19.212c-1.558-6.361-.13-13.241-4.673-18.953,2.207,5.192.519,10.255-.389,15.188a29.677,29.677,0,0,0-2.466,10.645A40.787,40.787,0,0,0,216.66,60.4c-.13,1.3.519,3.5-1.688,3.5-2.077,0-.389-2.856-2.6-4.024.389,1.947.519,3.375.779,4.8.26,1.168.389,2.337-.779,2.726-1.817.519-1.947-1.038-2.207-2.337a16.551,16.551,0,0,1-.13-2.6l-.13.13c3.765-5.582-3.375-9.866-2.077-15.577.389-1.558-3.635-5.063-1.428-7.14,3.115-2.856,1.168,4.933,4.8,3.115a15.432,15.432,0,0,0,3.5,11.943c3.115-5.452.13-8.827-3.635-11.813.649-2.856,1.817-5.582-.519-8.308-2.6,3.115-4.8,2.466-6.75-.779-.13.649-.26,1.168-.389,1.817-.13,1.038-.13,2.077-1.817,1.947-.779-.13-1.038-2.6-1.947-.519-.26.649-.649,2.207.779,2.726,4.024,1.428,3.245,5.971,5.322,8.568.649.779,0,4.154-1.688,2.337-4.024-4.024-2.726,1.038-3.115,1.688-1.038,1.688,1.817,3.375.13,5.842-6.62-4.543.649-11.943-4.543-17.395,1.3,7.919-2.6,14.539-1.558,21.808.519,2.6-1.558,2.986-2.986,3.894-1.817-2.466,2.207-4.543.13-6.75-4.154-4.154,1.688-6.361,1.688-9.346,0-2.726-6.361-3.245-3.635-7.789,2.337-.649.779,3.115,3.5,2.856-1.038-5.322-1.558-10.385-7.789-12.073-2.207,5.063,5.842,4.8,4.414,9.346-.909-.389-2.077-1.428-2.726-1.3-3.245.909-3.245,1.038-3.765-2.337-.389-2.986-.779-6.62-3.765-7.659s-3.765,3.765-5.452,4.284c-3.894,1.3-1.688,2.726-1.038,4.414.519,1.558.909,3.245,1.3,4.933l-.26.26c-2.077-.389-.909,3.375-3.375,2.6-1.3-.389-2.077-1.558-1.558-2.337,3.635-5.971-2.986-9.606-3.245-14.8-.13-2.337-3.115-4.024-5.712-4.673-2.986-.779-2.207,2.6-3.635,3.635-1.558,1.3-1.038,4.284-3.765,4.933-3.635-5.322,2.466-7.269,3.635-10.9.13-.519,1.558-.519,2.207-1.038,1.817-1.688-.13-2.077-1.038-2.207-1.817-.26-3.765,1.168-3.765,2.337-.13,3.115-2.986,4.673-3.5,7.4,0,.26-1.038.26-1.3.389-2.207-1.688.649-3.375-.13-5.063-2.726,1.168-1.817,4.673-4.543,5.452-.649-1.168.779-3.115-.909-3.245-1.039,0-2.077,1.558-2.077,3.375.13,3.115,2.207,6.88-1.947,9.606-.909-3.115-1.688-5.712-2.466-8.438.389,3.375-.779,5.322-3.5,7.4-.909.649-4.8,2.466-2.207,5.582l-.13-.13c1.558,2.856-2.337,5.842.389,8.568,1.3,1.3,4.024,2.856,1.688,4.414-2.6,1.688-1.558-2.726-3.5-3.375-1.688-.519-.519-2.856-2.207-5.063V55.6c-3.635-1.428-2.856-4.284-2.077-7.01.26-.909,1.688-1.688,1.039-2.726-.519-.909-1.688-1.3-2.6-1.817-1.428,7.14-3.894,14.02-2.466,21.289-1.947-1.947-5.582-1.688-6.1-5.842-.26-2.207-2.466-1.817-4.024.26a36.99,36.99,0,0,0-6.62,14.279c4.543-.779,4.543-.779,4.8,5.192-2.207.779-3.5,3.115-2.466,4.543,3.5,4.543.13,11.164,4.933,15.058,2.207,7.4,2.077,14.539-3.5,21.03,8.827-1.038,4.414-8.308,7.01-11.683,3.115.13.779,4.414,4.543,3.894-1.428-4.154-5.712-7.269-4.284-12.2.389-.649,1.168-1.3,1.3-2.077,1.3-6.1-3.5-10.645-3.894-16.486-.13-1.3-.649,0-.909.26-4.8,3.5-2.077-1.428-2.726-2.466,3.894-3.765,3.894-9.606,7.4-13.76,1.3,1.817-.389,4.933,1.817,5.192,3.245.389,2.077-2.986,2.6-4.8,0-.26.13-.389.13-.649,2.6.649,1.947-2.856,3.894-3.116.519,3.375-1.168,6.75.519,10.125.649,1.168-.13,1.947-1.558,1.817-1.038,0-1.947-2.726-2.6-.779-1.038,2.726,3.765,3.375,3.375,6.361-.13.779.389.649,1.3.519a20.191,20.191,0,0,1,7.659,1.558c.389.13,1.817,2.466.389,3.894a1.686,1.686,0,0,0,.389,2.466c5.842,2.207,13.5-.26,16.356,8.178,1.558-2.337-1.038-3.765.649-5.063,6.231,4.933,6.231,4.933,11.423,3.635-.13-2.726-3.765-.26-4.284-2.856,5.452-3.115,17.395-3.115,21.938-1.688,2.986.909,6.491,2.207,10.125,1.168-2.6-4.024-2.6-4.024,1.947-8.048-3.635-.519-8.438.13-10.515-1.947-3.245-3.115,2.466-6.361,2.337-10a4.125,4.125,0,0,0-.389-1.168c-1.817,1.3-.779,5.192-6.491,5.192,6.62-3.765.13-10,5.192-13.371,2.466.909-.26,3.245,1.558,4.414,3.5-2.986-.779-8.568,3.765-11.813A48.022,48.022,0,0,1,186.8,78.443c2.466-3.115,8.7,2.077,9.217-5.192.26-3.765,2.077-7.4-.649-10.9,1.038-1.3,1.688-3.5,3.765-2.856,2.077.519.649,2.6.779,3.894a37.747,37.747,0,0,1,0,7.659c-.519,4.543,1.817,5.322,5.712,6.491,5.452,1.558,9.217-5.452,14.539-1.817.13.13,1.3-.779,1.3-1.168-.26-3.375,4.024-5.192,2.986-8.827,3.5-1.168,2.6,1.817,2.6,3.245.13,1.558,1.168,3.5-.779,4.543-.779.389-3.375-2.207-2.466,1.038.779,2.6.779,7.919,1.817,7.4,4.933-2.077,8.957,3.765,13.63,1.038,1.038,2.077,1.817,4.414,3.765,5.712-4.284,4.154-1.038,8.438,1.428,10.515,3.115,2.726,7.4,6.1,12.462,2.856,1.947,1.3,3.245,3.765,5.971,3.894.909.909.779,4.414,2.856,2.337,4.673-4.673,8.308,4.414,12.462.519.13.389.649.909.519,1.039-3.375,3.765-.13,3.5,2.207,4.024a1.331,1.331,0,0,1,.389,2.207c-4.8,4.154-.779,3.635,1.947,4.024,1.817.26,3.375,1.039,3.375,3.765,0,4.284,2.726,4.543,5.842,2.466.909-.649,1.168-2.337,2.466-1.428,3.5,1.3-2.986,3.635,1.168,5.842,3.635,1.947,5.322-2.856,8.048-.779,1.038-2.207-.26-4.154-1.039-6.1-3.245-7.14-6.1-14.669-14.409-17.784-.779-.26-3.375-1.3-.649-2.856.779-.389,2.466.13,1.038-1.558-.519-.649-1.038-1.817-2.466-.649-5.063,3.765-9.476-2.077-9.476-3.765.13-5.063-2.207-3.894-4.933-3.245s-4.933,1.3-3.245-3.115c1.168-2.856-1.3-3.5-3.245-2.726-3.635,1.168-7.01,5.063-10.515-.13-.13-.13-.389,0-.649,0-4.414,0-6.75-2.337-7.14-6.62.519-.26,1.428-.26,1.688-.779,4.673-8.308,5.452-8.438,13.371-4.543,1.817.909,3.5,2.6,5.842,2.207-1.428-2.986-1.428-5.063,2.6-4.933,1.428.13,2.856.779,3.765-1.168,1.947-4.284,6.361-7.4,5.322-13.241-.519-2.986,1.817-6.231,4.673-7.14,4.024-1.3-.519,4.414,3.115,4.284a55.788,55.788,0,0,1,3.115-6.231c.909-1.558,1.428-4.673,3.765-3.635,2.986,1.428-1.688,3.245-.649,5.192,1.558,0,3.115-.389,4.543,0,5.192,1.558,5.971-1.817,6.1-5.582.26-5.452-1.428-10.645-3.375-15.577-1.039-2.726-.779-4.414,1.558-5.971-.519,4.024,1.168,7.269,2.856,10.385.519.779.649,2.337,2.077,1.947a3.069,3.069,0,0,0,1.558-1.817c1.039-4.933,2.726-9.866.519-15.188-2.077,1.428.26,4.673-2.986,5.322-2.6-2.337-.779-5.452-1.168-9.866-1.947,6.231-5.192,3.894-8.178,2.986s-.13-2.856-.649-4.284C297.533,14.446,297.922,14.057,298.312,13.8ZM258.849,253.041c3.375,1.428,4.154-1.817,5.971-3.245,2.207-.13,1.558-2.6,2.856-3.5-1.817-2.207-4.8-1.688-7.01-2.6,1.038-3.375,5.192-1.688,5.842-4.933,3.635,1.688,5.842-1.817,8.957-2.207-.649-1.817-4.024.26-3.5-2.6.389-2.077,2.466-1.038,3.764-1.428,2.6-.649,5.582-.909,7.14-3.635.779.26,1.558.519,2.207.779-3.635,7.269,2.337,3.115,4.284,3.375,1.038.13,2.337-.909,3.375-1.428.13.26.389.649.519.909-.649,1.168-1.3,2.466-2.077,4.024,5.971-1.3,12.2,1.168,17.654-2.466,1.428.13,2.856.13,4.414.26-1.947,1.817,1.168,6.75-3.5,6.361-4.284-.389-6.361,2.077-9.217,4.414,2.337,1.038,3.894-1.947,5.971-.13-.389,3.245-3.765,2.856-5.452,4.543-5.452-4.543-8.048.649-11.423,3.765,3.375-1.558,5.582,2.986,7.01,2.207,4.024-2.207,8.048-2.466,12.332-2.337,3.375.13,2.337-2.207,1.817-4.024a18.855,18.855,0,0,0,8.308,2.986c1.688.13,1.947,2.6,1.038,2.6-3.115-.13-5.063,3.5-7.529,2.6-6.88-2.726-12.592,1.039-19.991,2.337,5.193,2.856,9.346.389,13.371.26,0,3.245-4.154,2.6-4.024,5.322,5.452.909,10.9,1.3,15.707,4.024l-2.207,2.207a15.518,15.518,0,0,0,7.659-1.817c1.038-.519,3.115-1.3,3.5-.909,6.75,6.231,10.125.519,12.981-4.024,1.168-1.817,3.115-1.947,4.414-4.284-4.414.13-4.8-2.207-3.245-5.322,1.3-2.726.389-5.063-2.466-3.5-6.361,3.635-2.856-1.947-3.635-3.5.909-2.726-2.077-3.765-2.466-5.842-1.428-1.817-2.726-3.5-4.154-5.322,9.736,4.414,15.188,12.462,19.861,21.289l-.13-.13c-.13,3.894-4.414,7.27-1.558,11.683-2.856.649-5.971.13-8.438,3.245,5.842.519,10.255,3.5,15.188,7.27,1.947-13.111,3.635-25.7,2.077-38.165a128.471,128.471,0,0,1-1.168-18.563c.13-9.476-.13-18.823-4.414-27.52-2.337-4.8-2.466-10.255-2.986-15.577-1.428-11.943-5.192-22.977-16.486-29.6-2.466-3.375-5.322-1.3-8.048-.389-1.688-2.337-5.192-2.337-4.284-7.659.909-4.933-11.683-7.919-17.525-4.543.779,2.726,4.933.389,5.322,4.024-1.558.649-3.115,1.168-4.543,1.817-.909.389-2.986-.649-2.726,1.558.26,1.688,1.558,2.466,3.375,2.207,1.3-.13,2.6-.389,3.894-.389,4.543-.26.389,2.207.909,3.245l.13-.13c-3.115.649-6.361-.13-9.606,1.168-1.558.649-3.5-.519-4.284-2.077-1.168-2.6,2.856-.389,2.726-2.466-8.957-.389-8.827-.13-14.669,3.765-2.207,1.428-9.736-3.245-5.712,5.192,0,0-.26.389-.389.389-8.7-.779-2.6,5.452-4.154,8.438a39.948,39.948,0,0,1-4.933-2.077c-1.3-.779-3.765-1.428-2.726-3.635,1.3-2.466,2.726,1.038,4.414.389.13-1.947.26-4.024.519-6.231-6.1,1.428-11.943,2.856-17.525,4.154.519,4.284,2.986,8.178,1.688,13.241-1.947-2.466-2.077-4.8-2.726-7.01-1.688-5.712-2.726-5.971-7.01-1.428-1.168,1.168-1.817,1.038-2.466.26-3.894-4.543-2.986-6.62,3.375-8.568a21.133,21.133,0,0,1,5.712-1.038c8.178.26,7.14-.909,11.943-4.933,3.115-2.6,5.712-10.645,12.462-5.582,1.039-2.856-5.452-2.077-2.077-4.673,4.8-3.635,1.039-4.414-1.038-6.1-.909-.779-2.466-1.038-1.428-2.726,1.558-2.856,1.428-3.765-.389-3.375-4.8,1.168-8.178-1.817-11.943-3.635-1.947-.909-3.245-2.337-4.024,1.168a2.6,2.6,0,0,1-3.5,1.947c-1.817-.649-1.428-1.688-1.428-3.5.13-1.817.779-4.414-2.207-5.712-4.543-1.947-6.75-1.947-11.294.909a1.519,1.519,0,0,1-2.207-.519c-1.3-1.558-2.466-3.245-4.154-5.452,2.856-.389,5.192-.779,7.529-1.038v-1.947c-6.75,0-13.89-1.168-20.251.389-4.024,1.038-6.1-.389-9.346-1.168-4.673-1.039-8.438-9.346-14.409-2.6-.26.389-1.558-.13-2.337-.26.649-.909,2.077-1.428,1.428-2.986-6.1.779-12.073,1.688-18.044,2.077-9.346.649-18.174,4.024-27.65,4.024-6.491,0-12.2,5.712-13.371,12.851,4.284-2.077,4.414-10.385,11.683-7.269-.389,2.207-2.337,2.207-3.894,2.726-2.466.779-2.466,3.115-1.817,4.673.909,2.337,2.726.26,3.765-.26,5.712-3.375,11.943-5.322,18.433-6.88,5.842-1.428,11.813-3.245,18.563-3.375-1.688,2.337-3.5,2.466-5.322,2.856a129.756,129.756,0,0,0-42.708,17.005c-.389.26-2.077.13-2.077,2.856,0,4.024-4.284,8.048-6.75,12.073a2.044,2.044,0,0,1-1.558-.519c-3.245-4.933-4.673-.779-5.712,1.428-.779,1.947-1.428,3.765-3.765,3.5-8.308-.649-13.111,5.063-18.433,10V162.3c-.779,3.635-4.284,2.726-6.62,3.635-8.048,3.115-15.707,8.048-18.3,15.837-2.077,6.361-6.1,11.423-7.789,17.784l.13-.13c-2.986,2.337-6.361,4.414-9.217,6.491-7.4,5.712-14.669,21.549-7.01,33.491,1.168-2.077,0-5.712,4.154-5.842-2.726,17.395-2.986,15.318,9.606,25.443-5.712,2.466-3.765,4.414.13,6.62a26.949,26.949,0,0,1,5.971,4.8c3.5,3.635,7.4,3.764,11.813,1.817l-.13-.13c-.13,2.986-4.284,8.438,4.154,5.712,2.726-.909,9.087.779,9.087,1.039-.26,6.75,5.712,1.947,7.4,4.543-1.168-4.414-.779-5.452.779-4.8,4.284,1.688,9.606,0,14.15,4.154H99.31c.779,2.337,3.115,2.207,3.894,4.414,1.688,4.673,6.361,0,7.659,1.038,7.789,6.231,14.928,1.817,22.328-.389,2.6-.779,5.582,0,2.466-4.154-.779-1.038.779-2.6,2.077-1.168,1.947,2.077,4.933,1.688,5.842.779,4.8-4.933,13.5-2.986,17.265-9.866-1.558-1.3-3.245.779-4.8.13-.26-2.077.519-4.543-3.5-4.024-3.116.389-4.8,1.817-4.8,4.543-.13,3.5,2.466,2.337,4.414,2.077-5.971,4.154-13.111,3.375-19.731,3.635-4.154.26-8.308-1.688-11.683,2.207-.779.909-1.947-.13-2.6-.909a66.28,66.28,0,0,0,5.063-5.452c2.077-2.986,2.337-7.659,7.659-7.01a1.194,1.194,0,0,0,1.039-1.817,3.132,3.132,0,0,0-2.207-.909c-3.245-.13-6.491,0-9.736-.13-2.466-.13-5.971-.389-6.1-3.115-.13-2.466,2.856-3.635,6.1-4.024-1.558,2.6-2.466,3.894,1.168,5.193,3.894,1.3,6.231-2.337,9.476-1.688,7.919,1.558,11.164-.26,13.5-8.308l-.13.13c.649.26,1.817.519,1.688.649-.389,5.452,2.856,5.971,7.01,5.582.519,0,1.168.649,1.558,1.039,3.245,4.673,8.7,2.337,12.851,4.024.779.389,1.817-.389,2.6-1.428,7.01-8.957,15.448-10.515,25.443-4.933v.519l.519.13c.519,0,1.038.13,1.688.13,5.063.13,10.515,2.207,14.15-3.375.909-.519,1.688-.909,2.6-1.428,2.207-.13,3.5-1.558,4.673-3.115,2.726-3.5.649-4.543-2.6-4.673.909-5.842,7.789-7.919,8.568-13.5-4.673-2.726-10.125-1.168-14.928-3.375,6.361-.26,12.851-.519,18.953.909,3.765.909,6.75-.519,7.529-2.6,1.168-3.5,3.765-4.543,6.361-5.322,7.14-2.207,11.683-7.01,15.058-13.63-3.5-.13-7.01,3.245-10.645-.649,4.673-1.3,8.7-2.6,12.722-3.375,3.635-.649,3.894-2.6,2.726-5.452l-.13.13c5.322.519,8.308-5.842,14.02-4.933-2.077,3.375-6.491,3.245-7.919,6.75,1.688.649,3.375-2.337,5.192,0-1.688,2.077-4.284,2.207-6.491,3.245-3.245,1.558-6.1,4.024-7.01,7.01-1.038,3.5-.26,3.765-2.6,5.322-4.933,3.245-9.866,6.75-14.928,10.125,6.361,4.8,9.736-1.558,14.15-3.635.519,2.6-1.688,3.375-1.947,5.063-2.6,1.3-5.192,2.6-7.919,3.635-1.558.649-1.558,2.207-1.688,3.115-.13,1.558,1.428,1.817,2.856,1.688s2.856-.649,4.414-.909c-1.428,2.077-3.116,4.154-1.428,6.75,1.947,3.116,3.5-.649,5.322-.389,1.688.26.779,1.558.779,2.466-1.558,1.168-3.894,1.688-4.284,4.673,2.077.389,4.154.779,6.1,1.168-4.154,2.856.779,5.582.13,8.568-.389,1.558.26,2.466,2.077,2.337s3.635,0,4.284-1.947c.519-1.428-.389-2.207-1.817-2.856C260.8,257.973,260.8,254.728,258.849,253.041Zm77.238,35.569c0,4.154-5.192,3.894-6.361,7.14,3.894-2.077,8.438-2.856,11.423-6.231,4.414-1.688,5.842,1.039,6.88,4.414-1.3-1.168-2.856-2.466-4.543-1.688a101.8,101.8,0,0,0-20.64,11.943c7.4-2.856,13.63-8.178,21.679-10.774-.519,3.5-3.894,3.765-5.322,7.27,4.414-2.337,8.308-1.039,11.553-3.375,1.428,3.5,2.726,7.01-4.024,7.27,7.01,1.947,12.981.649,19.731.389-4.154-5.063-6.62-10.125-9.866-14.539a32.535,32.535,0,0,0-21.808-13.241c-3.375-.519-1.558,2.077-1.817,3.245-1.558,1.039-3.115,1.947-4.673,2.986-5.971,5.063-11.294-1.3-17.135-.779a92.8,92.8,0,0,0,16.746-6.361,11,11,0,0,0-11.423-.389c-8.568,4.933-17.654,4.933-26.871,5.192-.13,0-.389.519-.519.909,1.039.26,1.947.519,2.856.779-.779,1.947-3.115,1.3-4.673,2.726a11.384,11.384,0,0,0,2.986,0c3.375-1.168,7.4-1.428,7.919,2.466.519,3.375-4.024,3.115-6.491,3.635-7.529,1.817-14.8,4.024-21.549,7.919,11.164-2.856,22.068-6.231,33.232-9.346,4.673-1.3,9.736-4.673,14.149,1.168.779,1.039,2.337.389,3.635.13,5.063-1.038,10.125-1.947,15.188-2.986ZM278.84,248.237c3.5.26,7.01,2.207,10.515-.13,1.688-1.168,2.856-2.986,2.077-4.933-.909-2.077-2.337-.519-3.765-.13-2.6.649-4.8.13-2.726-3.116,1.3-2.077-1.168-1.817-1.3-2.856-3.375,1.558-8.7-.389-9.866,5.582,2.6-.649,4.154-3.635,7.14-2.466-.13,3.245-3.635,2.856-4.414,5.063,2.207,1.038,3.894-2.6,6.1-.779.519,3.115-2.726,2.466-3.635,4.024-4.673-.519-9.087-.13-12.2,4.154-.779,1.038-1.688,2.077-1.428,3.375.389,1.428,1.947,1.428,3.245,1.428,1.038,0,2.6.779,2.726-1.428.13-2.986,2.207-3.5,4.543-4.154C277.542,251.353,279.359,250.7,278.84,248.237Zm176.285-94.373c-1.038.13-2.337-.13-2.856,1.038-1.039,2.077-2.6,3.245-4.673,2.337-3.635-1.428,1.688-3.375,0-5.063-3.5,1.558-3.635,1.428-4.8-2.337-.26-.779-.909-2.986-2.466-1.038-2.466,3.115-7.4,1.817-9.476,6.231-1.3,2.856-2.986.13-4.024-1.428,5.063-4.154,10.125-8.308,14.8-13.89,1.558,0,.13,2.856,1.947,3.635.649-2.986.13-5.712-2.337-7.529-2.337-1.817-1.947,3.245-5.322,1.688,2.856-6.1.389-11.943-1.817-18.174-1.688,3.765,3.5,7.659-1.428,11.294-1.688-8.7-4.414-16.746-7.529-25.313-.909,12.592-.909,12.592-4.8,15.448,5.971-4.8-5.582-10.255,1.038-15.188.649-.519-1.168-1.168-1.947-1.688-3.894-2.986-9.866-3.765-10.645-9.866-2.726.26.649,3.894-2.337,3.635-2.207-.13-2.207-2.856-2.337-4.154-.26-2.077.389-4.154-2.337-4.8a63.554,63.554,0,0,0-3.115,6.75c-.389,1.168-.26,2.986-2.077,2.077-1.3-.649-2.077-1.947-.649-3.765,2.077-2.726,3.375-5.842,1.558-9.866,1.168,7.4-5.712,6.1-8.957,8.308-1.3.909-2.986-4.024-4.8-5.971-3.245-3.5-1.817-7.01-1.038-10.9-2.986.779-1.039,4.8-4.024,4.8-2.207,0-4.543-1.428-6.491,1.038,1.168,1.817,4.154-1.688,4.543,1.688-2.337,2.6-5.712,3.115-9.476,3.5,1.428.779,2.466,1.168,3.375,1.688,1.558.909,4.414,1.168,3.375,3.635-1.168,2.6-3.894,3.245-6.62,2.337-4.414-1.428-4.414-1.558-4.933,3.635l.13-.13c-1.168,2.207-2.337,4.543-3.5,6.75-.26.649-2.466,1.688-.26,2.077,5.842,1.3,1.558,3.635.389,5.063-1.947,2.337-2.466,4.8.519,5.582,2.6.649,7.529.389,8.308-1.168,2.466-4.543,4.024-.649,5.322.13,1.428.909,1.038,3.635,2.986,4.673,4.284-4.673,10.385-6.1,14.669-3.5-.519,4.024,2.856,2.466,4.673,3.245,2.6-.649,5.582-.649,6.62,1.947.779,1.817-1.817,3.635-3.116,4.414-2.207,1.3-5.842,3.765-7.4,1.947-3.894-4.284-6.231-1.168-8.308,1.168-1.168,1.3-2.6,1.558-3.765,2.337,4.154,2.466,4.8-3.5,8.178-3.115-1.038,6.1-4.154,7.919-12.722,7.14,7.529,4.024,7.789,4.933,2.856,13.111a13.244,13.244,0,0,0-1.168,2.856,2.023,2.023,0,0,0,.389,1.558c2.077,1.688,2.6,3.245.779,4.024-5.063,2.077-8.438,7.14-14.409,7.789a8.865,8.865,0,0,0-6.62,3.635c2.077,1.038,3.765,1.817,5.452,2.6l-.13-.13c-3.5,2.207-7.529.26-11.164,1.168-.649.13-1.947-.779-1.168-2.337,1.039-1.817.909-1.817-2.466-2.207l3.115,12.462c1.688-5.063,1.688-5.063,7.27-4.024a8.292,8.292,0,0,0,4.933-.779c2.726-1.168,5.582-2.077,8.7-.779,1.817.649,3.115,0,4.933-1.168,4.8-2.726,9.476-6.75,14.15-8.438,6.491-2.337,10.255-6.62,14.539-11.034,1.3-1.3,1.168-2.6.519-4.024-2.337.779-4.543,1.558-7.659,2.466,1.947-6.88,7.789-4.543,11.034-7.269.779,3.115-1.038,5.712.26,8.178,6.88-5.063,6.88-5.063,8.438-.389-4.414.649-7.4,4.673-12.592,4.673,1.817,2.337,4.154-.13,5.063,2.726a31.723,31.723,0,0,1-14.279,5.582c-3.245.519-5.971,3.375-5.712,4.673.779,6.361,1.168,6.361-5.712,8.438-1.558.389-3.5,0-4.154,2.207,7.659-.13,7.529-.26,11.813-4.543,1.428-1.428,3.765-4.024,5.192.26.779,2.337,1.558.26,2.077,0,1.428-.649,1.558-1.168.909-1.688-4.284-3.245.13-3.375,1.428-3.245,5.192.519,5.842-5.452,9.736-6.75.26-.13-.519-4.673,2.466-4.284,2.337.26-1.428,3.5,1.558,4.8,2.986-3.894,7.01-7.14,6.1-13.111,4.8-3.635,4.8-3.635,5.322.13-2.077,7.659-8.568,13.241-10.385,21.159-.389,1.558-.26,1.947.649,2.986,1.817,2.207,1.428-.13,2.207-.649,1.3-.909,2.6-4.024,4.284-1.428.519.909,2.726,5.192-.519,5.842-4.284.779-5.193,4.414-8.438,6.491,4.154.13,9.087-4.8,9.736,3.375.26,3.375-2.337,3.635-4.154,4.933-.649.519-2.466.519-.909,1.947.649.649,1.168,1.168,2.466.389,4.673-2.726,7.14-6.62,6.231-11.813-.779-4.8,3.245-7.919,3.635-12.2.13-1.817,2.6-1.817,4.414-1.428,1.947,3.765,1.688,6.75-2.337,9.087-1.3.779-4.154,2.337-2.726,3.635,4.154,3.894-.649,5.452-1.817,7.789,6.75,4.284,8.827-5.192,15.967-4.414-5.582,4.543-8.827,9.346-12.981,13.5-.649.649-4.024-.389-3.375,1.817.519,1.688,3.116,2.466,5.842,1.558,2.986-1.039,3.375-3.635,4.933-5.582,2.6-3.245,6.75-4.933,7.919-9.606.389-1.558,2.726-2.856,4.933-2.6.779,3.115-3.375,3.115-3.115,5.322.519,4.154-1.3,6.231-5.322,7.14-2.856.649-2.337,4.154-1.688,4.8,2.077,1.947.909,4.284,1.688,6.88,3.765-2.986,7.529-5.971,13.241-6.231-2.6-2.986-4.414,1.168-6.1-1.817,4.154-2.337,5.193-8.568,10.255-8.7,5.452,12.981-5.712,13.371-12.592,17.525,6.75-1.947,13.5-3.894,20.9-5.971-.649,3.245-3.635,2.077-3.894,4.284,2.077,1.688,4.154,3.245,6.491,0,.649-.779,2.077-.909,3.765-.13,4.414,2.077,8.568,3.894,7.659,10-.13.909,1.3,2.207,2.726,2.466-.26.909.649,2.466-1.168,2.337-5.712-.389-5.712-.519-2.726,6.1.649-2.856,3.116-2.986,4.543-4.414,1.817-1.817,1.038-2.856-.779-3.894.13-1.038-.389-2.466,1.168-2.466,2.466.13,3.245,2.6,3.116,4.154-.649,5.192-3.116,10.645,3.635,13.89-1.168,5.842,3.5,6.231,7.14,7.14s5.712,3.5,7.789,5.971a4.9,4.9,0,0,1-.519,6.88c-1.947,1.688-3.245-.389-4.154-2.207-.519-1.039-1.817-.909-2.856-.519-1.3-2.207,4.284-2.856,1.428-5.192-2.207-1.817-4.673-2.077-6.62.649,1.168,2.466,3.5,3.245,5.452,4.543-1.039,2.6,1.038,4.673,2.466,5.192,4.024,1.558,8.438,1.947,11.943,4.933a2.033,2.033,0,0,0,2.726-1.039,1.834,1.834,0,0,0-1.168-2.6c-1.428-.519-2.726-.779-1.947-3.115,1.039-2.986,0-5.712-2.6-7.659-1.688-1.3-1.688-2.856-.13-3.635,3.894-1.947.909-4.8.649-8.827,2.466,3.635,7.01,1.947,7.14,6.491,0,1.168,2.077,1.168,2.6.389,2.207-3.5,4.024.649,6.1.13,0,.649-.26,1.428.13,1.947,2.207,3.245,3.635,7.789.26,9.606-3.375,1.688-5.842-2.726-6.88-5.971-.779-2.466-1.687-2.207-3.635-1.558-2.207.779-2.077,2.466-1.168,3.5,2.466,2.726,3.635,5.971,4.8,9.346.909,2.6,2.856,3.635,5.192,2.726,2.466-3.765-6.1-3.375-2.466-6.1,2.337-1.817,6.491,1.038,10,2.856-2.986-2.6-2.986-5.842-2.6-8.957.389-3.375-1.3-5.192-3.635-7.01-.13-4.024-6.231-2.986-6.1-7.4,0-1.168-2.856-1.947-.649-3.635,1.817-1.428,2.466.26,3.5,1.428,1.558,1.947,3.245,3.894,4.933,5.842.389-.389.649-.519.649-.649,1.688-3.765-6.491-11.813,5.193-11.423.649,0,3.115-4.8.649-6.75-3.116-2.466-2.467.909-3.245,2.6-.779,1.558-1.558.13-2.466-.909-3.375-3.5-1.428-8.178-3.115-12.073-.519-1.3.26-3.765,2.337-3.894,1.558-.13,2.207,1.428,1.817,3.245-.909,6.491,5.582,5.582,8.7,8.178.519.389,2.207-1.428,1.168-2.077-3.894-2.726-2.856-8.048-6.491-10.774,3.245-2.077,8.308-1.168,8.308-.26.779,5.842,5.063,2.6,7.789,4.543-.26-3.5-3.116-3.115-3.894-4.8a1.639,1.639,0,0,1,.13-1.558,1.8,1.8,0,0,1,1.558-.389c2.466,2.337,5.582,4.543,7.14,7.4,1.688,3.245,1.038,3.5,5.192,4.414.519-1.428-2.466-2.077-.909-3.765.649-.779,4.933-2.077-.26-2.337-.909,0-2.6-1.428-1.558-2.856s2.726.779,3.245.389c3.635-2.077,10.9,9.346,11.813-3.115.13-2.077,3.5.13,4.933-2.077-4.284,2.856-7.01-3.765-10.255-1.817-3.115,1.817-5.322,1.3-6.75-.649-2.856-3.894-6.75-1.817-10-2.856a.984.984,0,0,1,.26.519c0,.26.13.389.13.649l-.389.389c-6.231.519-6.361-6.231-10.515-8.568-1.558-.779-2.856-2.726-3.635-.779-1.3,3.5-2.986,1.817-4.673,1.168-3.375-1.3-7.269-.519-10.385-2.856-.519-.389-1.428-1.038-1.947.26-.389.909,3.245,3.245-.649,2.6-1.947-.389-5.452-1.688-4.8-4.284,1.558-5.322-.26-3.765-3.245-2.207-1.3.649-3.375,1.038-4.673-.519a3.258,3.258,0,0,1,.13-1.3c5.971-1.688,0-5.322,1.168-7.789-2.726-.13-5.322-.13-8.048-.26,1.038,4.8-1.168,3.5-4.154,2.6-5.063-1.558-9.866-1.817-10.645,5.322-.389,2.986-3.245,1.3-4.543,2.726-.649.649-1.3.389-2.077-.519-5.841-6.62-9.476-8.568-17.395-1.558-.909.779-1.558,2.337-3.5,1.038,2.077-3.894,4.284-6.88,9.087-8.178A16.1,16.1,0,0,0,479.01,169.7c2.726-5.063,5.841-9.217,12.592-5.842,1.039.519,2.207.519,1.688-1.3-.13-.649.13-2.466-.649-1.817-4.414,3.115-8.048-2.337-12.073-1.038-4.414-2.207-4.414,2.6-6.491,4.154-2.466-.13-4.933-.389-7.269-.649-2.6-.389-7.27,1.428-7.27-1.038,0-3.765,4.543-.779,6.75-1.947.389-.13.649-.389,1.558-.779-7.01-6.491-2.986-8.827,5.322-9.476-7.01-4.154-10.125,2.466-14.8,2.337A12.352,12.352,0,0,0,455.125,153.864ZM504.973,268.1c-3.116-3.765-5.971-7.01-8.568-10.515-6.491-8.438-13.5-16.486-18.044-26.222-2.856-6.1-5.842-11.683-14.539-11.423-7.789.26-15.188-3.5-22.587-5.971-15.967-5.452-28.429-16.486-41.67-26.222-1.947-1.428-3.635-3.5-6.231-2.6a76.3,76.3,0,0,1-36.218,3.765c-5.063-.649-6.491,1.428-4.284,6.491a56.088,56.088,0,0,1,4.284,25.313c-.26,6.231.519,12.462,1.038,18.563,1.038,13.63,1.947,27.39-2.207,40.891-.389,1.428-1.168,2.986.26,4.154,4.933,4.414,7.01,10.774,11.294,15.707,5.063,5.712,9.606,6.88,15.837,2.207a25.157,25.157,0,0,1,12.2-4.8c7.14-.909,12.851-4.284,18.433-8.178,5.063-3.5,10.515-7.27,16.876-7.14,9.736.13,18.693-2.466,27.52-5.842,6.361-2.337,11.943-6.62,19.342-6.75C486.669,269.4,495.626,270.825,504.973,268.1Zm107.874-58.026c-10.9-2.207-21.679-10.515-32.713-1.3,4.414,2.466,10.385.909,15.448,5.582-5.452,1.168-9.217-1.3-13.241-1.3-1.168,0-3.635-.26-3.115.389,1.688,1.947-.649,4.414,0,4.543,1.688.389,3.894,2.856,4.414,1.428,2.466-7.14,7.919-2.337,11.813-3.5,1.3-.389,3.115-.389,2.856,1.428-.519,4.154,2.337,2.207,3.245,1.688,2.207-1.168,4.024-2.986,6.231-4.673-3.375-1.947-5.193,4.024-8.438.389a15.438,15.438,0,0,0-8.568-5.192c-1.687-.26-2.207-1.3-1.3-2.726,1.038-1.558,12.722.26,13.371,1.947,1.168,2.986,1.428,3.375,1.947,2.856C607.394,209.813,610.25,211.371,612.846,210.073ZM204.588,275.238c-5.192-.779-10.125-1.947-12.722-7.01-3.765-7.529-6.88-7.919-12.332-1.3,2.6,2.207,4.284-2.986,6.88-.909.909.779,2.726-1.168,3.635,1.3.909,2.726-1.558,2.077-2.207,3.115-2.077,3.635-6.491,3.635-9.606,6.231C187.063,273.681,195.89,275.758,204.588,275.238ZM497.573,169.831a33.677,33.677,0,0,0-4.673,2.6c-.909.649-1.3,2.207,0,2.6a4.15,4.15,0,0,0,4.933-2.077c.519-1.3,1.947-4.414-.909-4.543s-4.673-2.6-7.14-2.466c-1.428,0-2.856-1.168-5.063,1.688-2.726,3.635-.779,7.789-4.8,10.515,6.62-.26,6.75-.26,6.231-4.8-.13-1.428.389-1.3,1.168-1.558C490.3,170.87,492.77,168.143,497.573,169.831Zm-221.979-40.5c1.168,3.5,6.361,1.688,5.971,4.673-.779,4.673,2.337,5.452,5.063,6.62a82.261,82.261,0,0,0,9.606,2.986,1.929,1.929,0,0,0,1.688-.779c.26-1.3-1.3-.389-1.428-1.038-1.168-3.245-3.894-2.207-6.231-2.466-2.856-.26-2.986-.649-1.428-3.375a6.108,6.108,0,0,0,.26-.649C284.552,133.354,281.826,127.772,275.595,129.33Zm-35.958,108c-4.933,2.207-3.765,8.178-7.659,10.645-.909.519.519,3.635,3.245,2.466,2.856-1.3,5.712-2.466,8.957-3.894C240.935,244.473,239.9,241.228,239.637,237.333ZM642.7,203.972c-2.856-1.558-5.193-3.894-7.529-2.726-3.375,1.688-6.1,4.673-9.736,6.1-.13,0,0,1.428.26,1.558,2.077,1.038,4.8-1.947,6.491,1.168,2.6-1.817-2.337-2.856-.26-5.063C635.693,209.294,638.809,206.308,642.7,203.972ZM233.276,236.554c-2.986,1.817-5.971,3.5-8.827,5.322a3.54,3.54,0,0,0-.909,5.063c1.817,1.817,3.765,0,4.543-1.558C229.641,242.4,231.589,239.8,233.276,236.554ZM209.391,87.66a41.613,41.613,0,0,0-7.01.13c-1.428.26-3.115-1.688-4.154.519,3.5.26-.909,3.765,1.947,4.673,1.817.519,3.5,1.947,5.192.13C206.794,91.425,208.612,90.256,209.391,87.66ZM134.359,278.094c8.308-2.207,8.308-2.207,9.866-5.712C135.528,271.214,135.528,271.214,134.359,278.094ZM298.7,300.811c3.635,2.466,7.269,3.375,11.164.779,1.039-.649,2.856-.519,2.337-2.207-.389-1.428-2.077-1.558-3.375-1.168C305.452,298.994,302.206,299.9,298.7,300.811Zm-209,41.41.389,1.947c6.88.649,12.851-2.986,19.082-5.842ZM259.238,7.047c.649,3.245,3.765,4.284,2.466,5.712-2.726,2.856-4.8-3.115-7.919-1.3,1.688,4.673,7.529,3.115,10.515,7.529C264.171,14.057,264.171,10.422,259.238,7.047ZM220.165,322.49c-7.14,2.337-14.409,4.673-21.549,6.88C206.665,329.63,213.415,325.995,220.165,322.49ZM102.685,104.406c-.909,4.154,4.024,6.491,2.6,10.645-1.168,3.375-.909,3.5,2.077,4.933C108.007,114.4,107.229,109.209,102.685,104.406Zm415.528,71.786c-.26,4.673-.649,7.4,3.765,7.14,1.817-.13,5.841-1.3,3.765,3.5A6.716,6.716,0,0,0,527.82,188a1.522,1.522,0,0,0,1.428-.649c1.168-2.466-2.207-7.27-4.284-5.971C520.031,184.37,519.9,180.605,518.213,176.192Zm106.706,26.482c-4.024-.779-8.308-2.077-9.346,3.5C619.6,207.736,622.063,204.75,624.919,202.673ZM237.041,330.408l.389,1.168,17.525-5.842c-.13-.519-.389-1.038-.519-1.558C248.724,326.255,242.882,328.331,237.041,330.408Zm-67.892-46.473c3.894,1.688,6.361-2.6,9.476-.909a15.836,15.836,0,0,0,.909-2.207c.26-1.3-.909-1.039-1.688-1.168C174.341,279.263,172,281.469,169.149,283.936Zm108.263,18.174c5.841-.389,11.164-1.558,15.448-5.452C287.8,298.475,282.6,300.292,277.412,302.109Zm226.652,4.024c3.5,3.765,5.842,0,8.568-1.039.779-.389,1.168-1.168.26-2.077-2.856-2.6-4.673.649-6.88,1.428C505.362,304.706,504.843,305.485,504.064,306.134ZM129.3,30.413c-3.894,4.284,2.986,9.476-2.077,13.241C135.138,40.279,129.686,35.216,129.3,30.413ZM196.28,40.668c1.038-7.659-.26-11.683-4.154-14.02C195.371,30.153,192.645,35.476,196.28,40.668ZM136.566,267.579c2.077.389,3.894.909,5.712,1.3a2.877,2.877,0,0,0,3.635-1.947c.26-.779,1.038-1.688.13-2.207a3.116,3.116,0,0,0-3.635.13C140.85,266.022,138.383,264.594,136.566,267.579ZM122.027,132.315c3.894-3.245,7.14-6.75,4.414-12.592C124.234,123.878,125.013,128.81,122.027,132.315Z" transform="translate(0.448 0.124)" fill="#fff8f0"/><path d="M407.31,237.572c2.986-2.337,5.971-4.8,9.087-6.88,2.077-1.428,4.543-1.947,6.491,0,2.467,2.6-.779,3.375-1.817,4.933-.519.779-.26,1.947-.389,2.986a10.266,10.266,0,0,1-1.038,1.428c-7.27-2.986-12.2,2.077-17.784,4.8-4.933,2.466-9.866,5.063-15.058,7.27,3.375-4.024,8.438-5.452,12.722-8.308C402.248,241.856,405.623,240.948,407.31,237.572Z" transform="translate(115.895 68.555)" fill="#fff8f0"/><path d="M473.582,221.607c2.466-.909,5.063-.26,7.529,0,.909,6.1-5.842,4.543-7.789,7.919,1.168,2.207,3.765,2.6,5.712,4.024-.519.389-1.038.779-1.168.649-5.193-4.284-9.346-1.947-13.76,1.688-5.063,4.154-10.645,7.659-17.005,12.073,1.3-3.765,4.673-4.414,4.933-7.27l-.13.13c4.673-1.039,8.438-3.375,10.515-7.919.909-2.466,3.245-2.856,5.322-3.894C471.894,228.488,476.827,228.228,473.582,221.607Z" transform="translate(133.872 66.087)" fill="#fff8f0"/><path d="M481.714,219.116c8.827-2.6,15.058-9.606,22.587-14.279,1.688-1.038,2.856-3.5,6.1-1.688-11.294,7.529-21.03,16.486-33.1,22.2C477.56,222.491,481.584,222.232,481.714,219.116Z" transform="translate(142.875 60.53)" fill="#fff8f0"/><path d="M288.874,254.2c.649,1.039,1.3,2.077,1.817,2.986-5.712,1.558-11.553,2.726-16.356,6.231-1.947-1.817,1.688-2.6.13-4.024C280.177,259.912,283.552,254.2,288.874,254.2Z" transform="translate(82.191 75.943)" fill="#fff8f0"/><path d="M251.911,187.915c-2.077-.13-4.024-.13-6.1-.26-1.428-.13-2.856-.13-4.414-.26-4.673-5.582-10.515-.389-15.577-1.558-.13-.26-.389-.649-.519-.909,4.414-2.466,7.01-6.62,10-10.515l.779-2.337c5.712,4.024,11.164,0,16.876-.389-2.207-3.765-5.063-.389-7.4-.909v-6.491c9.346,1.947,18.693,3.894,28.039,5.712,1.688.389,3.375.26,6.62.649-4.8-4.024-10.515-5.712-10.385-12.462,4.154,1.428,3.894,6.1,7.659,7.659-1.038-2.986-2.077-5.582-3.5-9.346,5.582,3.894,6.75,8.827,7.659,13.241,1.038,5.063-3.5,3.894-6.231,3.635-12.851-1.428-25.054,2.077-37.775,4.673,1.947,2.726,3.5.779,4.673.26,3.115-1.3,5.192-1.947,6.491,2.6,1.168,4.024,5.452-.26,7.529,2.207C254.118,183.371,253.859,186.357,251.911,187.915Z" transform="translate(67.749 46.817)" fill="#fff8f0"/><path d="M260.25,116.984c3.5,3.245,3.765,8.827,8.438,11.553,1.947,1.168.389,3.635-.519,4.414-1.817,1.558-2.077-.519-2.856-1.817-2.986-4.933-5.712-.519-8.568.389-1.038-1.039-1.947-2.077-2.986-2.986-.13-1.817-.26-3.5-2.6-3.765-3.5-.26-6.88-.13-8.438-4.414-.519-1.3-2.986-.779-4.673-.13-1.688.779-3.245,2.207-5.452,1.039,0-2.986,3.765-2.207,4.414-4.543l-.13.13c4.414-.649,8.7-4.024,13.111-.13.389.389,1.558-.13,2.466-.26C254.928,115.686,257.784,113.609,260.25,116.984Z" transform="translate(69.925 34.408)" fill="#fff8f0"/><path d="M174.092,57.988c-2.207,2.207-4.284,1.817-3.635-1.3,1.428-5.842-.909-11.164-1.558-16.746A27.724,27.724,0,0,1,171.366,29.3c1.428,2.986,5.582,6.361,3.765,8.957C170.458,45.007,174.871,51.5,174.092,57.988Z" transform="translate(50.935 8.896)" fill="#fff8f0"/><path d="M281.92,108.522a23.14,23.14,0,0,1,2.726,3.5,3.958,3.958,0,0,1,0,2.986c-.649,1.168-2.207.519-2.856,0-2.726-2.337-5.971-1.168-8.957-1.3A17.316,17.316,0,0,1,267.9,103.2c.389.13.909.13,1.3.26l-.13-.13a3.238,3.238,0,0,0,2.6,3.375c2.986,3.245,7.14.519,10.515,1.947Z" transform="translate(80.449 30.927)" fill="#fff8f0"/><path d="M191.253,65.522c-.779,3.765.13,6.62,3.894,8.178.909.389,2.337.389,2.077,1.817-.389,1.947-2.077,1.817-3.5,1.947-.779-.909-1.558-1.947-2.337-2.856L188.4,71.623c-2.077-1.428-2.856-3.635-3.765-5.712-.389-1.688-2.726-2.856-1.558-5.712C185.93,62.147,188.656,63.835,191.253,65.522Z" transform="translate(55.064 18.108)" fill="#fff8f0"/><path d="M335.85,138.259c-1.038-3.635,1.817-5.452,4.154-6.231,5.582-1.947,7.789-8.048,13.5-9.736,1.039-.389,1.558-1.947,1.558-3.375,1.039-.649,2.207-1.3,3.245-1.817,2.207,2.856,1.168,4.543-1.688,6.62C349.87,128.783,341.952,132.288,335.85,138.259Z" transform="translate(100.64 35.071)" fill="#fff8f0"/><path d="M374.174,122.831c-.779,3.635-5.452,5.063-5.322,9.606,0,1.817-6.88.779-12.851-2.726,3.5-2.986,8.568,1.038,11.683-2.726C369.76,125.427,369.76,120.624,374.174,122.831Z" transform="translate(106.713 36.609)" fill="#fff8f0"/><path d="M156.021,201.8c-.519-2.207-2.726-2.6-4.284-3.375-3.635-1.947.649-3.115.519-4.933-.13-2.6,1.947-1.688,3.115-.779a14.387,14.387,0,0,0,9.866,3.245c-.26,3.115,3.765.519,4.024,3.115-.909.519-1.688.909-2.6,1.428C163.03,200.631,158.747,195.568,156.021,201.8Z" transform="translate(45.381 57.336)" fill="#fff8f0"/><path d="M257.727,216.33c2.986-2.337,5.712,0,7.659,1.168,1.817,1.168-1.3,2.337-1.817,3.635-1.039,2.077,1.3,2.6,2.337,3.765-1.688-.26-3.245-.389-4.933-.649l.13.13c-1.428-3.635-4.543-2.207-7.01-2.207-3.765,0-1.558-1.688-.909-2.986C254.611,218.407,256.169,217.368,257.727,216.33Z" transform="translate(75.693 64.355)" fill="#fff8f0"/><path d="M251.4,191.417c-.909-3.115-1.817-6.1-2.6-9.217,4.414,0,4.154,6.75,8.957,6.231.389,2.077,3.5,3.115,2.466,5.842-2.986-1.038-5.971-1.947-9.087-2.986Z" transform="translate(74.754 54.478)" fill="#fff8f0"/><path d="M197.9,80.377c0-2.6,0-5.971,3.765-3.245,2.077,1.428,3.894.779,6.1.909-.13,2.986-4.154,3.245-3.894,6.1C201.145,84.142,199.847,81.675,197.9,80.377Z" transform="translate(59.58 22.854)" fill="#fff8f0"/><path d="M300.907,91.1c4.154-1.168,8.178-2.337,12.332-3.5-2.207,2.986-5.712,3.894-7.659,6.75C303.893,93.571,300.518,95.129,300.907,91.1Z" transform="translate(90.279 26.276)" fill="#fff8f0"/><path d="M224.947,6.5c6.361-3.115,4.933,2.986,6.491,5.452a5.083,5.083,0,0,1-1.3,1.038c-1.817,1.038-2.077-2.986-5.192-1.168C223.13,12.99,225.856,8.446,224.947,6.5Z" transform="translate(67.453 1.84)" fill="#fff8f0"/><path d="M69.9,124c3.5.519,4.673-5.192,10.125-2.986-5.063.779-3.635,8.7-10.125,6.231Z" transform="translate(21.421 36.086)" fill="#fff8f0"/><path d="M128.9,181.575c2.726-.909,4.933-1.428,5.452-5.582.779-6.1,3.115.649,5.452-.13-2.466-2.986-1.817-6.75-3.245-10-.519-1.3-1.038-3.245,1.038-3.765,2.466-.649,2.337.909,2.077,2.726-.13.779.26,2.207.649,2.337,3.765.779,8.957.519,3.635,6.491.519.13,1.168.519,1.558.389,1.038-.26,3.245.649,2.6-1.558-1.3-4.673,3.375-7.789,1.947-12.2,1.168,0,1.558-.13,1.817.13,1.817,1.168,2.986,4.933,5.452,2.856,1.817-1.558.909-4.673-1.168-6.88-1.168-1.3-2.337-3.115-1.3-4.673,2.207-3.245,2.077.909,3.115,1.168,1.168.389,1.817-.779,2.466-1.558,2.986-3.245,5.582-6.88,9.866-8.7.13-.13.519-.13.649-.13.389-3.115,1.428-5.192,5.063-4.154.389.13,1.038,1.3.909,1.428-1.947,2.207-2.207,6.231-6.231,6.62a2.829,2.829,0,0,0-.13.779c1.817,1.688,4.024-2.077,6.1.779-3.115,2.726-7.659,5.712-3.5,11.034-4.673.649-4.8-2.986-5.712-5.971-.26-.909-1.168-4.284-1.688-2.337-.909,3.245-4.933,4.024-4.543,7.4a14.182,14.182,0,0,0,.649,2.207c3.5-2.077,8.048,2.986,11.164-1.428,4.284.13,10.255-3.245,10.385,5.192-3.245-1.558-6.361-3.765-10.515-2.207-6.231,2.337-12.073,6.491-19.472,4.673-2.337-.519-1.947,1.817-2.337,2.986-.519,1.428-.519,2.986,1.038,4.024,1.817,1.168,1.947-.649,2.986-1.3,7.4-4.933,15.577-5.322,24.015-3.245a13.264,13.264,0,0,1-8.178,3.245c-5.582.519-6.62,5.192-8.568,9.087-.909,1.817-.779,3.375,1.558,2.6,8.308-2.856,13.89-4.024,15.188-14.928,1.428-1.688,2.856-3.245,4.154-4.933,2.337-4.673,5.842-8.438,9.346-12.332,2.726-2.986,5.842-5.842,6.62-10,.909-4.933,5.582-4.284,9.736-5.322-3.765,4.673-7.789,9.217-11.294,14.02-1.558,2.077-5.712,3.245-3.245,7.269.519.779-.779,1.947-1.428,1.688-4.543-1.428-4.933,2.856-7.269,4.673,1.558,2.207,3.765-2.337,4.8.649.909,2.6-1.947,2.337-2.986,3.375-2.726,2.6-7.919,2.856-7.659,8.438,1.688,2.207,3.115-1.558,4.933-.389-.779,3.245-3.765,3.245-5.971,4.024-4.8,1.817-7.4,5.712-9.866,9.736-.649,1.168.779,4.284-2.207,3.115-2.6-.909-1.3-3.245-.519-4.933a7.925,7.925,0,0,0,1.168-2.6c-1.558,1.947-6.491-1.038-5.712,4.673.26,2.337-2.6.779-3.5-.389-2.337-2.986-3.894-2.077-4.8.779a2.865,2.865,0,0,1-2.6,2.207c-1.428.26-3.635.389-2.466,2.6.779,1.688,2.6.779,4.024.13s2.726-2.6,4.543-1.038a2.63,2.63,0,0,1,.389,2.337c-4.154,2.986,1.168,7.659-2.077,10.774-3.245,2.986-7.529,4.024-11.164,6.231-1.3.779-3.375.389-2.986-.649,1.688-3.894-8.827-2.856-2.856-8.308,2.207-2.077,6.231-3.375,5.971-8.308-2.077,1.038-4.024,1.558-5.582,2.726s-2.856,3.115-4.933,1.688a3.653,3.653,0,0,1-1.3-3.375,5.414,5.414,0,0,1,4.154-4.284,13.559,13.559,0,0,1,3.245,0c-.519-3.5-4.284-4.673-4.8-7.789-.779-4.8-3.115-.909-4.673-.909l.13.13a29.694,29.694,0,0,0-1.3-2.986Z" transform="translate(39.01 40.824)" fill="#fff8f0"/><path d="M239.583,182.923a51.6,51.6,0,0,0-19.731,8.048c-1.688-.389-3.765,1.947-5.322-1.428,4.8-1.3,8.7-3.375,9.736-8.957.519-2.856,4.8-2.077,6.88-4.673-4.933-.779-4.154-6.231-7.789-8.438,1.817-2.6,3.894,2.466,5.452-.779,1.168-2.466-2.6-1.038-1.947-3.245,3.894-.649,8.568,1.688,12.073-2.466,1.817-2.207,1.558-5.582,4.673-6.75-2.466-1.428-3.894-4.8-7.529-3.635-.649,2.6,6.1,4.414.779,7.789-.649.389-.13,2.986-1.947,2.337-.909-.26-1.947-2.207-1.817-3.115.909-5.971-2.856-8.308-7.27-10.515-3.635-1.947-6.88-2.6-9.476,1.428-.909,1.3-2.077,2.726-3.635,1.817-2.466-1.3.26-2.207.389-3.245.389-1.947-2.466-2.986-1.947-5.582,1.688.909,3.375,1.688,5.192,2.6.389-4.933-2.856-8.178-4.543-11.813-.779-1.688-1.688-3.635.389-4.543,2.337-1.039,1.558,1.688,2.337,2.6,2.856,2.986,3.245,7.14,5.192,10.645,4.543-1.688,4.414-6.62,7.01-9.866,1.688,2.337.519,4.024-.13,5.971-.779,2.207-4.414,5.582-2.337,6.361,3.635,1.3,5.452,6.1,11.423,4.024,4.933-1.688,11.164-3.635,17.135-1.039,1.039.389,4.414,1.428,4.414-1.817,0-2.6-1.817-2.6-3.5-.909-1.558-1.817-5.192-2.856-4.024-5.971,1.168-2.986,3.765.389,5.712-.519,1.428,3.115,6.361,2.856,6.62,7.14.13,2.986,2.986,1.817,4.414,2.6,3.894,1.947,6.75,4.154,2.207,8.568-2.077-7.14-8.438-7.789-15.188-1.428-1.039,1.038-1.688,2.207-3.5,2.207-1.3,0-4.024-1.688-3.765,1.558.13,2.077-1.038,4.543.779,6.231,2.207,1.947,3.115-.909,4.543-1.558,2.077-.779,4.543-.519,7.269,0-5.322,1.688-8.308,5.712-10.645,10.255-.649.389-1.947,1.038-1.947,1.3.779,4.154-.649,5.842-4.933,5.192-.26,0-.779.909-1.168,1.428A7.7,7.7,0,0,1,239.583,182.923Z" transform="translate(63.461 38.177)" fill="#fff8f0"/><path d="M81.089,147.317a65.587,65.587,0,0,0-10.125,15.577c-3.245,6.88-3.765,14.409-6.62,22.2-1.688-5.712.26-10.385.909-16.1-3.635,4.543-4.154,11.034-9.866,12.073a8.377,8.377,0,0,0-5.582,3.115c-1.558,1.817-3.635,3.245-3.115,5.971.779,3.375,4.024,1.688,5.971,2.337,2.856.909,1.947-2.726,3.245-3.894a23.21,23.21,0,0,0,1.688-1.817c1.947,1.558.519,2.856.13,4.024-.389,1.3-1.3,2.6.389,3.245.779.389,2.856.13,2.986-.389,1.558-4.543,5.712-1.817,8.957-3.5-1.817,3.635-5.063,4.543-8.308,7.27,5.192-1.558,2.207,7.14,8.048,4.673.26-.13.649,1.817.13,2.856-.909,1.558-2.207,2.077-3.765,1.168a6.124,6.124,0,0,1-2.726-4.154c-.26-1.168-1.428-2.6-1.558-2.337-2.726,4.024-5.192-.649-5.712-.519-4.933,1.817-5.971-3.765-9.476-4.673-3.115-.779-3.635-5.063-2.337-6.88,3.765-5.582,3.245-11.294,1.947-17.265a2.186,2.186,0,0,1,.649-1.558c4.8.649,5.971-5.582,10.9-5.063-4.933-5.322-4.933-5.322-11.294,2.726,1.038-4.024-2.6-6.231-1.168-9.606l-.13.13c2.726-1.168,6.75.519,8.048-3.765a4,4,0,0,1,2.986.13c5.322,3.375,9.606,2.077,13.63-2.207,2.6-2.856,7.919-1.428,10-5.582.389.649.779,1.3,1.168,1.817Zm-24.664,29.6c2.856-6.1,12.073-10,6.1-18.953C59.281,164.063,56.3,170.034,56.425,176.914Zm-6.75,2.986c4.8-3.115,4.024-7.919,5.452-11.813C51.752,171.073,48.636,174.188,49.675,179.9Z" transform="translate(13.607 43.537)" fill="#fff8f0"/><path d="M56.813,218.143c.779-3.894,3.245-1.168,5.063-1.3,4.673-.389,10,1.817,12.722-4.543a5.357,5.357,0,0,0-.389-5.712c-1.3-2.207-.649-5.063-.13-7.919,2.986,1.688,1.558,5.063,2.986,7.269,6.1-3.894,6.1-3.894-1.039-13.241a39.481,39.481,0,0,0,13.5.26c-4.024-6.361-7.01-7.14-15.967-4.543-1.3.389-2.726,2.466-3.635.26-.909-2.337,1.3-2.856,2.986-3.115,6.491-1.038,13.241-3.115,18.3,3.635,2.466,3.245,6.1,2.6,9.476,2.726,1.817.13,3.5.519,4.024,2.466.389,1.428-.649,2.466-1.817,3.115-2.726,1.3-1.688-1.168-2.466-2.077-1.428-1.817-4.543-1.3-6.62-.26-4.933,2.466-7.789,7.14-10.774,11.423-2.207,3.115-2.6,7.14-4.8,10.385-2.466,3.635-4.154,4.8-9.476,4.414-4.673-.389-8.048-2.337-11.943-3.635C56.683,218.013,56.813,218.143,56.813,218.143Z" transform="translate(17.502 55.142)" fill="#fff8f0"/><path d="M118.5,120.1c9.866-8.178,20.251-12.073,31.285-15.837-2.856-1.947-6.361.389-8.7-2.6,10.645-1.168,21.549.519,32.064-2.466-4.8,3.115-9.346,5.322-15.577,5.712-11.683.779-22.328,6.75-32.453,12.722C123.433,118.542,122.135,119.97,118.5,120.1Z" transform="translate(35.909 29.734)" fill="#fff8f0"/><path d="M93.559,118.606c10-2.726,18.563-9.606,29.6-9.606-6.88,2.986-13.76,6.231-20.77,9.087-1.817.779-3.894.519-3.5,3.375.13,1.3-1.038,1.947-2.077,2.077-4.8.26-9.087,1.428-12.073,5.582a1.758,1.758,0,0,1-2.856,0c-1.038-1.428.649-1.688,1.168-2.337a36.789,36.789,0,0,1,3.116-3.245C88.756,121.851,91.093,120.294,93.559,118.606Z" transform="translate(24.892 32.656)" fill="#fff8f0"/><path d="M214.61,105.773c-3.894,1.688-6.62-2.207-8.568,1.817l7.269,3.635c-4.543.389-7.919,1.428-9.087,6.1-2.207-2.207-2.337-4.154-1.3-5.192,3.115-3.5-1.688-3.375-2.077-5.192-5.971,1.168-8.438-5.192-13.371-6.231a1.821,1.821,0,0,1-1.558-2.337,1.69,1.69,0,0,1,2.6-.909c2.856,1.817,7.14,0,9.217,4.414.779,1.558,4.8,3.245,7.01,1.558C209.158,100.191,210.715,104.475,214.61,105.773Z" transform="translate(55.981 29.132)" fill="#fff8f0"/><path d="M118.467,182c.389.389,1.3,1.038,1.168,1.3-1.947,5.582-1.428,11.943-4.154,17.395l.13-.13c-4.414,2.6-4.414,2.6-4.543-2.337-4.024,1.038-8.048,2.337-12.2,3.245-1.428.26-3.894.13-3.765-2.207.13-1.817,2.207-2.6,3.894-2.466,1.558.13,2.986.779,4.8.649,8.438-.909,11.943-5.971,12.981-13.63A21.554,21.554,0,0,1,118.467,182Z" transform="translate(28.932 54.419)" fill="#fff8f0"/><path d="M112.6,105.8c10.9-10.385,24.794-13.76,38.944-16.1A225.849,225.849,0,0,0,112.6,105.8Z" transform="translate(34.15 26.902)" fill="#fff8f0"/><path d="M249.973,125.421c1.039,1.038,1.947,2.077,2.986,2.986,9.087,1.428,11.034,11.164,18.044,15.188a7.565,7.565,0,0,1-8.438-4.673c-2.986-6.88-9.217-7.529-14.8-9.217-1.947-.649-2.337-1.168-2.337-2.856l-.13.26C246.6,125.94,248.026,125.032,249.973,125.421Z" transform="translate(73.711 37.524)" fill="#fff8f0"/><path d="M165.4,129.249c-2.856,2.6-3.765,5.582-5.063,8.438,1.038,1.688,3.894-1.947,3.894,1.168,0,1.947-2.6,2.726-4.154,3.375a1.993,1.993,0,0,1-2.986-2.077c.26-2.856-.519-3.894-3.635-4.414-2.986-.519-.909-3.245-.26-4.673.909-1.817,1.947-.909,2.466.649,1.038,2.856,2.466.519,3.245,0C160.73,130.547,161.768,128.34,165.4,129.249Z" transform="translate(45.864 38.629)" fill="#fff8f0"/><path d="M107.375,221.2c-8.438,4.284-16.486,2.466-24.4.779-.519-.13-1.168-.779-1.168-1.168-.13-1.558,1.168-1.688,2.207-1.688a104.305,104.305,0,0,1,11.034.13C98.937,219.639,102.832,220.547,107.375,221.2Z" transform="translate(24.966 65.459)" fill="#fff8f0"/><path d="M166.981,135.828c1.688.13,2.337-1.947,4.154-2.856a7.8,7.8,0,0,1,.26,2.077c-1.428,2.337-3.635,4.024-6.361,3.375-3.115-.779-1.817-3.894-2.077-6.1-.26-1.947-.389-3.765-.779-5.712-.26-1.3-.909-2.726.779-3.245,1.428-.389,4.154-.519,4.024.519-.26,4.673,3.635,2.337,6.1,4.024C169.188,129.337,161.789,127.909,166.981,135.828Z" transform="translate(48.829 36.853)" fill="#fff8f0"/><path d="M128.71,118.7c-3.765,5.322-10.645,6.88-13.76,12.851.779,1.428,2.986-1.947,3.5.649.389,1.817-1.688,1.558-2.726,2.077-2.077.909-4.024,2.077-7.529,1.817C112.873,126.878,121.311,123.373,128.71,118.7Z" transform="translate(32.839 35.548)" fill="#fff8f0"/><path d="M72.613,150.2c9.087-4.673,18.174-9.346,27.39-13.89.26-.13.779.13,2.077.519-6.361,5.712-13.5,8.7-20.77,11.553-2.726.909-5.322,4.414-8.7,1.817Z" transform="translate(22.212 40.787)" fill="#fff8f0"/><path d="M93.019,131.287c-2.466.26-4.933.519-7.919.779.909-3.635,2.856-5.582,4.8-7.919,2.337-2.726,6.1,2.077,7.919-1.947.909,1.038,1.558,2.6.519,3.5-1.168,1.038-3.375,1.038-4.414,2.077-1.3,1.428,3.115.13,1.558,2.207-.519.779-2.207,0-2.6,1.3Z" transform="translate(25.952 36.591)" fill="#fff8f0"/><path d="M76.223,169.777c-.389-1.558-1.428-3.5,1.168-4.154a12.016,12.016,0,0,0,8.438-7.14c.649-1.428,2.466-4.284,2.726.779.13,1.817,3.5-3.635,6.361-.779-5.192,5.452-12.332,7.919-18.823,11.294Z" transform="translate(23.146 46.781)" fill="#fff8f0"/><path d="M183.5,96.885c-5.322,3.115-10.645,1.558-15.318,2.466-1.039.13-5.192.26-4.673-2.726.389-2.466,5.322-3.375,5.582-3.115C172.987,97.534,178.439,94.418,183.5,96.885Z" transform="translate(49.314 28.025)" fill="#fff8f0"/><path d="M169.445,193.819c-1.947,1.558-2.856,4.543-5.971,4.673-.649-4.933-1.038-9.866-6.231-12.592-1.038-.519-1.558-1.817-.389-2.6,1.428-.909,2.986-.389,4.024,1.038A45.7,45.7,0,0,0,169.445,193.819Z" transform="translate(47.144 54.673)" fill="#fff8f0"/><path d="M56.126,210.248c-2.856-.779-5.582-1.428-8.438-2.337-1.038-.26-5.322-12.981-4.673-13.76a4.244,4.244,0,0,1,1.947-1.428c1.038-.389,1.428.389,1.688,1.3.649,1.817,1.558,3.5,2.207,5.322C51.193,205.835,51.193,205.835,56.126,210.248Z" transform="translate(13.386 57.585)" fill="#fff8f0"/><path d="M77.853,170.625c-1.428,2.6-2.856,1.688-4.414.13-4.024-3.765-4.933-11.683-1.688-17.654,2.207,6.1-.519,13.63,6.231,17.654Z" transform="translate(21.386 45.803)" fill="#fff8f0"/><path d="M94.494,117.067c-2.466,1.688-4.933,3.245-7.269,4.933-.26,0-.389.13-.649.13-3.115.26-6.1,5.842-7.789,3.245-1.947-2.856,4.154-3.5,5.842-6.491,1.3-2.207,4.673-3.245,7.4-4.414C94.1,113.562,95.143,114.73,94.494,117.067Z" transform="translate(23.957 34.195)" fill="#fff8f0"/><path d="M110.138,144.176a5.382,5.382,0,0,1-2.856,5.063c-2.856,1.688-5.322-.26-7.659-1.558a1.743,1.743,0,0,1-.519-2.726c2.207-1.817,3.635-4.8,6.75-5.452.519-.13,1.428.909,1.817,1.688.649,1.3-.26,1.947-1.428,2.077-2.077.13-4.414.909-3.245,3.115.909,1.688,2.986-.13,4.414-.909C108.061,145.084,108.84,144.825,110.138,144.176Z" transform="translate(29.992 41.746)" fill="#fff8f0"/><path d="M114.992,184.541c-.519.519-1.038,1.168-1.558,1.688-1.038.779-2.077,1.558-3.115,2.207-1.168.649-2.726,1.3-3.375-.13-.779-1.558,1.038-1.817,2.077-2.466A72.235,72.235,0,0,0,121.482,174.8c.909-1.038,2.077-1.947,3.245-.779,1.428,1.428-.389,2.337-1.168,2.986C120.444,179.348,116.809,181.036,114.992,184.541Z" transform="translate(32.408 51.878)" fill="#fff8f0"/><path d="M149.837,145.839c-4.414-1.947-7.659-3.5-10-6.491-.909-1.039-1.558-2.466-.519-3.5,1.428-1.428,2.077-.13,2.726,1.168,1.428,2.726,4.024-4.414,5.193.649A70.842,70.842,0,0,0,149.837,145.839Z" transform="translate(41.958 40.472)" fill="#fff8f0"/><path d="M131.193,173.4c-.26,1.168-1.947,2.726-.649,3.5,5.842,3.635-2.207,5.712-.909,8.957.13.519-1.947,0-2.726-1.168-2.856-4.024-1.038-8.568,4.284-11.294Z" transform="translate(38.015 51.855)" fill="#fff8f0"/><path d="M202.767,157.825a27.791,27.791,0,0,0-2.466,1.688c-.519-.909-1.428-1.817-1.3-2.726.13-2.207,11.813-10.645,14.15-10.385.519,0,.909.649,2.207,1.558-7.14.519-9.346,5.971-12.722,10.125A.454.454,0,0,1,202.767,157.825Z" transform="translate(59.905 43.804)" fill="#fff8f0"/><path d="M114.8,199.689c-.26-3.635,4.933-4.284,2.466-7.659,3.245.649,6.1-.779,9.087-1.428.519-.13.909,1.428-.26,2.466A45.42,45.42,0,0,1,114.8,199.689Z" transform="translate(34.804 56.981)" fill="#fff8f0"/><path d="M233.4,131.01c6.231-.909,11.683-2.986,18.823,1.039C245.083,130.88,239.631,137.89,233.4,131.01Z" transform="translate(70.163 38.815)" fill="#fff8f0"/><path d="M131.147,173.952c-2.6,1.168-4.154-1.039-5.322-2.466-1.428-1.688-5.452-3.5-3.5-5.712,2.077-2.337,2.337,3.5,5.063,2.856.13-.389.389-.649.519-1.038.779-1.947-2.6-3.894-.13-5.842a1.292,1.292,0,0,1,1.168-.13c1.168,2.077,2.856,4.414,1.558,6.491-1.428,2.466,1.168,4.024.519,5.971Z" transform="translate(36.892 48.317)" fill="#fff8f0"/><path d="M208.1,178.746c5.063-5.582,5.582-11.034,6.62-16.746C218.485,168.1,216.019,175.89,208.1,178.746Z" transform="translate(62.621 48.456)" fill="#fff8f0"/><path d="M175.888,102.215c-2.466.779-4.284,1.3-5.971,1.817-1.3.389-3.375,0-1.688,2.337-1.3.649-2.466,1.817-4.024,1.3a2.207,2.207,0,0,1-1.3-2.6c0-1.428,0-3.115,1.947-3.635A16.574,16.574,0,0,1,175.888,102.215Z" transform="translate(49.139 30.224)" fill="#fff8f0"/><path d="M227.662,118.018c-1.688,2.337-4.024,1.428-5.971,1.817-1.428.26-3.245,0-2.077,2.6.649,1.428,1.688,3.635-.909,3.894-2.077.13-1.3-2.207-1.428-3.5,0-1.558-1.3-2.077-2.077-3.115C219.094,117.369,222.989,116.07,227.662,118.018Z" transform="translate(64.738 35.062)" fill="#fff8f0"/><path d="M138.553,101.2c-6.1,2.337-12.722,1.688-18.953,3.635C124.922,98.6,132.322,103.017,138.553,101.2Z" transform="translate(36.237 30.33)" fill="#fff8f0"/><path d="M91.543,129.886c2.207,2.856,4.414,1.168,6.75.26,2.856-1.038,5.842-1.947,9.866-3.245-4.543,5.971-10.255,6.491-15.577,7.01-4.8.389-2.726-2.207-1.039-4.154C91.673,129.886,91.543,129.886,91.543,129.886Z" transform="translate(27.298 37.992)" fill="#fff8f0"/><path d="M169.875,92.806c-5.322,1.688-9.087,2.986-12.722,4.024a1.465,1.465,0,0,1-1.947-1.039c-.13-.519.26-1.558.519-1.558C159.62,93.326,163.384,90.47,169.875,92.806Z" transform="translate(46.844 27.56)" fill="#fff8f0"/><path d="M119.009,149.012c-1.168,2.986-4.284,7.14-5.971,5.712-3.894-2.986-.909-7.269.909-11.423,2.6,2.6,0,4.8,1.168,7.14C116.543,151.219,116.673,147.714,119.009,149.012Z" transform="translate(33.713 42.881)" fill="#fff8f0"/><path d="M39.878,181.976c-2.337-.779-2.207-2.6-1.947-4.284.26-1.558.389-3.894,2.6-3.375,1.428.389,4.024,1.039,3.245,3.894C43.254,180.418,41.7,181.327,39.878,181.976Z" transform="translate(11.849 52.106)" fill="#fff8f0"/><path d="M267.91,201.124c0-3.5-2.6-8.308,4.284-7.919a2.716,2.716,0,0,1,1.817.389c.649.779,0,2.337-.26,2.077-5.971-2.6,2.466,10.9-5.971,5.193A.454.454,0,0,0,267.91,201.124Z" transform="translate(80.308 57.752)" fill="#fff8f0"/><path d="M180.013,163.4c-4.414.13,5.971,6.231-.909,6.62-2.986.13-4.933-2.986-4.8-4.154C174.691,162.491,179.364,165.088,180.013,163.4Z" transform="translate(52.543 48.874)" fill="#fff8f0"/><path d="M160.2,125.706c.649,2.856.909,4.8-1.3,4.673-3.245-.13-3.765-3.245-4.284-5.582-.389-1.3.519-4.024,1.688-3.375C158.256,122.591,159.424,124.928,160.2,125.706Z" transform="translate(46.65 36.33)" fill="#fff8f0"/><path d="M247.317,127.595l.13-.26c-3.5.649-6.88.649-9.346-2.726C241.345,125,246.019,120.845,247.317,127.595Z" transform="translate(71.564 37.038)" fill="#fff8f0"/><path d="M239.882,139.336c-3.765-1.168-6.1,2.986-8.957-.389-.779-.909-1.688-2.726-.13-3.245C233.911,134.662,236.9,135.311,239.882,139.336Z" transform="translate(69.133 40.485)" fill="#fff8f0"/><path d="M119,120.616c-3.5,2.337-5.712,4.024-8.178,5.192-1.428.779-2.986,3.765-4.673,1.168-1.038-1.817,1.688-2.726,3.115-3.245C111.994,122.563,114.2,120.1,119,120.616Z" transform="translate(32.16 36.098)" fill="#fff8f0"/><path d="M117.929,171.336c-2.207-.779-2.466-2.856-2.6-4.543-.13-2.207-4.024-4.933-1.428-5.842,3.635-1.3,3.115,3.375,4.284,5.582C118.708,167.831,119.486,169.779,117.929,171.336Z" transform="translate(34.274 48.077)" fill="#fff8f0"/><path d="M145.911,136.047c-2.856-1.168-5.712-2.337-8.568-3.635-.909-.389-2.077-.909-1.168-2.337a1.564,1.564,0,0,1,2.207-.519c2.856,1.558,5.582,3.375,8.438,5.063A8.73,8.73,0,0,0,145.911,136.047Z" transform="translate(41.081 38.71)" fill="#fff8f0"/><path d="M122.47,129.5c.909,4.933-1.817,7.789-.779,10.9.389,1.039,1.558,2.6-.519,2.856-2.077.389-2.337-1.428-2.466-2.986C118.446,137.029,120.393,134.173,122.47,129.5Z" transform="translate(35.964 38.767)" fill="#fff8f0"/><path d="M195.8,182.877V180.8c1.168.649,2.207,1.428,3.375,2.077Z" transform="translate(58.954 54.061)" fill="#fff8f0"/><path d="M359.2,155.1c.779-4.933,3.115-8.178,7.269-10.255,2.207-1.168,4.154-.649,4.933,1.168,1.039,2.207-1.038,2.337-2.726,2.986C365.3,150.166,363.484,153.93,359.2,155.1Z" transform="translate(107.667 43.155)" fill="#fff8f0"/><path d="M382.6,146.64c6.491-2.6,11.553-2.6,16.486.26C394.023,145.472,388.831,150.534,382.6,146.64Z" transform="translate(114.643 43.306)" fill="#fff8f0"/><path d="M381.856,172.735c-4.543,0-4.673-4.933-7.4-6.88-.909-.649.909-2.077,1.817-2.856,1.428-1.038,2.726,0,3.245,1.038C380.818,166.634,382.895,169.23,381.856,172.735Z" transform="translate(112.141 48.626)" fill="#fff8f0"/><path d="M410.828,175.754c-6.361,4.933-10.774,4.154-14.928-1.688C400.833,172.769,404.987,176.273,410.828,175.754Z" transform="translate(118.608 51.967)" fill="#fff8f0"/><path d="M426.089,154.11c4.673-.519,7.529,3.894,11.683,4.8.389.13.909,1.558.779,2.207-.389,1.558-1.428.909-2.466.649-4.414-1.038-6.88-4.933-10.385-7.14Z" transform="translate(127.492 46.091)" fill="#fff8f0"/><path d="M279,75.524c3.5-.909,7.01-1.947,10.645.779-2.466,3.5-5.452,6.88-10,5.971-1.558-.26-1.168-4.414-.389-6.88A.453.453,0,0,0,279,75.524Z" transform="translate(83.631 22.385)" fill="#fff8f0"/><path d="M301.146,81.728c-.26,1.947,3.375,3.245,0,5.842-5.322,4.154-6.231-1.688-9.346-2.856,3.116-2.207,5.712-4.673,9.346-2.986Z" transform="translate(87.574 24.359)" fill="#fff8f0"/><path d="M278.95,133.338c-.779-2.466.649-2.856,2.726-3.115a90.883,90.883,0,0,1,14.669-.909,27.054,27.054,0,0,1-17.395,3.894C278.82,133.208,278.95,133.338,278.95,133.338Z" transform="translate(83.678 38.694)" fill="#fff8f0"/><path d="M291.167,82.6c-1.558-1.039-4.673-.389-4.154-2.207,1.039-3.635,5.322-2.6,8.048-3.635s1.688,1.558,1.688,2.856C296.879,84.284,292.336,80,291.167,82.6Z" transform="translate(86.129 22.972)" fill="#fff8f0"/><path d="M299.463,84.145c-1.428-2.856,1.817-6.491-1.558-9.087-.26-.26,1.688-1.428,2.986-1.558.13,2.077,4.8,2.077,2.726,5.192-1.3,1.947-2.856,3.635-4.284,5.452C299.333,84.015,299.463,84.145,299.463,84.145Z" transform="translate(89.387 22.073)" fill="#fff8f0"/><path d="M305.1,81.35c1.168-3.375,2.207-5.971,5.322-6.75.649,3.245,8.308.909,5.322,7.529C312.889,76.417,309.124,77.975,305.1,81.35Z" transform="translate(91.539 22.4)" fill="#fff8f0"/><path d="M202.685,51.25c-2.337.389-4.154.13-4.284-2.207-.13-3.245,2.207-.519,2.856-1.038,2.077-1.947,2.856-4.543,6.75-4.8s3.765,5.063,7.4,4.024a2.441,2.441,0,0,1-1.558,2.6c-1.428.779-3.115,1.168-4.024-.389-.909-1.688-1.038-4.414-3.765-2.986-4.024,2.207,1.947,1.3,1.168,2.986C206.06,52.029,203.983,50.991,202.685,51.25Z" transform="translate(59.728 13.037)" fill="#fff8f0"/><path d="M194.311,37.035c1.558,0,3.245-.909,3.245,1.688,0,2.986,5.712,3.375,3.5,7.14-1.038,1.817-3.635.909-5.452,1.168-1.558.26-2.726-1.817-1.558-2.337,6.62-2.856-3.375-1.428-.909-3.635.519-.519-4.024-.13-3.115-2.726C190.677,36.257,193.143,37.684,194.311,37.035Z" transform="translate(57.197 11.156)" fill="#fff8f0"/><path d="M200.6,27.24c2.337-1.038,3.765.13,4.933,1.168,2.077,1.947,3.894-.13,5.712,0,.26-3.115,1.947-2.337,3.635-1.3.909.519,2.077,1.038,1.168,2.337-1.039,1.3-1.3,3.894-3.375,3.375C208.519,31.783,203.456,32.173,200.6,27.24Z" transform="translate(60.385 7.97)" fill="#fff8f0"/><path d="M200.6,35.8c3.635.649,6.75.909,9.476,1.947,1.428.519,4.8.389,3.375,3.115-.519,1.038-1.039,3.765-3.375,3.5-3.765-.26-1.558-2.077-1.168-3.894.26-1.038-1.3-1.428-2.466-1.3C204.365,39.3,202.158,39.435,200.6,35.8Z" transform="translate(60.385 10.833)" fill="#fff8f0"/><path d="M212.465,24.087c-.649,5.063-4.543.779-6.62,2.207-.649.389-3.635-1.947-4.8-3.5-.779-1.038,1.168-2.856,2.077-1.817,2.6,3.375,6.75,1.3,9.606,3.245Z" transform="translate(60.463 6.32)" fill="#fff8f0"/><path d="M205.225,59.158c-2.077-2.986-5.452-2.6-8.568-2.856a2.089,2.089,0,0,1-1.558-1.688c0-1.168,1.168-1.817,2.077-2.077,4.284-1.038,6.62,3.115,10.255,4.154.13,0,0,1.168-.26,1.558A6.863,6.863,0,0,1,205.225,59.158Z" transform="translate(58.745 15.774)" fill="#fff8f0"/><path d="M210.824,25.1c.26-3.115-4.024-3.635-4.024-7.4,4.673.26,5.582,5.063,8.568,6.75.13.13.13,1.3-.26,1.558-1.947,1.558-2.986-.519-4.414-1.168A.453.453,0,0,0,210.824,25.1Z" transform="translate(62.233 5.437)" fill="#fff8f0"/><path d="M123.208,21.2c4.154,7.269,3.765,14.409,7.01,20.121C125.675,36,121.261,30.676,123.208,21.2Z" transform="translate(37.172 6.481)" fill="#fff8f0"/><path d="M108.7,56.818c-1.688-4.933-3.765-9.866-1.817-15.318C108.828,46.433,109.866,51.366,108.7,56.818Z" transform="translate(32.211 12.533)" fill="#fff8f0"/><path d="M136.388,56.848c-.519-5.063-1.038-10.255-1.688-15.318.519,0,1.039-.13,1.688-.13,1.558,5.063,3.245,10.125,1.947,15.448A9.76,9.76,0,0,0,136.388,56.848Z" transform="translate(40.739 12.503)" fill="#fff8f0"/><path d="M135.038,35.422c.649,0,1.558-.26,1.947,0,1.688,1.3,4.284-3.245,5.322.649.649,2.337-1.558,4.414-3.115,5.063-2.207.909-3.115-1.688-4.024-3.5a4.731,4.731,0,0,1-.26-1.947C134.779,35.681,135.038,35.422,135.038,35.422Z" transform="translate(40.79 10.433)" fill="#fff8f0"/><path d="M101.813,36.6c2.207-1.168,1.817-7.01,5.063-4.673s-.389,5.712-1.428,8.568c-2.466-.779-1.3-4.024-3.635-3.894Z" transform="translate(30.917 9.515)" fill="#fff8f0"/><path d="M135.293,57.548c-1.558-3.245-6.361-2.986-4.933-7.269.389-1.168,1.688-.779,2.726-.389C136.331,51.188,137.24,53.265,135.293,57.548Z" transform="translate(39.367 14.918)" fill="#fff8f0"/><path d="M189.875,71.3c.779.909,1.558,1.947,2.337,2.856a6.472,6.472,0,0,0,4.414,2.337c1.3.13,2.856.26,2.6,1.947a2.6,2.6,0,0,1-3.375,1.947c-3.5-.779-5.842-3.115-7.659-5.971C187.279,72.988,188.058,71.689,189.875,71.3Z" transform="translate(56.571 21.417)" fill="#fff8f0"/><path d="M251.481,189.2a13.7,13.7,0,0,1,.26,3.245c-.26,2.207,1.039,5.063-1.558,6.491-1.168.649-2.207-.909-1.817-1.817,1.038-2.6-2.856-7.4,3.245-7.659A.453.453,0,0,0,251.481,189.2Z" transform="translate(74.54 56.565)" fill="#fff8f0"/><path d="M163.553,49.387c-1.168,2.6-2.466,5.322-3.635,7.919-.389.779-.519,1.688-1.688,1.428a1.818,1.818,0,0,1-1.168-2.6c1.428-2.986,3.765-5.842-.649-8.438-.26-.13.389-2.856,1.168-3.245,1.817-.909,1.688,1.038,1.947,2.207.519,1.947,4.284-.26,3.765,2.986Z" transform="translate(47.195 13.343)" fill="#fff8f0"/><path d="M194.3,183.728c.649-.519,1.428-.909,2.077-1.428C195.728,182.819,194.949,183.209,194.3,183.728Z" transform="translate(58.507 54.508)" fill="#fff8f0"/><path d="M178.7,203.56c1.3-1.168,2.726-.649,4.154,0C181.556,205.117,180.128,204.079,178.7,203.56Z" transform="translate(53.856 60.639)" fill="#fff8f0"/><path d="M183.128,202.3a6.959,6.959,0,0,1,.649,1.428H181.7A14.812,14.812,0,0,0,183.128,202.3Z" transform="translate(54.75 60.47)" fill="#fff8f0"/></svg>