<svg xmlns="http://www.w3.org/2000/svg" xmlns:xlink="http://www.w3.org/1999/xlink" width="63.747" height="63.747" viewBox="0 0 63.747 63.747"><defs><style>.a{fill:none;}.b{clip-path:url(#a);}.c{fill:rgba(255,255,255,0);}.d{fill:#fff;}</style><clipPath id="a"><rect class="a" width="63.747" height="63.747"/></clipPath></defs><g class="b"><rect class="c" width="63.747" height="63.747"/><path class="d" d="M29.874,59.749a29.732,29.732,0,0,1-16.7-5.1A29.964,29.964,0,0,1,2.348,41.5,29.834,29.834,0,0,1,5.1,13.171,29.964,29.964,0,0,1,18.246,2.348a29.872,29.872,0,0,1,36.4,44.23A29.964,29.964,0,0,1,41.5,57.4,29.685,29.685,0,0,1,29.874,59.749Zm0-57.036A27.031,27.031,0,0,0,14.688,7.351,27.245,27.245,0,0,0,4.847,19.3a27.124,27.124,0,0,0,2.5,25.759A27.239,27.239,0,0,0,19.3,54.9a27.127,27.127,0,0,0,25.759-2.5A27.239,27.239,0,0,0,54.9,40.447a27.127,27.127,0,0,0-2.5-25.759A27.245,27.245,0,0,0,40.447,4.847,26.994,26.994,0,0,0,29.874,2.712ZM28.38,40.339h0a1.494,1.494,0,0,1-1.493-1.5V20.912a1.494,1.494,0,0,1,2.539-1.046l8.962,8.962a1.524,1.524,0,0,1,0,2.121l-8.962,8.962A1.485,1.485,0,0,1,28.38,40.339Z" transform="translate(2 2)"/></g></svg>