<svg xmlns="http://www.w3.org/2000/svg" xmlns:xlink="http://www.w3.org/1999/xlink" width="1906.108" height="563.389" viewBox="0 0 1906.108 563.389">
  <defs>
    <filter id="Trazado_2" x="578.358" y="211.215" width="1151.373" height="185.769" filterUnits="userSpaceOnUse">
      <feOffset dy="3" input="SourceAlpha"/>
      <feGaussianBlur stdDeviation="7.5" result="blur"/>
      <feFlood flood-opacity="0.502"/>
      <feComposite operator="in" in2="blur"/>
      <feComposite in="SourceGraphic"/>
    </filter>
    <filter id="Trazado_3" x="1039.941" y="412.55" width="687.508" height="150.839" filterUnits="userSpaceOnUse">
      <feOffset dy="3" input="SourceAlpha"/>
      <feGaussianBlur stdDeviation="7.5" result="blur-2"/>
      <feFlood flood-opacity="0.502"/>
      <feComposite operator="in" in2="blur-2"/>
      <feComposite in="SourceGraphic"/>
    </filter>
    <filter id="Trazado_4" x="0" y="46.951" width="1895.641" height="179.63" filterUnits="userSpaceOnUse">
      <feOffset dy="3" input="SourceAlpha"/>
      <feGaussianBlur stdDeviation="7.5" result="blur-3"/>
      <feFlood flood-opacity="0.502"/>
      <feComposite operator="in" in2="blur-3"/>
      <feComposite in="SourceGraphic"/>
    </filter>
    <filter id="Trazado_5" x="28.793" y="0" width="1877.315" height="295.427" filterUnits="userSpaceOnUse">
      <feOffset dy="3" input="SourceAlpha"/>
      <feGaussianBlur stdDeviation="7.5" result="blur-4"/>
      <feFlood flood-opacity="0.502"/>
      <feComposite operator="in" in2="blur-4"/>
      <feComposite in="SourceGraphic"/>
    </filter>
    <filter id="Trazado_6" x="8.819" y="10.463" width="1880.082" height="135.945" filterUnits="userSpaceOnUse">
      <feOffset dy="3" input="SourceAlpha"/>
      <feGaussianBlur stdDeviation="7.5" result="blur-5"/>
      <feFlood flood-opacity="0.502"/>
      <feComposite operator="in" in2="blur-5"/>
      <feComposite in="SourceGraphic"/>
    </filter>
    <filter id="Trazado_7" x="79.343" y="97.161" width="1672.47" height="135.936" filterUnits="userSpaceOnUse">
      <feOffset dy="3" input="SourceAlpha"/>
      <feGaussianBlur stdDeviation="7.5" result="blur-6"/>
      <feFlood flood-opacity="0.502"/>
      <feComposite operator="in" in2="blur-6"/>
      <feComposite in="SourceGraphic"/>
    </filter>
  </defs>
  <g id="logo" transform="translate(-885.326 -318.109)">
    <g transform="matrix(1, 0, 0, 1, 885.33, 318.11)" filter="url(#Trazado_2)">
      <path id="Trazado_2-2" data-name="Trazado 2" d="M2074.75,446.984c0-30.3-19.755-53.7-52.744-53.7-33.373,0-53.125,23.4-53.125,53.7,0,30.115,19.752,53.507,53.125,53.507,32.99,0,52.744-23.392,52.744-53.507m-23.4,0c0,18.606-10.736,33.182-29.341,33.182-18.8,0-29.532-14.385-29.532-33.182s10.733-33.373,29.532-33.373c18.606,0,29.341,14.575,29.341,33.373M1939.73,497.807V435.474c0-24.929-14.957-42.188-42.38-42.188-16.494,0-28.2,9.4-33.181,17.642h-.383V395.97h-22.818V497.807h23.2V442.381c0-14.576,10.172-28.569,26.847-28.569,16.878,0,25.513,11.882,25.513,27.613v56.382Zm-136.736,0v-63.1c0-27.04-18.214-41.424-52.352-41.424a185.147,185.147,0,0,0-25.512,1.729l.964,19.37a101.119,101.119,0,0,1,21.673-2.111c23.392,0,31.834,10.545,31.834,22.436v8.634h-.189c-4.8-5.377-14-10.936-30.308-10.936-25.5,0-39.312,14.194-39.312,33.755,0,20.517,14.956,34.328,38.358,34.328,18.607,0,27.612-6.523,31.642-12.082h.383v9.4Zm-46.411-15.149c-15.15,0-23.584-6.141-23.584-16.5,0-10.162,8.052-16.3,22.818-16.3,15.149,0,23.783,6.523,23.783,15.158v1.91c0,8.825-8.252,15.731-23.017,15.731m-98.19,15.149V443.536c0-13.62,9.781-27.231,27.041-27.231a51.894,51.894,0,0,1,10.354,1.146l1.346-23.4a38.333,38.333,0,0,0-8.053-.764,35.689,35.689,0,0,0-30.688,18.033h-.382V395.97h-22.818V497.807Zm-88.407,0V443.536c0-13.62,9.78-27.231,27.039-27.231a51.858,51.858,0,0,1,10.354,1.146l1.348-23.4a38.321,38.321,0,0,0-8.052-.764,35.691,35.691,0,0,0-30.689,18.033h-.383V395.97h-22.817V497.807Zm-130.6-51.778c0-22.246,11.69-34.911,28.96-34.911a24.188,24.188,0,0,1,21.471,12.475l-50.24,26.457a28.448,28.448,0,0,1-.19-4.021m30.3,54.462c19.18,0,33.945-6.523,44.3-18.214l-14.957-13.621c-5.94,7.861-14.767,12.847-27.422,12.847-12.082,0-21.291-4.986-26.659-13.61l71.149-37.213c-5.369-21.662-23.584-37.394-48.14-37.394-31.644,0-51.779,23.4-51.779,53.7,0,30.879,20.336,53.507,53.507,53.507m-76.9-31.644c0-40.851-61.952-26.849-61.952-45.837,0-7.1,6.906-11.118,18.8-11.118,12.082,0,21.29,4.413,27.813,11.7l12.655-15.731c-10.163-9.4-22.437-14.576-41.043-14.576-23.592,0-40.661,11.319-40.661,30.5,0,39.888,61.76,25.694,61.76,46.22,0,7.67-7.679,12.082-20.144,12.082-13.611,0-23.391-4.6-31.644-12.856l-12.846,15.731c11.126,9.971,24.357,15.53,42.771,15.53,26.266,0,44.492-11.891,44.492-31.644m-176.243-21.863c0-30.3-19.752-53.7-52.743-53.7-33.365,0-53.125,23.4-53.125,53.7,0,30.115,19.761,53.507,53.125,53.507,32.991,0,52.743-23.392,52.743-53.507m-23.4,0c0,18.606-10.735,33.182-29.341,33.182-18.789,0-29.535-14.385-29.535-33.182s10.745-33.373,29.535-33.373c18.607,0,29.341,14.575,29.341,33.373M1080,395.97h-23.4V497.807H1080Zm-2.111-8.434,15.923-27.814h-22.637l-12.465,27.814Zm-86.3,110.271V443.536c0-13.62,9.781-27.231,27.039-27.231a51.948,51.948,0,0,1,10.354,1.146l1.348-23.4a38.336,38.336,0,0,0-8.053-.764,35.689,35.689,0,0,0-30.688,18.033h-.382V395.97H968.378V497.807Z" transform="translate(-367.52 -129.01)" fill="#fff"/>
    </g>
    <g transform="matrix(1, 0, 0, 1, 885.33, 318.11)" filter="url(#Trazado_3)">
      <path id="Trazado_3-2" data-name="Trazado 3" d="M1659.212,463.631V425.445c0-15.092-9.765-23.936-29.334-23.936a91.726,91.726,0,0,0-13.927.917l.345,7.584a66.371,66.371,0,0,1,12.547-1.146c15.657,0,21.521,7.364,21.521,16.582v7.708h-.113c-2.761-3.926-8.865-8.281-20.143-8.281-14.846,0-23.469,8.167-23.469,20.019,0,12.2,9.2,20.354,23.581,20.354,11.978,0,17.728-4.833,20.144-8.844h.229v7.23ZM1633.1,458.35c-11.167,0-17.49-5.292-17.49-13.458,0-8.052,6.1-13.248,16.8-13.248,11.281,0,17.956,5.311,17.956,12.436v1.385c0,7.249-6.321,12.885-17.268,12.885m-41.425-24.978c0-18.071-10.574-31.863-27.957-31.863-11.281,0-18.989,6.657-21.873,13.1h-.23v-11.49h-8.5V486.64h8.73V452.37h.115c2.769,6.208,10.477,12.875,21.758,12.875,17.382,0,27.957-13.8,27.957-31.873m-9.073,0c0,13.583-7.947,24.06-20.84,24.06-12.542,0-19.917-10.125-19.917-20.259V429.58c0-10.249,7.375-20.259,19.917-20.259,12.892,0,20.84,10.469,20.84,24.05m-71.245,14.28c0-24.519-38.893-14.28-38.893-29.7,0-5.874,5.643-9.332,14.28-9.332a22.993,22.993,0,0,1,18.3,8.176l4.938-5.989c-5.521-5.855-12.645-9.3-23.476-9.3-13.355,0-22.658,6.428-22.658,16.791,0,23.478,38.893,13.124,38.893,29.7,0,6.332-6.216,10.124-15.424,10.124-8.52,0-15.08-2.99-20.249-8.4L1462,455.7c6.326,6.208,14.148,9.541,24.741,9.541,14.727,0,24.613-6.9,24.613-17.594m-130.6-.706V425.769h21.52v-7.116h-21.52v-21.29h-7.238v21.29h-21.4v7.116h21.511v21.176ZM1288.243,380.8h-8.731v82.83h8.731Zm-77.089,52.228c0-14.843,8.395-24.633,20.708-24.633a18.488,18.488,0,0,1,16.8,10.478l-37.05,19.685a28.422,28.422,0,0,1-.458-5.53m21.861,32.217c10.927,0,19.323-4.135,24.968-11.156l-5.75-5.292c-4.258,5.645-10.134,9.093-18.643,9.093-9.666,0-16.572-4.6-20.021-12.312l45.332-23.946c-3.564-11.624-13.572-20.125-27.154-20.125-18.062,0-29.448,14.031-29.448,31.863,0,18.071,11.386,31.873,30.717,31.873m-53.048-1.614V410.583h15.3v-7.46h-15.3V380.8h-8.844v22.322h-9.437v7.46h9.437v53.049Zm-30.726-30.259c0-17.841-11.148-31.863-30.25-31.863-19,0-30.145,14.022-30.145,31.863s11.146,31.873,30.145,31.873c19.1,0,30.25-14.031,30.25-31.873m-8.96,0c0,13.583-7.822,24.06-21.29,24.06-13.238,0-21.185-10.478-21.185-24.06s7.947-24.05,21.185-24.05c13.354,0,21.29,10.354,21.29,24.05m-70.547,30.259V426.7c0-14.957-8.386-25.187-23.7-25.187a22.607,22.607,0,0,0-20.487,12.875h-.115V380.8H1016.7v82.83h8.732v-34.06c0-10.125,7.134-20.249,18.3-20.249,11.395,0,17.268,8.281,17.268,19.332v34.977Z" transform="translate(45.74 51.25)" fill="#fff"/>
    </g>
    <g transform="matrix(1, 0, 0, 1, 885.33, 318.11)" filter="url(#Trazado_4)">
      <path id="Trazado_4-2" data-name="Trazado 4" d="M2755.664,342.57c-240.667,58.063-483.386,94.817-726.846,78.56-123.431-8.233-218.189-24.786-341.605-33.945-122.305-9.074-245.586-15.32-367.826-1.242-137.31,15.817-272.989,55.914-409.441,83.9-2.807.572-2.846,7.861,0,7.278,119.823-24.575,238.948-58.111,359.2-77.013,121.723-19.141,244.249-16.4,366.316-9.122,123.423,7.364,246.647,21.434,369.935,33.1,121.256,11.472,214.249,10.679,335.5-.821,139.3-13.2,277.965-40.374,415.954-73.67,2.836-.678,1.623-7.7-1.186-7.02" transform="translate(-885.33 -276.07)" fill="#fff"/>
    </g>
    <g transform="matrix(1, 0, 0, 1, 885.33, 318.11)" filter="url(#Trazado_5)">
      <path id="Trazado_5-2" data-name="Trazado 5" d="M2554.235,414.837q-42.908,3.266-85.837,4.527c7.42-2.035,14.842-4.155,22.254-6.256q31.791.473,63.583,1.729m-94.073-2.006q-13.793,3.74-27.592,7.354c-54.032.793-108.094-.267-162.147-2.2q41.139-2.206,82.276-3.591,53.727-1.719,107.463-1.566m-271.306,10.287c41.854,1.987,83.718,3.763,125.571,4.861q41.552,1.089,83.106,1.108c-145.993,36.095-292.6,59.563-439.653,59.734-118.808.134-237.57-7.88-356.334-11.433q15.5-1.232,30.975-2.512c185.47-15.569,370.826-38.54,556.334-51.759m552.387-1.672q-42.838-5.43-85.7-8.978,18.067-2.594,36.113-5.655c2.531-.43,2.552-9.064,0-8.625-26.3,4.5-52.619,8.138-78.951,11.118q-47.093-3.037-94.205-4.183,47.219-13.754,94.358-28.674c2.522-.792,1.451-9.112-1.051-8.319q-60.79,19.212-121.742,36.439c-100.672-1.423-201.374,2.8-302.026,9.933-58.979-2.8-117.952-6.036-176.894-8.462-228.03-9.38-456.1,4.059-684.158-1-30.651-.678-61.464.019-92.066-4.021-31.4-4.145-62.6-13.678-93.69-23.774-2.6-.84-5.206-1.7-7.8-2.55,161.886-11.261,323.888-14.031,485.852-14,217.926.029,435.852,5.081,653.774,1.166,113.12-2.035,226.229-6.591,339.277-15.454,2.552-.2,2.562-8.835,0-8.634-217.571,17.068-435.314,17.928-653,16.466-217.914-1.452-435.858-5.176-653.765,2.751q-96.866,3.524-193.7,10.631c-50.233-16.447-100.6-31.73-151.525-29.848-2.549.1-2.559,8.73,0,8.634,43.583-1.614,86.785,9.322,129.824,22.847q-61.951,4.929-123.874,11.671c-2.548.287-2.558,8.922,0,8.635q72.8-7.994,145.641-13.286,7.61,2.492,15.225,5.024c26.123,8.644,52.266,16.992,78.551,23,27.8,6.361,55.561,7.469,83.48,8.367,114.311,3.639,228.624,2.312,342.936.716,113.891-1.585,227.79-3.926,341.682-.1,48.74,1.643,97.472,4.03,146.2,6.466q-49.286,4.069-98.543,8.758c-173.281,16.381-346.535,36.811-519.913,47.232-55.464-.029-110.93,1.709-166.4,6.447q-16.935.259-33.86.345c-129.632.468-259.311-8.09-388.542-30.861-2.549-.449-2.53,8.185,0,8.634,114.981,20.249,230.2,29.037,345.466,30.489-104.855,14.671-209.4,41.835-312.283,88.828-2.5,1.146-1.434,9.466,1.06,8.32,128.475-58.684,259.026-85.954,389.994-97.234,58.11-.85,116.222-3.334,174.323-6.925q35.646-.029,71.273.745c106.164,2.206,212.3,8.778,318.463,11.758a1681.822,1681.822,0,0,0,324.681-22.331c69.258-11.548,138.364-27.021,207.325-45.1,60.07-.889,120.128-4.1,180.1-10.918,42.722,2.78,85.429,6.753,128.094,12.159,2.557.325,2.541-8.31,0-8.635" transform="translate(-859.55 -318.11)" fill="#fff"/>
    </g>
    <g transform="matrix(1, 0, 0, 1, 885.33, 318.11)" filter="url(#Trazado_6)">
      <path id="Trazado_6-2" data-name="Trazado 6" d="M2741.685,338.7c-247.584,5.11-495.126,11.958-742.72,15.645-123.491,1.834-218.517,2.9-342.028,2.455-120.567-.43-241.163-1.805-361.693,4.881-128.915,7.154-257.745,24.385-384.874,60.881-2.836.812-1.635,7.823,1.174,7.02,238.853-68.56,481.851-66.65,723.531-65.59,247.153,1.089,465.843-3.582,712.967-9.15,131.209-2.952,262.416-6.151,393.644-8.854,2.855-.057,2.865-7.336,0-7.287" transform="translate(-877.43 -308.74)" fill="#fff"/>
    </g>
    <g transform="matrix(1, 0, 0, 1, 885.33, 318.11)" filter="url(#Trazado_7)">
      <path id="Trazado_7-2" data-name="Trazado 7" d="M2541.691,347.781c-219.987,5.1-411.513,11.948-631.512,15.635-109.727,1.834-219.472,2.9-329.208,2.455-107.141-.43-214.3-1.805-321.4,4.881-114.551,7.154-229.045,24.385-342.007,60.881-2.514.812-1.443,7.823,1.05,7.021,212.251-68.56,428.171-66.65,642.926-65.59,219.616,1.089,410.77-3.582,630.367-9.15,116.594-2.951,233.188-6.151,349.782-8.854,2.55-.057,2.55-7.336,0-7.278" transform="translate(-814.29 -231.12)" fill="#fff"/>
    </g>
  </g>
</svg>
