<svg xmlns="http://www.w3.org/2000/svg" width="1161.216" height="156.251" viewBox="0 0 1161.216 156.251"><defs><style>.a{opacity:0.055;}.b{fill:#89231d;}.c{fill:#1d1c1b;}</style></defs><g class="a" transform="translate(-669.287 -337.608)"><path class="b" d="M1822.224,342.553c-150.161,36.228-301.6,59.16-453.506,49.017-77.014-5.137-136.139-15.465-213.141-21.18-76.312-5.662-153.231-9.559-229.5-.775C840.4,379.484,755.747,404.5,670.61,421.963c-1.752.358-1.776,4.9,0,4.541,74.762-15.334,149.089-36.257,224.119-48.051,75.948-11.943,152.4-10.233,228.559-5.692,77.009,4.595,153.892,13.373,230.817,20.65,75.656,7.157,133.679,6.663,209.328-.513,86.913-8.236,173.433-25.191,259.53-45.965,1.77-.423,1.013-4.8-.739-4.38" transform="translate(0 24.379)"/><path class="c" d="M1697.678,385.794q-26.772,2.038-53.558,2.825c4.631-1.269,9.262-2.592,13.886-3.9q19.837.3,39.672,1.079m-58.695-1.251q-8.609,2.333-17.218,4.588c-33.713.495-67.443-.167-101.167-1.371q25.664-1.376,51.334-2.24,33.524-1.073,67.052-.977m-169.28,6.418c26.114,1.24,52.235,2.348,78.349,3.033q25.923.679,51.854.691c-91.091,22.521-182.564,37.163-274.316,37.271-74.13.084-148.231-4.917-222.331-7.133q9.673-.768,19.327-1.567c115.722-9.714,231.372-24.047,347.117-32.295m344.656-1.043q-26.727-3.388-53.468-5.6,11.272-1.618,22.533-3.528c1.579-.268,1.591-5.655,0-5.381-16.413,2.807-32.831,5.078-49.261,6.937q-29.384-1.895-58.779-2.61,29.464-8.582,58.874-17.891c1.573-.494.906-5.685-.655-5.19q-37.929,11.988-75.96,22.735c-62.813-.888-125.645,1.746-188.445,6.2-36.8-1.746-73.6-3.766-110.371-5.28-142.277-5.852-284.578,2.533-426.873-.626-19.124-.423-38.349.012-57.443-2.509-19.589-2.586-39.058-8.534-58.457-14.833-1.621-.524-3.248-1.061-4.869-1.591,101.008-7.026,202.087-8.754,303.142-8.737,135.972.018,271.944,3.171,407.916.727,70.578-1.269,141.151-4.112,211.687-9.642,1.591-.126,1.6-5.513,0-5.387-135.751,10.649-271.61,11.186-407.433,10.274-135.966-.906-271.95-3.23-407.91,1.716q-60.439,2.2-120.859,6.633c-31.341-10.262-62.766-19.8-94.542-18.623-1.591.06-1.6,5.447,0,5.387,27.194-1.007,54.148,5.816,81,14.255q-38.653,3.075-77.288,7.282c-1.592.179-1.6,5.566,0,5.388q45.42-4.988,90.87-8.289,4.746,1.555,9.5,3.135c16.3,5.393,32.61,10.6,49.011,14.35,17.342,3.969,34.667,4.66,52.086,5.221,71.323,2.27,142.646,1.442,213.969.447,71.061-.989,142.128-2.449,213.19-.065,30.411,1.025,60.816,2.515,91.222,4.035q-30.751,2.539-61.484,5.465c-108.117,10.221-216.217,22.968-324.394,29.47-34.606-.018-69.214,1.067-103.826,4.023q-10.566.161-21.126.214c-80.883.292-161.795-5.048-242.427-19.255-1.591-.28-1.579,5.107,0,5.387,71.741,12.634,143.63,18.117,215.549,19.022-65.423,9.154-130.65,26.1-194.846,55.423-1.561.715-.894,5.906.661,5.191,80.162-36.615,161.617-53.63,243.333-60.667,36.258-.531,72.516-2.08,108.767-4.321q22.24-.018,44.47.465c66.24,1.377,132.461,5.477,198.7,7.336a1049.339,1049.339,0,0,0,202.581-13.934c43.212-7.2,86.329-16.859,129.357-28.14,37.479-.554,74.952-2.557,112.371-6.812,26.658,1.735,53.3,4.213,79.923,7.587,1.6.2,1.586-5.185,0-5.387" transform="translate(14.951 0)"/><path class="c" d="M1813.844,338.7c-154.47,3.188-308.928,7.461-463.4,9.762-77.051,1.144-136.348,1.812-213.4,1.531-75.227-.268-150.478-1.126-225.674,3.045-80.436,4.464-160.823,15.215-240.144,37.986-1.764.507-1.013,4.881.74,4.38C820.986,352.631,972.6,353.823,1123.4,354.485c154.207.68,290.656-2.234,444.847-5.709,81.866-1.842,163.731-3.838,245.6-5.525,1.788-.036,1.794-4.577,0-4.547" transform="translate(4.583 5.433)"/><path class="c" d="M1691.842,347.781c-137.259,3.182-256.759,7.455-394.024,9.755-68.463,1.144-136.937,1.812-205.406,1.532-66.848-.268-133.707-1.126-200.531,3.045-71.473,4.464-142.9,15.215-213.392,37.986-1.567.507-.9,4.881.656,4.38C811.576,361.7,946.3,362.894,1080.29,363.556c137.027.679,256.3-2.235,393.309-5.709,72.748-1.841,145.5-3.838,218.243-5.524,1.592-.036,1.592-4.577,0-4.541" transform="translate(41.198 50.45)"/></g></svg>