<svg xmlns="http://www.w3.org/2000/svg" width="697.543" height="194.258" viewBox="0 0 697.543 194.258"><defs><style>.a{fill:#9e3223;}.b{fill:#2d2a26;}</style></defs><g transform="translate(2475 -5784)"><path class="a" d="M682.9,415.5c0-11.4-7.4-20.1-19.8-20.1-12.5,0-19.9,8.8-19.9,20.1s7.4,20.1,19.9,20.1c12.4-.1,19.8-8.8,19.8-20.1m-8.8,0c0,7-4,12.4-11,12.4S652,422.5,652,415.5s4-12.5,11.1-12.5c7,0,11,5.4,11,12.5m-41.8,19V411.1c0-9.3-5.6-15.8-15.9-15.8a14.391,14.391,0,0,0-12.4,6.6h-.1v-5.6h-8.6v38.2H604V413.7c0-5.5,3.8-10.7,10.1-10.7s9.6,4.5,9.6,10.3v21.1h8.6Zm-51.3,0V410.9c0-10.1-6.8-15.5-19.6-15.5a76.136,76.136,0,0,0-9.6.6l.4,7.3a36.5,36.5,0,0,1,8.1-.8c8.8,0,11.9,4,11.9,8.4v3.2h-.1c-1.8-2-5.2-4.1-11.4-4.1-9.6,0-14.7,5.3-14.7,12.7,0,7.7,5.6,12.9,14.4,12.9,7,0,10.3-2.4,11.9-4.5h.1v3.5H581Zm-17.3-5.7c-5.7,0-8.8-2.3-8.8-6.2,0-3.8,3-6.1,8.6-6.1,5.7,0,8.9,2.4,8.9,5.7v.7c-.1,3.4-3.2,5.9-8.7,5.9m-36.8,5.7V414.2A9.955,9.955,0,0,1,537,404a19.105,19.105,0,0,1,3.9.4l.5-8.8a15.262,15.262,0,0,0-3-.3,13.442,13.442,0,0,0-11.5,6.8h-.1v-5.8h-8.6v38.2h8.7Zm-33.2,0V414.2A9.955,9.955,0,0,1,503.8,404a19.1,19.1,0,0,1,3.9.4l.5-8.8a15.262,15.262,0,0,0-3-.3,13.442,13.442,0,0,0-11.5,6.8h-.1v-5.8H485v38.2h8.7Zm-48.9-19.4c0-8.3,4.4-13.1,10.9-13.1a8.935,8.935,0,0,1,8,4.7l-18.8,9.9a7.568,7.568,0,0,1-.1-1.5m11.3,20.4c7.2,0,12.7-2.4,16.6-6.8l-5.6-5.1c-2.2,2.9-5.5,4.8-10.3,4.8-4.5,0-8-1.9-10-5.1l26.7-13.9a18.049,18.049,0,0,0-18-14c-11.9,0-19.4,8.8-19.4,20.1,0,11.5,7.6,20,20,20m-28.8-11.8c0-15.3-23.2-10.1-23.2-17.2,0-2.7,2.6-4.2,7-4.2a13.442,13.442,0,0,1,10.4,4.4l4.7-5.9c-3.8-3.5-8.4-5.5-15.4-5.5-8.8,0-15.2,4.2-15.2,11.4,0,14.9,23.1,9.6,23.1,17.3,0,2.9-2.9,4.5-7.5,4.5a15.8,15.8,0,0,1-11.9-4.8l-4.8,5.9c4.2,3.7,9.1,5.8,16,5.8,10,.1,16.8-4.3,16.8-11.7m-66-8.2c0-11.4-7.4-20.1-19.8-20.1-12.5,0-19.9,8.8-19.9,20.1s7.4,20.1,19.9,20.1c12.4-.1,19.8-8.8,19.8-20.1m-8.8,0c0,7-4,12.4-11,12.4s-11.1-5.4-11.1-12.4,4-12.5,11.1-12.5c7,0,11,5.4,11,12.5m-42.4-19.1h-8.8v38.2h8.8Zm-.8-3.2,6-10.4h-8.5l-4.7,10.4ZM277,434.5V414.2A9.955,9.955,0,0,1,287.1,404a19.1,19.1,0,0,1,3.9.4l.5-8.8a15.262,15.262,0,0,0-3-.3,13.442,13.442,0,0,0-11.5,6.8h-.1v-5.8h-8.6v38.2H277Z" transform="translate(-2526.475 5480.358)"/><path class="a" d="M682,489.3V475c0-5.7-3.7-9-11-9a42.833,42.833,0,0,0-5.2.3l.1,2.8a24.868,24.868,0,0,1,4.7-.4c5.9,0,8.1,2.8,8.1,6.2v2.9h0c-1-1.5-3.3-3.1-7.5-3.1-5.6,0-8.8,3.1-8.8,7.5,0,4.6,3.4,7.6,8.8,7.6,4.5,0,6.6-1.8,7.5-3.3h.1v2.7H682Zm-9.7-2c-4.2,0-6.6-2-6.6-5s2.3-5,6.3-5c4.2,0,6.7,2,6.7,4.7v.5c0,2.7-2.3,4.8-6.4,4.8m-15.6-9.4c0-6.8-4-11.9-10.5-11.9a8.928,8.928,0,0,0-8.2,4.9h0v-4.3h-3.2v31.3h3.3V485h0a8.8,8.8,0,0,0,8.2,4.8c6.5.1,10.4-5.1,10.4-11.9m-3.4,0c0,5.1-3,9-7.8,9a7.439,7.439,0,0,1-7.5-7.6v-2.8a7.439,7.439,0,0,1,7.5-7.6c4.9,0,7.8,3.9,7.8,9m-26.7,5.4c0-9.2-14.6-5.4-14.6-11.1,0-2.2,2.1-3.5,5.4-3.5a8.539,8.539,0,0,1,6.9,3.1l1.9-2.2c-2.1-2.2-4.7-3.5-8.8-3.5-5,0-8.5,2.4-8.5,6.3,0,8.8,14.6,4.9,14.6,11.1,0,2.4-2.3,3.8-5.8,3.8a10.01,10.01,0,0,1-7.6-3.1l-1.9,2.2a12.659,12.659,0,0,0,9.3,3.6c5.4-.1,9.1-2.7,9.1-6.7m-48.9-.3v-7.9h8.1v-2.7h-8.1v-8H575v8h-8v2.7h8.1V483ZM543,458.2h-3.3v31H543Zm-28.9,19.6c0-5.6,3.1-9.2,7.8-9.2a6.888,6.888,0,0,1,6.3,3.9l-13.9,7.4a14.93,14.93,0,0,1-.2-2.1m8.2,12.1a11.492,11.492,0,0,0,9.4-4.2l-2.2-2a8.268,8.268,0,0,1-7,3.4,7.7,7.7,0,0,1-7.5-4.6l17-9a10.3,10.3,0,0,0-10.2-7.5c-6.8,0-11,5.3-11,11.9,0,6.8,4.3,12,11.5,12m-19.9-.6V469.4h5.7v-2.8h-5.7v-8.4h-3.3v8.4h-3.5v2.8h3.5v19.9Zm-11.5-11.4c0-6.7-4.2-11.9-11.3-11.9s-11.3,5.3-11.3,11.9c0,6.7,4.2,11.9,11.3,11.9,7.1.1,11.3-5.2,11.3-11.9m-3.3,0c0,5.1-2.9,9-8,9-5,0-7.9-3.9-7.9-9s3-9,7.9-9c5,0,8,3.9,8,9m-26.5,11.4V475.5c0-5.6-3.1-9.4-8.9-9.4a8.6,8.6,0,0,0-7.7,4.8h0V458.3h-3.3v31h3.3V476.5c0-3.8,2.7-7.6,6.9-7.6,4.3,0,6.5,3.1,6.5,7.2v13.1h3.2Z" transform="translate(-2526.475 5480.358)"/><path class="a" d="M744,321.2c-90.2,21.8-181.2,35.5-272.4,29.4-46.3-3.1-81.8-9.3-128-12.7-45.8-3.4-92-5.7-137.9-.5-51.5,5.9-102.3,21-153.4,31.4-1.1.2-1.1,2.9,0,2.7,44.9-9.2,89.6-21.8,134.6-28.9,45.6-7.2,91.5-6.1,137.3-3.4,46.3,2.8,92.4,8,138.6,12.4,45.4,4.3,80.3,4,125.7-.3,52.2-4.9,104.2-15.1,155.9-27.6,1.1-.1.7-2.7-.4-2.5" transform="translate(-2526.475 5480.358)"/><path class="b" d="M678.2,332.5c-10.7.8-21.4,1.4-32.2,1.7,2.8-.8,5.6-1.6,8.3-2.3,8,.1,16,.3,23.9.6m-35.3-.7c-3.4.9-6.9,1.9-10.3,2.8-20.2.3-40.5-.1-60.8-.8,10.3-.6,20.6-1,30.8-1.3,13.5-.5,26.9-.8,40.3-.7m-101.6,3.9c15.7.7,31.4,1.4,47.1,1.8,10.4.3,20.8.4,31.1.4-54.7,13.5-109.7,22.3-164.8,22.4-44.5.1-89-3-133.5-4.3,3.9-.3,7.7-.6,11.6-.9,69.5-5.9,138.9-14.5,208.5-19.4m207-.7c-10.7-1.4-21.4-2.5-32.1-3.4q6.75-.9,13.5-2.1c.9-.2,1-3.4,0-3.2-9.9,1.7-19.7,3-29.6,4.2-11.8-.8-23.5-1.3-35.3-1.6,11.8-3.4,23.6-7,35.4-10.7.9-.3.5-3.4-.4-3.1-15.2,4.8-30.4,9.4-45.6,13.7-37.7-.5-75.5,1-113.2,3.7-22.1-1-44.2-2.3-66.3-3.2-85.5-3.5-170.9,1.5-256.4-.4-11.5-.3-23,0-34.5-1.5-11.8-1.6-23.5-5.1-35.1-8.9a24.688,24.688,0,0,1-2.9-1c60.7-4.2,121.4-5.3,182.1-5.2,81.7,0,163.3,1.9,245,.4,42.4-.8,84.8-2.5,127.2-5.8,1-.1,1-3.3,0-3.2-81.5,6.4-163.1,6.7-244.7,6.2-81.7-.5-163.3-1.9-245,1q-36.3,1.35-72.6,4C119,308.7,100.1,303,81,303.7c-1,0-1,3.3,0,3.2,16.3-.6,32.5,3.5,48.7,8.6-15.5,1.2-31,2.7-46.4,4.4-1,.1-1,3.3,0,3.2,18.2-2,36.4-3.6,54.6-5,1.9.6,3.8,1.3,5.7,1.9,9.8,3.2,19.6,6.4,29.4,8.6,10.4,2.4,20.8,2.8,31.3,3.1,42.8,1.4,85.7.9,128.5.3,42.7-.6,85.4-1.5,128.1,0,18.3.6,36.5,1.5,54.8,2.4q-18.45,1.5-36.9,3.3c-64.9,6.1-129.9,13.8-194.9,17.7-20.8,0-41.6.6-62.4,2.4-4.2.1-8.5.1-12.7.1-48.6.2-97.2-3-145.6-11.6-1-.2-.9,3.1,0,3.2,43.1,7.6,86.3,10.9,129.5,11.4-39.3,5.5-78.5,15.7-117,33.3-.9.4-.5,3.5.4,3.1,48.1-22,97.1-32.2,146.2-36.4q32.7-.45,65.3-2.6,13.35,0,26.7.3c39.8.8,79.6,3.3,119.4,4.4a630.328,630.328,0,0,0,121.7-8.4c26-4.3,51.9-10.1,77.7-16.9a664.407,664.407,0,0,0,67.5-4.1c16,1,32,2.5,48,4.6.6.2.6-3.1-.3-3.2" transform="translate(-2526.475 5480.358)"/><path class="b" d="M741.7,307.5c-92.8,1.9-185.6,4.5-278.3,5.9-46.3.7-81.9,1.1-128.2.9-45.2-.2-90.4-.7-135.6,1.8-48.3,2.7-96.6,9.1-144.2,22.8-1.1.3-.6,2.9.4,2.6,89.5-25.7,180.6-25,271.2-24.6,92.6.4,174.6-1.3,267.2-3.4,49.2-1.1,98.3-2.3,147.5-3.3,1.1,0,1.1-2.7,0-2.7" transform="translate(-2526.475 5480.358)"/><path class="b" d="M690.5,340c-82.4,1.9-154.2,4.5-236.7,5.9-41.1.7-82.3,1.1-123.4.9-40.2-.2-80.3-.7-120.5,1.8-42.9,2.7-85.8,9.1-128.2,22.8-.9.3-.5,2.9.4,2.6,79.5-25.7,160.5-25,241-24.6,82.3.4,153.9-1.3,236.2-3.4,43.7-1.1,87.4-2.3,131.1-3.3,1,0,1-2.7.1-2.7" transform="translate(-2526.475 5480.358)"/></g></svg>