<svg xmlns="http://www.w3.org/2000/svg" width="1800.449" height="1990.975" viewBox="0 0 1800.449 1990.975"><defs><style>.a{opacity:0.304;}.b{fill:none;stroke:#000;stroke-miterlimit:10;stroke-width:1.5px;}</style></defs><g class="a" transform="matrix(0.559, -0.829, 0.829, 0.559, 1.01, 1424.567)"><path class="b" d="M1071.25,126.046c-.68,4.836-9.679,3.49-12.943,3.49-4.273,0-8.58.165-12.853.034-5.729-.179-10.559-2.322-16.172-3.194-5.352-.824-10.937-.082-16.322-.666-3.861-.426-7.564-1.772-11.28-2.775a145.94,145.94,0,0,0-15.739-3.064c-12.606-1.917-25.473-2.13-38.2-2.418-8.388-.192-15.072-3.38-22.986-5.819-7.845-2.411-15.553-4.664-23.11-7.928-18.2-7.873-35.256-18.686-52.595-28.351-9.645-5.379-19.675-10.82-30.44-13.582C808.7,59.238,800.432,57.129,791.3,52.1c-7.268-4.005-14.962-6.911-22.519-10.318-5.358-2.411-10.655-5.056-16.494-6.114-6.8-1.23-13.774-.041-20.651-1.23-14.88-2.576-30.962-.872-46.089-.872-10.078,0-19.641-.076-29.547,1.518-12.709,2.04-29.059,6.485-36.849,17.793-7.014,10.195-2.652,26.1-.515,37.4,2.37,12.524,7.165,25.686,7.715,38.416a66.557,66.557,0,0,1-1.793,20c-2.617,10.133-3.387,21.729-7.728,31.278-15.821,34.782-63.662,46.213-97.86,48.975-24.951,2.013-51.221,10.167-74.654,18.775-27.534,10.112-54.051,22.478-81.5,32.762-26.064,9.769-51.276,19.97-78.679,25.315-8.326,1.621-16.735,4.232-25.15,5.056a250.506,250.506,0,0,0-28.777,4.486c-12.922,2.789-25.961,4.514-38.773,7.845-11.479,2.981-22.169,7.412-33.3,11.349-19.064,6.739-36.8,20.939-51.022,35.18a132.063,132.063,0,0,0-18.28,23.735c-5.5,8.8-11.782,16.824-15.45,26.613-6.313,16.872-4.321,35.324-8.917,52.636-1.848,6.931-4.41,13.609-6.162,20.582-1.807,7.172-2.72,14.866-4.953,21.866-4.369,13.7-17.133,26.565-29.492,33.2-7.426,3.984-18.074,5.537-22.4,13.451C-4.453,572.622,9.094,579.21,16,585.352c4.245,3.772,8.539,7.117,11.727,11.857,4.094,6.107,7.419,11.754,13.856,15.848,6.787,4.321,14.275,7.124,20.884,11.809,8.189,5.812,13.08,11.761,17.758,20.637,21.915,41.6,23.343,89.513,30.969,135,2.885,17.229,1.106,34.266,2.487,51.551,1.649,20.637,3,42.675,8.642,62.6,4.754,16.762,12.75,32.034,19.263,48.15a153.386,153.386,0,0,1,9.741,34.837c1.024,6.78,3.455,11.074,6.945,16.982,4.61,7.8,5.661,15.161,15.828,16.165,6.437.632,13.437.591,19.05-2.872,5.5-3.394,11.067-7.942,14.791-13.176,4.294-6.039,8.567-11.871,11.651-18.644,3.545-7.756,6.155-16.055,9.886-23.694,2.83-5.791,6.155-12.489,10.456-17.312,6.526-7.31,16.165-9.522,25.2-11.94,16.474-4.41,33.5-8.333,50.541-9.823,13.32-1.175,27.431-3.071,40.731-1.91,21.887,1.91,44.633,8.168,63.9,18.7,10.573,5.777,20.424,14,30.042,21.234,5.8,4.362,12.5,6.794,18.521,10.717,7.323,4.788,11.479,13.437,19.627,17.1,9.247,4.156,22.608,4.225,32.59,5.022a146.4,146.4,0,0,0,31.56-.446c22.938-3.188,40.958-20.135,60.852-30.646,13.637-7.206,28.407-11.315,42.524-17.4,12.008-5.173,23.845-9.687,36.238-13.911,13.259-4.527,26.277-9.8,39.584-14.186,17.889-5.9,37.056-7.516,55.295-12.1,13.946-3.511,28.2-4.63,42.366-6.9,10.689-1.717,21.2-4.115,31.986-5.249,7.852-.824,15.258-3.373,22.883-5.283a190.22,190.22,0,0,1,32.274-5.049A218.037,218.037,0,0,1,949.19,873c9.858.832,19.016,7.124,26.785,12.97,3.428,2.583,7.021,3.909,10.717,6.018,4.032,2.3,7.179,5.812,11.266,8.154,15.7,9.013,34.679,11.452,51.434,18.061,33.9,13.375,69.426,19.043,105.533,22.753a588.559,588.559,0,0,0,61.237,3.462c18.1-.028,36.685,1.2,54.7-.8,42.435-4.706,86.965-2.988,127.318-18.61,13.726-5.317,27.747-10.016,41.349-15.642,15.835-6.554,34.995-19.3,43.712-34.424,9.707-16.824,15.862-36.513,22.217-54.67,9.418-26.929,16.652-54.085,18.555-82.63a482.716,482.716,0,0,0-1.2-83.605c-3.428-32.006-12.9-60.53-25.452-89.857q-17.549-40.992-33.992-82.41c-9.947-25.027-22.835-48.707-22.972-76.358-.11-23.22,8.786-43.321,22.7-61.91a297.563,297.563,0,0,1,48.59-50.575,334.734,334.734,0,0,1,42.757-29.423c19.49-11.5,38.32-21.736,53.1-39.213,9.79-11.576,19.984-22.272,30.282-33.394,11.273-12.173,21.351-25.473,31.491-38.594,10.311-13.348,21.564-26.449,27.946-42.2,6.7-16.515,11.425-34.527,15.849-51.819,2.624-10.243,4.809-20.754,3.751-31.381-.88-8.917-7.481-15.986-14.859-20.747C1691.79-.433,1679.651.2,1668.027.329c-15.127.172-31.835-2.068-46.4,3.2-24.539,8.883-44.757,27.41-65.881,42.057-25.164,17.449-54.883,24.931-84.629,29.89-13.561,2.26-27.067,4.74-40.209,8.835-11.459,3.572-23.433,8.319-35.386,10.188-5.977.927-12.593.137-18.665.137-23.254,0-46.515.1-69.769-.041-48.6-.309-97.07,8.883-145.124,14-2.3.24-4.019,1.188-6.224,1.6-3.05.563-6.19-.069-9.3.46-6.327,1.065-11.493,5.029-17.531,6.451-2.356.55-4.658.13-7.062.213Z"/><path class="b" d="M1535.57.3c-10.937-2.143-23.687,7.68-32.473,12.633-10.277,5.784-21.6,11.912-30.124,20.06-11.754,11.225-26.263,21.825-40.868,28.984-17.305,8.477-33.195,10.222-52.19,12.063-17.628,1.7-34.2,6.011-51.036,11.459-13.547,4.383-26.62,3.785-40.772,3.792-17.614.007-34.967-1.814-52.54-1.766-7.158.021-14.585-.467-21.722.289-9.79,1.037-19.641,3.133-29.41,4.507-9.171,1.292-17.758,4.321-26.888,5.839-11.816,1.965-24.408,2.411-36.362,3a588.25,588.25,0,0,1-64.651.007c-7.3-.446-15.656-.6-22.78-2.7a44.887,44.887,0,0,0-10.49-2.184l-18.28,6.787c-12.743,0-65.654,17.374-78.281,15.986-6.657-.735-13.1-2.638-19.909-1.924-16.858,1.759-33.731,7.241-50.816,7.1-9.308-.082-19.043,1.161-28.1-1.525-7.344-2.178-14.1-5.942-21.056-9.041-15.759-7.021-31.038-13.4-44.812-24.223-9.419-7.392-18.658-16.563-30.028-20.98-5.262-2.04-11.088-2.686-16.618-3.62-11.713-1.985-22.863-4.108-34.06-8.175-7.962-2.885-15.794-6.094-23.811-8.848a169.953,169.953,0,0,0-66.52-8.793c-6.464.453-17.848-1.436-19.469,6.842-.927,4.72.268,8.993,1.092,13.6,2.26,12.634,3.249,23.536-1.5,35.853-5.942,15.409-16.316,28.4-20.554,44.42-3.936,14.88-10.133,28.963-14.111,43.98-1.5,5.675-2.3,10.318-7.117,13.863-4.74,3.49-11.555,4.184-17.037,5.441-36.355,8.34-73.225,16.824-108.281,29.581-44.338,16.13-90.008,28.345-134.737,43.417-27.417,9.233-54.58,19.249-81.86,28.894-13.588,4.8-26.964,9.831-40.174,15.581-19.991,8.7-40.813,15.381-60.914,23.907-17.717,7.529-37.585,14.055-46.206,32.659-2.466,5.338-3.847,9.982-2.528,15.89,1.436,6.444,3.236,11.63,3.414,18.4.35,13.575-1.676,26.105-9.068,37.791-8.658,13.683-17.19,26.536-24.223,41.169-4.836,10.064-10.3,24.367-6.327,35.709C5.156,536.81,15.33,543.666,22.1,552.384c11.569,14.88,15.972,31.835,20.85,49.634,6.987,25.514,15.278,50.63,19.462,76.845,2.4,15.017,2.446,30.158,4.527,45.183,1.347,9.721,3.387,19.317,4.562,29.08,2.961,24.525,6.08,48.981,9.556,73.458,2.1,14.839,2.7,34.809,15.429,45.224,7.8,6.382,23.158,6.65,32.364,2.8a39.2,39.2,0,0,0,12.668-8.347c7.756-7.282,17.765-13.238,26.339-19.613,5.29-3.937,9.487-8.711,14.214-13.224,5.887-5.619,13.238-9.082,20.946-11.479,24.3-7.557,52.458-3.174,76.818,1.443,37.2,7.055,75.87,24.278,102.758,51.6,4.321,4.4,7.866,9.659,12.5,13.754,3.8,3.359,8.333,5.283,12.95,7.268,10.2,4.383,23.515,4.452,34.17,1.353,11.445-3.325,22.437-8.491,32.982-13.952,9.3-4.816,18.047-10.573,27.527-15.065,8.876-4.2,18.054-7.475,26.7-12.187,23.783-12.956,47.243-27.692,70.037-42.325,10.188-6.54,19.579-14.09,30.344-19.73,8.821-4.624,17.758-7.7,27.2-10.58,26.14-7.969,52.506-15.821,79.7-19.043,26.9-3.18,53.88-4.946,80.885-1.965,20.335,2.239,41.068,7.941,60.55,14.124a202.948,202.948,0,0,1,36.925,15.924c9.59,5.317,18.411,11.493,28.585,15.773,7.79,3.277,15.814,5.984,23.811,8.676,24.188,8.148,47.216,15.045,72.874,15.656,21.915.529,43.843,2.075,65.7,3.813,29.032,2.308,57.369,9.185,86.168,12.991,19.627,2.6,40.374-.893,59.685-4.5,21.53-4.012,43.355-9.982,61.855-21.983,9.8-6.355,17.854-13.691,26.222-21.757,10.916-10.518,23.556-20.259,30.2-34.3A179.691,179.691,0,0,0,1383.226,729c4.19-18.809,5.029-37.378,4.836-56.586-.2-20-3.957-37.845-10.161-56.875-6.568-20.149-14.578-39.652-25.714-57.7a275.876,275.876,0,0,1-20.08-38.278c-7.866-18.824-17.154-36.506-26-54.869-7.3-15.169-10.847-32.906-12.166-49.62-1.12-14.262-.611-29.052-.385-43.341a81.99,81.99,0,0,1,3.51-22.746A259.731,259.731,0,0,1,1313,307.353c5.345-10.772,8.381-21.75,14.557-32.171,10.484-17.683,20.9-34.418,34.658-49.868,10.82-12.146,20.747-24.4,30.46-37.468a196.621,196.621,0,0,1,15.512-18.864c17.518-18.363,40.635-29.279,62.329-41.679,16.48-9.425,32.2-21.516,46.288-34.3,8.835-8.01,15.711-17.607,21.97-27.713,5.365-8.67,10.422-18,11.5-28.351C1551.37,26.461,1549.5,3.029,1535.57.3Z" transform="translate(95.099 50.699)"/><path class="b" d="M1267.213,561.757c-2.061-9.247-4.589-18.335-6.21-27.685-1.319-7.6-1.621-15.6-3.3-23.172-2.315-10.428-5.949-20.8-8.738-31.141-5.1-18.926-19.318-29.1-32.549-42.153-9.467-9.343-17.071-18.7-21.653-31.216-4.122-11.239-10.071-22.045-13.616-33.442a208.5,208.5,0,0,1-9.082-62.817c.309-29.918-2.439-59.664-1.628-89.644A185.149,185.149,0,0,1,1179,168.318c4.919-15.148,12.812-28.77,20.651-42.579a532.107,532.107,0,0,1,41.129-62.481c10.325-13.355,23.069-26.971,30.083-42.565,1.917-4.259,4.348-14.248-.227-18.4-4.623-4.2-16.474-1.36-22.361-1.34-26.119.076-52.018.076-78.062,1.5-25.2,1.381-50.163,5.441-75.141,9-8.278,1.175-16.487,3.03-24.841,3.38-7.728.323-15.45.1-23.179.1-13.114,0-25.776-.158-38.794-1.649-8.862-1.01-18.033-2.047-26.861-3.62-2.246-.4-9.034-1.429-11.823-3.428-1.731-1.25-30.179,10.627-31.292,11.287-4.939-1.532-36.4,21.6-40.14,23.721-5.242,2.982-10.5,1.546-15.869-.831-7.151-3.174-11.589-7.962-16.982-13.327-7.1-7.062-16.68-7.646-26.146-8.374-38.251-2.94-77.567,4.184-115.426-3.634-8.4-1.738-15.835-6.8-24.147-8.333A66.245,66.245,0,0,0,688.9,6.019c-11.7-.261-23.694-.275-35.4.034-6.966.179-13.87,1.724-20.781,2.521-7.213.838-14.454,1.1-21.654,2.061-12.125,1.628-24.353,5.351-34.466,12.352-5.235,3.62-11.225,7.467-14.976,12.64-2.294,3.146-3.346,6.251-4.781,9.858-4.088,10.27-8.773,21.537-17.3,29-18.033,15.794-41.864,26.366-63.5,35.943-31.342,13.872-62.948,27.072-94.242,41-51.949,23.124-106.461,42.318-162.271,53.68-43.307,8.814-88.29,19.228-123.828,47.017-9.721,7.6-20.417,16.968-26.785,27.726-4.383,7.392-7.035,15.526-11.713,22.842-9.46,14.777-22.8,26.62-33.579,40.408-7.9,10.119-18.809,23.22-22.066,35.929-3.311,12.908-1.216,24.786,4.981,36.321,6.19,11.514,15.924,19.86,23.515,30.344,23.817,32.879,28.97,77.532,31.78,116.772,1.388,19.352,3.936,38.32,6.616,57.534,2.088,14.969,3.428,29.513,11.019,42.915,4.225,7.461,11.472,14.983,20.912,11.108,5.764-2.363,10.882-8.147,16.027-11.754,7.557-5.29,13.98-10.9,22.9-13.829a140.158,140.158,0,0,1,37.962-7.309c33.332-1.464,70.415-1.821,100.381,15.031,11.253,6.32,21.626,14.812,32.336,22.087a330.387,330.387,0,0,0,28.358,17.388c11.438,6.176,25.336,6.773,38.045,6.849,7.138.041,14.619.556,21.605-.989,22.911-5.063,39.309-20.362,57.864-33.463,33.992-24,74.125-42.27,113.743-54.725,28.139-8.848,58.991-13.224,88.146-17.14,31.677-4.259,64.143-3.806,96.019-3.724,31.745.083,63.559-.618,95.3.069,18.906.412,38.409,2.349,56.607,7.674,12.606,3.689,23.632,11.5,34.6,18.438a246.07,246.07,0,0,0,45.821,22.546c30.8,11.322,63.854,21.729,96.376,26.545,13.2,1.958,26.62,1.848,39.941,1.614,15.278-.275,30.825-.446,45.753-3.916,19.826-4.61,39.851-10.27,59.52-15.642,7.014-1.924,13.6-5.036,20.218-7.99,4.5-2.013,11.349-4.122,14.949-7.385C1281.743,617.257,1271.83,582.531,1267.213,561.757Z" transform="translate(152.162 184.424)"/><path class="b" d="M1043.659,573.96c3.943,2.109,8.072,1.869,12.352,1.841a122.63,122.63,0,0,0,29.21-3.462c12.489-3.119,28.5-6.938,36.9-17.559,7.845-9.927-.776-21.921-4.087-32.157-2.212-6.822-6.492-13.513-7.77-20.589-2.329-12.936-2.006-25.789-6.2-38.43-7.433-22.409-19.819-41.775-30.248-62.742-4.981-10.009-10.648-19.647-15.21-29.856-3.662-8.189-9.5-14.777-14.214-22.32-10.744-17.181-8.477-38.677-7.557-58.194.763-16.213,1.642-32.206,1.711-48.459a345.687,345.687,0,0,0-5.8-64.535c-3.016-16.467-5.867-32.707-7.35-49.394-1.2-13.424-.934-26.785-.962-40.236a200.671,200.671,0,0,1,1.793-29.313c1.388-9.728,3.6-19.579-1.662-28.365C1013.342,11.449,986.214,10.2,967.1,10.2c-16.357,0-32.206.838-48.26,3.9-15.883,3.036-31.429,7.309-47.374,10.153-25.954,4.63-51.152,11.06-77.5,13.657-13.925,1.374-28.022,2.762-42.009,1.958C731.6,38.709,712.419,33.5,693.2,27.058c-27.932-9.37-56.415-19.7-85.494-24.752a160.909,160.909,0,0,0-47.766-.989c-17.628,2.178-33.2,9.467-48.913,17.319-6.087,3.043-13,6.4-18.219,11.074-5.118,4.582-9.178,11.047-13.664,16.082-6.121,6.863-12.764,13.273-19.27,19.778-12.274,12.255-25.7,22.69-41.584,29.883-22.464,10.167-45.808,18.438-68.924,26.922-47.614,17.477-94.59,36.025-142.981,51.352-15.622,4.946-31.361,9.4-46.749,15.052-14.317,5.249-29.416,9.487-43.52,15.2-13.142,5.324-23.536,13.19-35.338,20.795-12.654,8.161-25.652,16.515-37.694,25.555-9.5,7.131-19.077,14.825-24.326,25.782C7.752,299.08,4.839,325.494,1.865,350.459A264.772,264.772,0,0,0,.037,386.381c.227,13.3,3.737,24.69,7.873,37.241,2.837,8.608,4.61,16.467,4.589,25.665-.028,8.278-.089,15.065,2.569,23.048,2.4,7.193,4.39,14.028,11.308,17.985A298.233,298.233,0,0,0,54.37,503.861c13.272,5.812,28.3,11.246,43.032,10.943,8.738-.185,17.408-1.951,26.091-2.858,11.651-1.216,23.344-.522,35.008-1.683,11.644-1.154,23.687-2.24,35.063,1.106,9.941,2.927,19.648,6.465,29.691,9.171,8.47,2.288,16.5,5.3,24.772,8.182,9.714,3.394,20.135,4.04,30.337,4.788,26.565,1.931,53.79-3.881,79.394-10.428,33.421-8.539,63.951-25.542,97.18-34.768,18.191-5.056,36.121-10.572,54.766-13.739,21.578-3.675,43.554-6.417,65.448-6.98,22.959-.6,45.979-.034,68.945-.089,24.656-.055,48.83.062,73.355,2.556A799.717,799.717,0,0,1,828.346,488.85c23.337,5.736,45.375,15.986,68.9,21.021,7.68,1.642,14.942,4.72,22.691,6.121,6.354,1.147,10.992,3.449,16.865,5.716,4.342,1.676,7.289,2.191,10.792,5.1,3.689,3.071,8.182,4.3,12.05,7.028,3.888,2.741,6.485,6.835,10.511,9.508,3.236,2.15,6.836,3.256,10.174,5.255a72.669,72.669,0,0,1,11,7.928c5.578,4.809,12.036,5.008,19.174,5.221C1024.21,562.151,1035.429,569.57,1043.659,573.96Z" transform="translate(249.196 248.31)"/><path class="b" d="M963.855,132.985c6.327-1.01-3.875,9.46-1.058,13.437,2.288,3.222,1.869,10.641,2.054,14.069.79,14.529,3.614,28.585,3.531,43.176-.062,11.294.934,23.082-.433,34.3A133.112,133.112,0,0,0,966.6,256.55c.117,9.13-1.683,17.642-1.958,26.634-.3,9.769,3.779,20.829,6.224,30.255,2.425,9.35,7.625,16.24,12.276,24.395,4.527,7.941,12.318,12.352,18.734,18.624,8.36,8.175,14.323,17.092,20.087,27.163,10.524,18.4,21.262,36.691,24.5,58a208.619,208.619,0,0,1,2.15,32.054c0,8,.976,15.924-5.159,22.2-5.647,5.778-12.881,6-20.479,4.843-12.235-1.869-25.549-7.193-36.238-13.3-11.033-6.318-21.7-13.053-32.533-19.669-4.17-2.542-7.667-5.832-11.933-8.257-8.065-4.589-16.92-8.134-25.288-12.111-7.838-3.73-15.663-7.206-23.694-10.5-6.863-2.8-13.739-7.282-20.994-8.965-10.868-2.514-22.4-3.208-32.549-8.326-8.67-4.376-17.71-9.116-25.253-15.251-5.681-4.623-10.5-9.6-17.085-13a81.753,81.753,0,0,0-29.107-8.683c-28.1-3.188-56.47.131-84.388-3.38-9.2-1.154-18.246-2.315-27.4-3.923-6.712-1.175-13.575-1.752-20.2-3.353-7.591-1.827-13.987-5.276-20.891-8.731-10.854-5.434-13.746-12.86-15.7-24.257-1.635-9.563-6.306-13.547-15.175-16.46-8.168-2.686-18.033-6.251-26.758-4.548-9.872,1.937-12.915,8.745-14.852,18.116-1.985,9.632-4.349,16.563,3.579,23.66,3.95,3.531,7.838,6.547,9.666,11.953,2.219,6.54-.859,12.572-6.513,15.917-3.359,1.992-7.364,4.129-11.218,4.9-5.461,1.092-11.17-.707-16.584.55-3.5.811-6.7,2.432-10.215,3.243-3.7.852-7.639,1.381-11.39,2.137-8.766,1.759-17.724,4.713-26.71,4.843-11.8.178-22.56,5.118-34.445,5.317-6.547.11-13.156-.838-19.682.165q-5.657,1.247-11.225,2.858l-11.576.763c-4.7.666-10.6,1.333-14.935,3.332-3.943,1.821-7.021,5.07-10.854,7.165-5.036,2.748-9.941,5.187-14.825,8.23-22.787,14.214-48.329,25.9-75.65,26.339-14.839.241-30.206,1.58-44.283-3.682-7.509-2.8-15.1-5.551-22.973-7.172-9.137-1.882-18.335-1.443-27.61-1.868-10.737-.495-21.557-1.161-32.164-3.016-8.216-1.436-16.371-3.957-24.642-5.063-12.8-1.7-26.3.089-39.2-.179-10.483-.213-22.766-.955-31.725-7.069-3.772-2.569-8.608-5.922-10.868-9.927-5.2-9.2-3.5-21.056-9.212-30.282-8.553-13.788-26.1-22.5-31.134-38.347-1.717-5.42-1.628-11.225-3.139-16.714-1.113-4.026-2.755-8.12-3.27-12.29-.728-5.888,1.635-10.992,3.359-16.46,1.58-5.029,1.456-8.649,1.594-13.822.247-9.054,2.769-19.057,5.6-27.548,2.2-6.609,5.441-12.372,8.415-18.624,3.71-7.811,6.609-15.965,10.724-23.6a51,51,0,0,1,28.867-24.161c15.526-5.242,31.731-10.84,47.724-14.392,9.013-2.006,17.992-2.267,26.943-4.919,6.856-2.027,13.479-4.836,20.328-6.87,8.944-2.659,18.04-4.4,26.957-7.234,11.685-3.71,22.121-8.56,33.277-13.527,9.494-4.218,19.174-7.687,28.551-12.194,8.635-4.143,17.188-8.539,25.975-12.359,14.289-6.2,26.5-15.876,41.4-20.884,8.993-3.023,18.129-5.29,27.012-8.683,7.673-2.927,15.361-7.035,23.474-8.6,5.345-1.037,9.515-.5,14.694-.508a108.935,108.935,0,0,0,33.215-5.482,195.2,195.2,0,0,0,49.744-25.975c5.812-4.17,11.789-7.316,16.611-12.647,4.156-4.6,8.649-7.825,13.245-11.919,6.911-6.155,12.462-12.991,19.895-18.713,8.2-6.3,16.384-10.586,26.813-10.978,14.9-.563,31.525,3.524,44.942,10.071,5.51,2.693,9.178,6.554,13.664,10.634,7.983,7.261,14.619,9.439,25.418,11.019,24.1,3.531,48.363.818,72.517-.158,21.131-.859,42.036-1.731,63.209-1.745,4.582,0,10.408.6,15.134.124,5.977-.611,11.782-3.339,17.408-5.358,13.3-4.774,27.081-5.846,40.676-9.59,11.995-3.3,23.344-5.633,34.459-11.438A45.178,45.178,0,0,1,883.753.158c13.8.11,27.665-.405,41.459,0,6.794.2,12.853,1.436,16.982,7.289,4.726,6.7,2.748,13.588,3.854,21.056.426,2.865,1.25,5.887,1.779,8.766.529,2.837.653,6.574,1.47,9.253.467,1.546,1.436,2.714,2.075,4.19,1.353,3.133,1.072,5.585,1.216,8.855C952.794,64.1,956,67.2,956.174,71.74c.192,5.372,2.459,9.1,3.916,14.316a38.217,38.217,0,0,1,1.182,10.5c.11,5.091,3.27,8.807,3.579,13.575Z" transform="translate(289.616 298.594)"/><path class="b" d="M611.958,17.441c13.231,12.373,40.8,8.319,57.184,7.5,20.925-1.058,45.849-1.608,65.874-7.371,18.074-5.2,31.752-9.37,50.294-11.143C801.522,4.876,813.139-6.4,826.927,5.137c20.321,17.009,22.217,48.226,29.629,71.872,6.691,21.351,5.283,38.979,4.589,61.388-1.271,41.026,6.492,81.75,3.119,122.9-2.542,30.976,17.965,53.227,28.4,80.514,3.648,9.528,12.434,25.878,3.38,34.48-12.572,11.933-37.523-4.582-48.226-9.528C807.162,347.946,777,313.15,732.515,302.7c-33.971-7.983-67.138-22.169-102.078-18.755-29.059,2.844-50.713-7.577-77.436-19.984-15.526-7.206-22.9-15.725-40.69-15.793-21.956-.076-32.865-2.1-46.831,16.034-7.076,9.178-8.024,14.014-8.992,24.992-.708,8.072.076,22.306-6.32,28.461-7.193,6.9-22.918,3.909-32.357,4.781-28.743,2.665-56.607,9.384-84.354,17.312-19.029,5.434-39.948,9.872-56.978,20.389-15.251,9.425-20.238,14.633-39.762,15.141-52.251,1.367-103.953-9.563-155.909-12.365-13.334-.722-32.13-.886-43.6-8.773-8.814-6.066-9.535-15.464-14.392-24.147-3.905-6.993-9.978-12.322-14.23-19.117-9.054-14.461-9.8-29.176-7.447-45.76,2.432-17.161-.927-41.555,8.883-56.614,13.08-20.094,45.43-31.635,68.189-35.015,37.461-5.565,74.963-16.33,110.809-28.736,24.759-8.574,38.7-22.2,60.8-34.617,22.973-12.915,51.029-15.663,76.165-23.6,27.878-8.8,74.18-13.19,96.321-33.792,14.557-13.54,19.613-21.125,42.242-23.886,30.172-3.682,62.879,15.766,90.654-4.019C569.723,16.355,585.846-.675,611.958,17.441Z" transform="translate(345.68 338.014)"/><path class="b" d="M221.56,92.34c26.455-15.657,59.581-20.04,89.224-27.64,27.053-6.939,53.674-20.644,78.254-33.676,11.974-6.355,24.14-12.324,37.523-15.155,12.963-2.748,26.249-.673,39.371-1.312C499.985,12.9,534.512,5,568.47,5.279c16.323.138,32.24,4.706,48.762,5.654,19.167,1.1,38.223,3.909,57.431,4.513,13.794.44,26.339-1.113,39.384-5.723C724.372,6.083,736.394-2.319,748,.608c21,5.3,28.613,45.67,32.24,63.222,5.908,28.585,4.19,58.558,9.364,87.336,3.559,19.764,5.853,38.6-5.729,55.727-14.131,20.9-34.685,29.918-59.739,27.307-17.587-1.841-35.091-8.594-51.455-15.017-18.013-7.076-34.637-18.617-53.227-23.749-16.584-4.575-32.46-3.421-49.318-4.122-16.391-.68-31.2-6.925-46.893-11.1-39.934-10.621-90.145-16.123-130.5-5.448-31.044,8.21-22.478,42.806-44.736,59.54-32.061,24.113-80.631,25.549-118.476,31.5-23.921,3.758-46.282,12.043-69.089,19.8-18.548,6.313-36.856,12.159-55.776,4.644-18.445-7.323-36.6-16.02-54.773-24.092-14.3-6.348-32.576-13.959-41.878-27.507C-7.861,215.544.644,179,26.55,168.239c16.913-7.021,36.4-8.69,53.811-14.5,11.761-3.923,22.869-10.291,34.493-14.873,16.062-6.32,25.253-13.217,38.938-23.632C166.835,105.3,199.357,105.475,221.56,92.34Z" transform="translate(384.751 388.331)"/><path class="b" d="M299.9,28.668c-15.306,2.191-24.436,17.793-36.74,23.426-7.151,3.277-14.887,1.882-22.519,3.05-13.156,2.02-26.146,7.715-38.3,12.977-16.632,7.2-31.58,17.3-48.569,23.776-16.735,6.375-34.5,9.247-51.29,15.471-18.693,6.925-37.571,14.921-55.769,23.048C33.779,136.193,3.023,147.659.289,164.483c-3.27,20.1,21.915,35.269,38.594,38.134C50.445,204.6,60.75,197.76,71.24,194.5c10.456-3.243,21.1-1.491,31.759.35,11.761,2.027,21.915,6.856,33.93,6.986a103.678,103.678,0,0,0,33.456-5.1c11.624-3.723,19.833-9.26,29.677-15.972,9.384-6.41,19.977-9.522,30.151-14.509,19.1-9.377,30.584-23.021,43.218-39.343,22.547-29.114,63.806-37.4,98.561-37.887,35.956-.508,68.725,8.828,103.473,16.522,41.246,9.13,84.306,8.773,126,16.8,20.822,4,52.519,14.543,73.665,7.158,18.562-6.485,15.155-34.17,14.88-49.476-.447-25.054-6.966-101.377-47.786-74.317-16.158,10.71-25.274,12.75-44.99,9.2-26.126-4.7-52.148-6.423-78.357-9.721C492.03,1.823,465.2,3.417,438.15,3.966c-21.42.433-42.057,5.764-63.319,7.742-4.919.453-8.869.488-13.568-1.367C343.565,3.366,318.174,26.05,299.9,28.668Z" transform="translate(445.619 431.854)"/><path class="b" d="M38.422,66.619c3.016-4.026,3.057-2.308,6.774-4.342,17.119-9.35,40.051-17.078,58.95-22.1,14.2-3.778,28.482-6.4,42.483-11.136,13.877-4.7,24.058-12.606,36.822-19.373,13.1-6.939,50.026-21.076,40.827,7.57-6.08,18.947-32.343,34.431-49.243,41.356-11.232,4.6-18.212,7.859-27.589,15.375a77.231,77.231,0,0,1-28.475,14.5c-17.174,4.548-36.932,1.9-54.711,2.666-8.175.357-18.727-1.683-26.428,1.236-6.018,2.288-9.487,6.987-16.378,8.162C7.467,102.925-4.692,92.367,1.793,80.351,8.882,67.217,31.333,76.092,38.422,66.619Z" transform="translate(475.387 518.458)"/><path class="b" d="M61.133,8.677c11.479-1.594,25.219-2.37,36.753-3,21.509-1.168,42.936-2.768,64.438-4.122C190.807-.24,218.162-1.594,246.28,4.094c21.571,4.369,42.97,3.194,64.912,1.408,8.154-.659,16.075-1,24.3-1.408,7.145-.35,14.633-3.1,21.763-1.408,11.424,2.707,12.379,7.811,13.43,17.827.783,7.522,3.826,16.611.831,24.017-5.1,12.627-21.715,14.887-33.105,17.236-20.994,4.328-45.636,2.81-66.788.117-38.4-4.9-74.75-19.015-112.925-24.106C134.118,34.5,107.25,27.6,82.5,31.5,61.217,34.852,42.958,47.9,22.115,50.8c-5.558.776-18.081.337-21.358-6.217-3.394-6.76,5.386-13.334,10-17.6C23.452,15.251,43.553,11.115,61.133,8.677Z" transform="translate(725.598 466.498)"/></g></svg>