<svg xmlns="http://www.w3.org/2000/svg" width="407.913" height="54.888" viewBox="0 0 407.913 54.888"><g transform="translate(-669.287 -337.609)"><path d="M1074.292,342.534c-52.749,12.726-105.948,20.782-159.308,17.219-27.054-1.8-47.823-5.433-74.872-7.44-26.807-1.989-53.827-3.358-80.619-.272-30.1,3.467-59.833,12.255-89.74,18.389-.615.126-.624,1.723,0,1.6,26.262-5.386,52.372-12.736,78.729-16.879,26.679-4.2,53.534-3.595,80.288-2,27.052,1.614,54.059,4.7,81.082,7.254,26.577,2.514,46.959,2.34,73.533-.18,30.531-2.893,60.924-8.849,91.168-16.147.622-.149.356-1.687-.259-1.539" transform="translate(0 5.375)" fill="#fff"/><path d="M1032.5,354.535q-9.4.716-18.814.992c1.626-.446,3.253-.911,4.878-1.371q6.968.1,13.936.379m-20.619-.44q-3.024.82-6.048,1.612c-11.843.174-23.692-.058-35.538-.481q9.015-.484,18.033-.787,11.776-.377,23.554-.343m-59.465,2.255c9.173.436,18.349.825,27.523,1.066q9.106.239,18.215.243c-32,7.911-64.131,13.055-96.362,13.092-26.04.029-52.07-1.727-78.1-2.506q3.4-.27,6.789-.551c40.651-3.412,81.276-8.447,121.936-11.345m121.071-.366q-9.389-1.19-18.783-1.968,3.959-.568,7.915-1.239c.555-.094.559-1.987,0-1.89-5.766.986-11.533,1.784-17.3,2.437q-10.322-.666-20.648-.917,10.35-3.015,20.681-6.285c.553-.174.318-2-.23-1.823q-13.324,4.211-26.683,7.986c-22.065-.312-44.137.613-66.2,2.177-12.927-.613-25.854-1.323-38.771-1.855-49.979-2.056-99.967.89-149.952-.22-6.718-.149-13.471,0-20.179-.881-6.881-.909-13.72-3-20.535-5.211-.569-.184-1.141-.373-1.71-.559,35.482-2.468,70.989-3.075,106.488-3.069,47.765.006,95.529,1.114,143.293.255,24.793-.446,49.584-1.445,74.362-3.387.559-.044.561-1.936,0-1.892-47.687,3.741-95.411,3.929-143.123,3.609-47.762-.318-95.531-1.135-143.291.6q-21.231.772-42.455,2.33c-11.009-3.6-22.049-6.954-33.211-6.542-.559.021-.561,1.913,0,1.892,9.553-.354,19.021,2.043,28.454,5.008q-13.578,1.08-27.15,2.558c-.559.063-.561,1.955,0,1.893q15.955-1.752,31.921-2.912,1.667.546,3.337,1.1c5.726,1.894,11.455,3.724,17.216,5.041,6.092,1.394,12.178,1.637,18.3,1.834,25.054.8,50.109.507,75.163.157,24.962-.347,49.927-.86,74.889-.023,10.683.36,21.364.883,32.044,1.417q-10.8.892-21.6,1.92c-37.979,3.59-75.953,8.068-113.953,10.352-12.156-.006-24.313.375-36.472,1.413q-3.712.056-7.421.075c-28.413.1-56.836-1.773-85.16-6.764-.559-.1-.555,1.794,0,1.893a469.434,469.434,0,0,0,75.718,6.682,244.744,244.744,0,0,0-68.446,19.469c-.548.251-.314,2.075.232,1.823C708.383,379.611,737,373.634,765.7,371.161c12.737-.186,25.473-.731,38.208-1.518q7.813-.006,15.621.163c23.269.484,46.531,1.924,69.8,2.577a368.61,368.61,0,0,0,71.163-4.895c15.179-2.531,30.326-5.922,45.441-9.885,13.166-.195,26.329-.9,39.474-2.393,9.364.609,18.724,1.48,28.076,2.665.561.071.557-1.821,0-1.893" transform="translate(3.296 0)" fill="#fff"/><path d="M1071.947,338.7c-54.262,1.12-108.521,2.621-162.785,3.429-27.066.4-47.9.636-74.965.538-26.426-.094-52.86-.4-79.275,1.07-28.255,1.568-56.494,5.345-84.358,13.344-.62.178-.356,1.715.26,1.539,52.351-15.027,105.611-14.608,158.582-14.376,54.17.239,102.1-.785,156.266-2.005,28.758-.647,57.516-1.348,86.275-1.941.628-.013.63-1.608,0-1.6" transform="translate(1.011 1.198)" fill="#fff"/><path d="M1033.88,347.781c-48.216,1.118-90.195,2.619-138.413,3.427-24.05.4-48.1.636-72.155.538-23.482-.094-46.969-.4-70.443,1.07-25.107,1.568-50.2,5.345-74.961,13.344-.551.178-.316,1.715.23,1.539,46.521-15.027,93.846-14.608,140.915-14.376,48.135.239,90.033-.785,138.162-2.006,25.555-.647,51.11-1.348,76.664-1.941.559-.013.559-1.608,0-1.6" transform="translate(9.083 11.123)" fill="#fff"/></g></svg>