<svg xmlns="http://www.w3.org/2000/svg" width="76.533" height="55.166" viewBox="0 0 76.533 55.166"><path d="M74.259,119.089c-5.606-7.9-22.8-32.322-22.8-32.322a2.48,2.48,0,0,0-3.721-.381L43.233,90.6,32.661,70.981a2.483,2.483,0,0,0-2.151-1.3,2.444,2.444,0,0,0-2.185,1.244l-28,48.7A2.48,2.48,0,0,0,2.48,123.34H72.471a.208.208,0,0,1,.048,0A2.479,2.479,0,0,0,75,120.86,3.084,3.084,0,0,0,74.259,119.089ZM44.274,96.425l4.772-4.47,9.488,13.451-8.05-8.385a.7.7,0,0,0-1-.01l-5.741,5.734a.7.7,0,0,1-1.189-.5l.022-5.214A2.442,2.442,0,0,0,44.274,96.425ZM30.406,77.257l6.155,11.42-4.622,4.077a.695.695,0,0,1-1.007-.091L27.969,88.9a.7.7,0,0,0-1.138.061l-4.479,7.142a.7.7,0,0,1-1.24-.114l-.6-1.521Z" transform="translate(0.783 -68.925)" fill="none" stroke="#fff" stroke-width="1.5" opacity="0.749"/></svg>