<svg xmlns="http://www.w3.org/2000/svg" width="58.918" height="56.905" viewBox="0 0 58.918 56.905"><g transform="translate(0.789 0.75)" opacity="0.749"><g transform="translate(0 22.06)"><path d="M42.179,207.74l2.667-6.065a7.966,7.966,0,0,1-1.445-.21c-2.783-.7-4.864-2.887-6.308-5.25H34.344a4.32,4.32,0,0,1-.546,3.578L28.35,208.1a4.35,4.35,0,1,1-7.274-4.773l2.678-4.086-3.085-1.423a4.31,4.31,0,0,1-1.836-1.606h-1.8a7.537,7.537,0,0,0-4.923,1.854c-1.853-1.276-8.669-5.342-10.875,2.159-2.309,7.844,3,9.179-1.032,12.734a.6.6,0,0,0,.586,1.013c1.915-.648,4.48-2.655,5.4-8.625.619-4.032,2.6-5.449,4.292-5.323a7.5,7.5,0,0,0,1.169,9.149l-2.9,4.439-.154.234a1.939,1.939,0,0,0-.313,1.168l.7,12.7a1.4,1.4,0,0,0,2.784.175l1.4-7.625,2.239,7.763a1.405,1.405,0,0,0,2.753-.452l-.51-11.374,3.311-4.8h10.69l2.211,4.423-1.789,11.586a1.506,1.506,0,0,0,2.893.772l3.676-9.515,1.821,9.308a1.438,1.438,0,0,0,2.848-.358Z" transform="translate(0.002 -195.819)" fill="none" stroke="#fff" stroke-width="1.5"/></g><path d="M232.575,15.384a3.623,3.623,0,1,0-3.623-3.623A3.622,3.622,0,0,0,232.575,15.384Z" transform="translate(-202.041 -8.138)" fill="none" stroke="#fff" stroke-width="1.5"/><g transform="translate(20.07 3.872)"><path d="M207.057,52.44l-6.6-5.537.563-5.23a.538.538,0,0,0-.906-.446l-3.03,2.9-2.159,4.833L191.5,54.09c.983,2.48,2.411,4.814,3.995,5.209a3.992,3.992,0,0,0,2.97-.857l1.292-2.941,3.269,1.462c-3.053,3.356-5.748,4.779-8,4.207-3.428-.857-5.509-6.308-6.3-9.371a1.579,1.579,0,0,0-.006-1,1.616,1.616,0,0,0-2.071-.963l-4.254,1.552-1.439-3.174,0,0a2.712,2.712,0,0,0-1.611-3.512l-.3-.108a2.713,2.713,0,0,0-3.4,1.448c-1.041,2.33-2.766,6.163-4.668,10.263a2.421,2.421,0,0,0,1.185,3.213l5.117,2.36-3.906,5.957a2.421,2.421,0,1,0,4.049,2.657l5.449-8.308c.388-.589.982-2.614-.887-3.464-1.215-.553-4.229-1.958-4.229-1.958l1.594-4.259c.8,1.757,1.06,2.525,2.019,2.525.913,0,2.482-.705,5.727-1.908.917,3.137,3.146,8.841,7.46,9.923a5.97,5.97,0,0,0,1.456.18c2.759,0,5.773-1.888,8.984-5.586a2.584,2.584,0,0,0,2.514-1.541l.258-.576A2.622,2.622,0,0,0,207.057,52.44Z" transform="translate(-170.751 -41.077)" fill="none" stroke="#fff" stroke-width="1.5"/></g></g></svg>