<svg xmlns="http://www.w3.org/2000/svg" width="47.819" height="65.129" viewBox="0 0 47.819 65.129"><g transform="translate(0.75 0.75)" opacity="0.754"><path d="M111.756,32.131c-1.228-3.307-4.921-13.228-4.921-13.228a4.172,4.172,0,0,0-5.382-2.465l-3.506,1.323-5.57,1-5.784-5.591a2.045,2.045,0,0,0-1.671-.551L79.179.769a1.042,1.042,0,0,0-1.4-.486A1.059,1.059,0,0,0,77.295,1.7L83.209,13.9a2.114,2.114,0,0,0,.48,2.319L84.9,17.387l7.668,15.83L90.7,39.159,88.067,37.34a4.156,4.156,0,0,1-1.737-2.726l-2.036-11.9a4.16,4.16,0,0,0-.438-1.274L79.9,14.082,76.39,1.229A1.664,1.664,0,0,0,74.788,0h-7.3A1.666,1.666,0,0,0,65.83,1.672V61.693a1.666,1.666,0,0,0,1.659,1.672h34.754a1.659,1.659,0,0,0,1.442-.844,1.683,1.683,0,0,0-.012-1.679L97.709,50.676a4.212,4.212,0,0,1-.328-.7L95.057,43.5A3.155,3.155,0,0,0,96.5,41.707l.065-.214,10.437,21.543a1.042,1.042,0,0,0,1.4.486,1.06,1.06,0,0,0,.483-1.412l-5.242-10.822c.041,0,.08.021.123.021a3.123,3.123,0,0,0,.725-.086,3.169,3.169,0,0,0,2.339-3.812l-1.765-7.524,5.636-3.43C111.811,35.783,112.5,34.147,111.756,32.131Zm-22.473-10.5.959.928a2.085,2.085,0,0,0,1.823.556l6.914-1.247,2.639,7.095-4.47-.929a3.143,3.143,0,0,0-3.635,2.151l-.035.108Zm8.2,16.936,1.172-3.75,1.923.4-.727.443A3.175,3.175,0,0,0,98.42,39.1l.633,2.7Z" transform="translate(-65.83)" fill="none" stroke="#fff" stroke-width="1.5"/><path d="M290.777,58.237a4.74,4.74,0,1,0-4.742-4.741A4.741,4.741,0,0,0,290.777,58.237Z" transform="translate(-257.759 -42.439)" fill="none" stroke="#fff" stroke-width="1.5"/></g></svg>