<svg xmlns="http://www.w3.org/2000/svg" width="68.226" height="67.127" viewBox="0 0 68.226 67.127"><g transform="translate(0.929 0.75)" opacity="0.749"><path d="M65.724,63.4a2.208,2.208,0,0,0-3.122,0,1.782,1.782,0,0,1-2.514,0,6.372,6.372,0,0,0-7.425-.956l4.254-9.713a1.76,1.76,0,0,0-1.85-2.452L36.051,52.868V4.916a2.206,2.206,0,0,0-4.411,0V6.333L6.963,43.6a2.345,2.345,0,0,0,1.956,3.642H31.64v6.229L11.995,56.139A1.762,1.762,0,0,0,10.667,58.7l1.663,3.2a6.3,6.3,0,0,0-6.046,1.5,1.786,1.786,0,0,1-2.518,0A2.206,2.206,0,0,0,.647,66.522a6.2,6.2,0,0,0,8.754,0,1.82,1.82,0,0,1,2.509,0,6.332,6.332,0,0,0,8.75,0,1.835,1.835,0,0,1,2.51,0l.131.127a6.182,6.182,0,0,0,8.627-.127,1.824,1.824,0,0,1,2.508,0l.131.125a6.334,6.334,0,0,0,8.625-.121,1.814,1.814,0,0,1,2.511,0,6.331,6.331,0,0,0,8.754,0,1.824,1.824,0,0,1,2.512.005,6.206,6.206,0,0,0,8.752,0A2.208,2.208,0,0,0,65.724,63.4Z" transform="translate(0 -2.71)" fill="none" stroke="#fff" stroke-width="1.5"/><path d="M279.147,61.1h10.124a1.761,1.761,0,0,0,1.605-2.487l-12.222-27.1a.663.663,0,0,0-1.268.274V59.339A1.761,1.761,0,0,0,279.147,61.1Z" transform="translate(-239.473 -27.243)" fill="none" stroke="#fff" stroke-width="1.5"/></g></svg>