<svg xmlns="http://www.w3.org/2000/svg" width="61.159" height="65.07" viewBox="0 0 61.159 65.07"><g transform="translate(0.752 0.75)" opacity="0.749"><path d="M237.176,10.062a5.031,5.031,0,1,0-5.031-5.032A5.033,5.033,0,0,0,237.176,10.062Z" transform="translate(-204.32)" fill="none" stroke="#fff" stroke-width="1.5"/><path d="M128.689,294.16l-6.038-5.543.268-2.04-9-.552a31.086,31.086,0,0,1-2.208,2.967l-2.462,9.3-7.054,9.477a3.19,3.19,0,1,0,5.118,3.81l7.422-9.971a3.181,3.181,0,0,0,.525-1.088l2.135-8.062,5.845,5.366-.8,11.632a3.189,3.189,0,0,0,2.964,3.4c.073.005.147.007.222.007a3.189,3.189,0,0,0,3.178-2.972l.9-13.163A3.19,3.19,0,0,0,128.689,294.16Z" transform="translate(-90.512 -249.294)" fill="none" stroke="#fff" stroke-width="1.5"/><path d="M151.717,48.846h-8.99l-5.07-7.2.017-.123a5.212,5.212,0,0,0-8.556-4.654V30.882a1.867,1.867,0,0,0-1.867-1.866h-5.172a1.867,1.867,0,0,0-1.867,1.866v2.907h-1.545a3.336,3.336,0,0,0-3.1,4.56l4.646,11.8v2.917a5.141,5.141,0,0,0,1.525,3.651,3.2,3.2,0,0,1,2.636-1.181l11.374.7.891-6.8,2.538,3.6a2.658,2.658,0,0,0,2.173,1.128h10.369a2.659,2.659,0,0,0,0-5.318Z" transform="translate(-102.507 -25.29)" fill="none" stroke="#fff" stroke-width="1.5"/><path d="M38.028,251.119l10.563.649a1.565,1.565,0,0,0,1.691-1.495,1.594,1.594,0,0,0-1.5-1.69l-11.545-.709a1.573,1.573,0,0,0-1.516.865c-.262.51-6.52,12.434-18.433,10.757a1.6,1.6,0,0,0-.444,3.159,19.285,19.285,0,0,0,2.683.191C29.955,262.847,36.234,254.041,38.028,251.119Z" transform="translate(-15.476 -216.039)" fill="none" stroke="#fff" stroke-width="1.5"/><path d="M354.636,235.188a14.578,14.578,0,0,0-8.547-2.374c-4.555.061-8.809,3.563-8.886,3.649a2.135,2.135,0,0,0,3.178,2.852l.015-.017s2.5-2.622,4.728-3.2l-.748,27.719v.128a2.373,2.373,0,0,0,4.744-.128l-.764-28.408a13.716,13.716,0,0,1,5.617,1.148.762.762,0,0,0,.93-.321A.782.782,0,0,0,354.636,235.188Z" transform="translate(-295.411 -202.914)" fill="none" stroke="#fff" stroke-width="1.5"/></g></svg>