<svg xmlns="http://www.w3.org/2000/svg" width="635.416" height="248.083" viewBox="0 0 635.416 248.083">
  <g id="_x34_hzOzt_2_" transform="translate(0.004 -0.036)">
    <g id="Grupo_251" data-name="Grupo 251" transform="translate(-0.004 0.036)">
      <path id="Trazado_3123" data-name="Trazado 3123" d="M256.716,231.2c-6.945-6.44-13.006-.379-19.32,1.389-4.041,1.136-7.324,4.167-11.617,4.293-.253-.253-.505-.631-.758-.884,2.147-1.01,4.42-2.147,6.566-3.157,4.42-2.147,11.112-2.652,7.45-10.481,2.273-.379,2.273-1.768,1.515-3.662-1.894-4.925-3.662-9.849-6.061-16.289-.253,2.778-.253,3.788-.379,4.8-2.778-4.293-4.041-9.344-7.576-13.511-7.2-8.334-14.9-16.416-19.825-26.644-4.546-9.471-3.915-12.122,4.8-18.31,1.642-1.136,3.031-2.4,5.556-4.42-8.208,0-15.153-.253-21.972.126-3.283.126-5.43,1.263-4.167,6.061,5.177,20.078,8.208,40.913,22.729,57.2,2.02,2.273,1.389,6.693,6.566,7.071,1.515.126,3.536,4.925,6.44,6.693.631.379.126,1.642-.884,1.768-4.293.253-1.515,3.283-1.263,4.42.505,2.4,2.4,1.263,3.915.631,1.894-.884,3.914-1.642,5.809-2.4-3.283,4.42-8.082,5.935-12.627,7.829-2.4,1.01-.884,1.642-.379,2.525l.126-.126c-5.3-1.642-9.471,1.642-13.89,3.409s-8.082,5.556-13.89,4.041c5.809-2.525,11.743-5.177,17.552-7.7,2.525-1.136,4.925-2.147,1.01-4.672,1.768-1.642,3.157-3.914,6.061-1.136,1.389,1.263,3.662,1.642,3.788-1.642.126-4.167-6.945-11.743-10.986-11.87-.126,4.167,5.556,5.809,4.8,10.86-2.147-1.263-3.788-2.273-5.43-3.283-2.525,6.566-10.1,5.556-14.269,9.849,1.642,2.525,3.662,1.642,5.935.631,2.652-1.136,5.051-3.157,8.334-2.525-6.44,5.556-14.648,7.576-22.1,10.86-2.02.884-5.556-2.9-9.092-2.273-.884.126-.758-1.642.253-2.273,1.389-.884.884-2.147,0-2.273-5.935-.758-7.7-5.3-9.723-9.976-.884-1.894-3.283-1.389-5.3-.631,2.273,5.556,7.576,8.713,10.481,13.638-6.819-3.914-12.754-8.965-14.648-16.921-.505-2.273-1.263-3.283-2.778-3.915a2.859,2.859,0,0,0-2.778.631c-.758.631.253,1.389.758,2.147,1.515,2.02,2.9,3.914,4.8,6.566a4.793,4.793,0,0,1-4.672-2.147c-3.914-4.293-7.576-8.839-12.88-11.743a7.509,7.509,0,0,1-3.914-6.819c6.061-2.273-1.136-4.8.126-7.2l.758-.758c2.525,3.031,4.925,6.187,8.208,10.228-2.02-10.481-2.02-10.86,2.273-13.259-1.389,12.249,5.809,21.34,22.1,27.023-4.041-1.515-5.3-5.43-8.082-8.082-1.894-1.894-2.147-3.409,1.263-3.157l.505.505c4.42,4.925,9.849,9.471,13.006,15.153,2.652,4.8,4.293,2.778,6.945,1.01,10.86-5.682,10.86-5.809,7.071-12.627-.884,1.136.505,3.283-1.136,3.788-3.157.884-1.263-3.915-4.42-4.167,1.642,4.672-1.515,8.587-1.263,13.006-4.041.631-3.788-2.273-2.778-4.167,2.147-4.167-.126-6.44-2.525-9.092-1.515-1.768-4.293-2.652-4.925-5.43,2.652-1.642,5.556,3.788,7.2-.126,2.147-5.051,3.915-2.652,6.187-.505.758.758,1.768,2.273,2.778,0,2.02-4.8,2.02-1.768,3.662.379a25.75,25.75,0,0,1,4.42,11.743c6.314-1.136,6.693-4.42,3.157-9.092-5.051-6.566-7.576-14.521-10.733-21.972-4.8-11.238-6.314-23.361-9.849-35.23-3.536,2.778-4.041,5.809-2.652,9.723a91.407,91.407,0,0,1,4.42,16.289c.631,3.915,3.409,8.082,0,13.259l-3.662-14.648c-1.263-4.672-2.652-9.218-3.914-13.89-7.576,8.082-7.829,9.344-2.652,18.183a47.775,47.775,0,0,1,2.778,4.167c2.147,4.8,6.566,8.208,7.324,13.89-6.44-7.45-13.006-14.648-16.289-24.5-6.44,5.051-12.754,9.6-20.583,11.112-2.652.505-4.041.505-4.546-2.9a31.5,31.5,0,0,1,1.515-14.521c2.02-6.566,8.334-10.86,9.471-17.931,1.136-6.819,5.051-12.88,5.3-20.33-17.426,6.693-33.336,15.784-50.762,20.835-1.515.379-3.157,1.515-2.02,3.662-5.809-3.662-11.238.631-16.921.884-1.515,0-1.389,1.263-1.01,2.273a49.4,49.4,0,0,0,4.041,7.7c10.228,14.9,23.739,26.9,36.114,39.9.631.758,1.515,1.642,3.157.253a119.707,119.707,0,0,1-23.361-44.07c2.4,2.273,4.546,3.662,5.3-1.515,4.546,9.849,8.587,19.446,13.511,28.538,3.283,6.061,3.283,13.89,9.849,18.183,2.02,2.652,3.914,5.43,6.693,7.324,1.136.758,2.4,2.273,1.136,3.662-1.389,1.515-2.4-.505-3.662-1.01-17.173-6.693-25.634-22.729-37.756-34.725-.253-.253-.631-.253-1.642-.505,2.147,3.031,4.8,5.177,5.177,8.587l-.631.631c-7.955-8.46-16.416-16.921-19.825-28.285-1.642-5.556-3.914-6.819-9.218-5.051,1.768,4.8,5.809,8.082,6.693,12.88-1.389-.379-2.9-.758-4.293-1.136-.126-.126-.505-.253-.505-.379-2.273-13.89-13.385-12.375-23.234-13.511-18.815-1.768-36.241-6.44-49.752-20.709A21.581,21.581,0,0,1,.127,125.128c-.758-5.177,1.768-6.945,7.2-6.819,4.546.126,7.955,1.894,11.617,4.041,21.845,12.375,45.332,16.794,69.956,12.627,14.521-2.525,27.528-9.6,40.281-16.794,15.784-9.092,31.19-18.815,42.554-33.715,8.965-11.87,17.3-24.371,23.739-37.63,10.733-21.972,29.043-31.19,51.393-33.968,21.719-2.652,43.691-5.3,65.536-3.788,16.668,1.136,33.336-1.389,49.878,0q21.4,1.7,42.807,3.031c17.3,1.01,35.357,3.536,51.267-7.071,9.6-6.44,19.951-6.061,30.053-2.273,11.491,4.42,23.234,5.682,35.357,6.061a202.551,202.551,0,0,1,27.528,2.4c2.778.505,5.3.379,7.7-2.4,3.409-3.788,7.576-7.45,13.638-6.187,3.409.758,6.693,1.894,7.955,5.3,1.768,4.925,5.051,7.576,9.471,9.976,10.481,5.809,19.825,12.88,20.835,26.391.126,2.273,1.263,3.914,2.526,5.556,5.682,7.324,6.187,12-.253,18.815-4.293,4.672-8.46,10.481-16.037,10.986-4.8.379-8.46-2.147-12.122-4.167A28.692,28.692,0,0,0,568.36,71.84c-6.44,0-13.006-1.642-19.7-.884-4.041.505-5.682,1.768-5.177,5.809,1.642,15.784,4.8,30.937,15.911,43.312,5.177,5.682,8.587,12.627,12.375,19.446,2.9-2.02,1.136-5.682,4.041-7.324,1.642,4.041-.253,7.955-1.136,11.491-1.389,5.051,8.208,2.652,5.177,6.314,1.894-5.935,3.283-14.016,8.082-20.835,2.147-2.9,1.768-.379,2.02,1.01-7.45,8.965-1.263,19.446-2.9,24.5.253-5.177,3.409-14.648,2.778-24.623,6.693,11.491,3.914,23.739,2.273,35.736-.505,3.662-1.263,7.324-1.642,11.112,8.839-17.678,7.576-38.008,14.774-56.192-1.894,11.238-4.546,22.35.126,34.094.126,0-.126-1.389.505-1.642,9.344-2.652,10.228-11.87,14.648-18.31.505-.631,1.01-1.263,1.894-2.4,1.136,3.536-1.389,5.3-2.273,7.45-1.01,2.273-2.273,4.546-3.409,6.693-6.693,13.638-13.638,27.275-17.931,42.049a28.952,28.952,0,0,0-1.01,8.082c0,2.02-.505,4.293-2.778,3.915-2.02-.379-2.147-3.157-1.894-4.8.884-4.925,2.4-9.723,3.409-14.648,1.389-6.566,2.4-13.132,3.157-19.825-5.3,17.173-7.45,35.1-15.405,51.772.631-10.354,3.662-20.583,1.515-31.19-2.273,4.293-.631,10.1-5.682,13.385.758-8.713,3.788-17.173,2.147-26.012,1.136-2.147,1.768-5.682-.126-6.061-3.409-.631-1.515,3.283-2.526,5.051-1.01,1.642-.884,3.536-.379,5.682.758-1.768,1.389-3.283,2.02-4.8,2.147,6.187-4.672,10.481-3.788,16.416-4.167,0-3.662,2.652-3.662,5.556.126,2.9-2.526,5.051-2.526,8.46,0,1.894-5.051,4.041-4.8,8.839,4.546-1.894,8.839-3.788,13.259-5.556-2.02,3.915-5.682,4.925-8.839,6.44-3.536,1.768-6.44,3.283-2.525,8.46-5.43-5.935-9.6-1.768-14.016.126-1.389.631-3.031,1.263-3.536-.758s1.263-2.273,2.778-2.525c7.071-1.136,10.986-5.177,11.238-12.5,6.819-5.935.505-12.627,1.515-16.542,1.768,4.041-1.263,10.354-1.389,16.668-1.136,1.263-3.788.884-3.662,3.536.126,1.136-.505,2.147-1.768,2.02-1.642-.126-.758-2.147-2.02-3.031-1.263,3.031-1.768,6.061-6.819,4.293-2.273-.758-5.935,3.031-9.092,4.546-1.263.631-3.283,2.273-4.293-.126-.884-2.4,1.136-2.525,2.9-2.9a8.485,8.485,0,0,0,3.536-1.263c1.515-1.01,3.914-1.01,4.041-3.283,0-.631-1.389-1.894-2.147-1.894-2.02,0-3.788.253-4.8,2.778-.884,2.4-12.754,4.672-15.027,3.031,3.662-1.515,7.7-1.642,10.733-4.546-1.263-2.02-2.02-4.546-4.42-5.809a4.577,4.577,0,0,0-2.4-3.915l.126.126c3.283-4.42,5.3.379,7.829,1.136-.505,2.147-1.263,4.167.631,6.187,1.01,1.136,1.642.253,2.526,0,3.788-1.263.126-3.788,1.01-5.556a7.283,7.283,0,0,0,.379-1.768c2.778,2.273,5.809,1.768,8.965,1.263a2.4,2.4,0,0,1,.126,2.273c-.631,1.263-4.8.631-2.147,3.662.884,1.01,1.894,2.9,4.041,1.136,1.894-1.642,3.283-2.9,2.147-5.809-2.4-5.935-4.546-12-6.693-18.057-.505-1.389-1.642-3.662.758-4.293,1.768-.505,2.526,1.642,2.652,2.9.758,7.071,9.723,12,5.809,20.456,1.01-4.42,1.894-8.839,3.031-13.132,1.894-6.44,1.136-11.112-4.546-16.289-9.218-8.334-18.562-15.911-29.3-22.224-12.5-7.324-23.234-16.921-33.336-27.275-2.9-2.9-5.43-3.157-8.839-2.525-9.092,1.642-17.678,4.8-26.644,7.071-2.9.758-2.9,2.4-2.778,4.672a146.059,146.059,0,0,0,4.041,26.644c2.9,12.754,4.8,25.886,9.723,38.261.505,1.136,1.389,2.525-.379,3.031-1.389.379-2.02-1.01-2.525-2.147-3.409-8.713-5.3-17.931-7.324-27.149-2.778-12.88-5.809-25.634-6.44-38.892,0-1.01.126-2.525-1.136-2.652-2.273,0-4.925.253-6.314,2.02-6.693,8.713-9.6,18.436-9.6,29.548a34.619,34.619,0,0,0,1.894,12c.758,2.147.758,3.788-1.768,1.01-.758-.758-1.389.379-1.389,1.136.253,7.7-1.894,15.405.758,23.108-4.167,1.389-3.788-2.147-4.167-4.293a78.665,78.665,0,0,1-.126-9.471c-.631.631-.884,1.768-1.01,1.768-2.778-.379-.631-3.157-2.147-4.42a142.966,142.966,0,0,1-.884,26.518c-.379,3.662-1.642,5.556-5.3,6.187-1.894.253-5.177,0-4.546,2.9.505,2.4,3.662,2.273,6.061,1.894,2.525-.379,5.177-2.02,7.45.505,0,1.642-4.041.253-2.4,3.157,9.976-3.914,11.491-6.693,8.587-15.784-.884-3.031-2.4-5.809-1.768-9.092,3.536.758,3.914-.884,3.031-3.788-.505-1.768-2.147-4.672,1.01-5.051,3.031-.379,1.01,2.778,1.642,4.167,2.525,6.44-.758,13.89,3.409,19.951l-.126-.126c2.147,4.672,4.546-.505,6.819.379-1.389,5.177,5.935,3.283,6.44,8.46C450.168,215.54,446,221.1,440.823,223.5c-1.515.758-3.409,2.273-4.293.379-1.389-2.778,2.02-1.642,3.031-2.652,2.147-1.894,5.682-1.768,7.45-5.177-7.955.379-13.385,5.556-19.951,8.082-2.652,1.01-5.682,3.409-2.778-2.273.631-1.263-.631-2.4-2.02-2.273-1.263.126-3.409-.758-3.157,1.768.126,1.389,1.01,2.652,2.147,5.051-3.536-2.02-5.935-3.409-5.3-6.945.379-2.02-.758-3.031-2.4-3.914,1.01-4.041,2.273-7.829,6.693-9.723,3.409-1.389,2.652-4.672,1.768-7.071a22.936,22.936,0,0,1-1.389-5.809c.126,3.031-2.652,4.546-3.662,7.071-1.768,4.42-.758,12.5-10.1,8.334-1.515-.758-1.515,2.4-3.409,3.031,3.788,1.136,6.314,4.041,10.1,4.041-.126,1.515-.126,2.652-2.525,2.147-10.354-2.147-19.951-11.743-22.1-22.224-.253-1.136-.505-2.147.758-2.652a1.76,1.76,0,0,1,2.525,1.01c.631,1.515,1.263,3.157,1.894,4.672,2.02,4.8,2.02,4.8,8.46,5.935-12.122-9.976-6.061-24.623-10.228-36.746-3.031.379-2.778,3.031-3.409,4.8-3.662,10.481-6.061,21.214-6.187,32.326,0,2.147,0,4.8,3.409,4.42a3.4,3.4,0,0,1,2.273.505c2.525,2.147,7.7,3.157,7.45,5.935-.253,3.915-4.672.631-7.2,1.515-6.44,2.273-13.259,3.915-19.572,6.44-3.536,1.389-5.556,1.136-6.945-2.273,4.8,1.389,5.809-1.768,7.071-5.682-3.662,1.894-7.7,1.01-9.976,4.42-7.7.884-14.648,4.167-21.972,6.314-2.4.758-5.051,3.283-8.208.253,2.4-1.894,5.051-2.147,7.576-2.9.758-.253,2.4-.379,2.02-1.768-.253-1.01-1.263-2.02-2.4-1.389-5.43,3.283-13.638,1.894-16.163,9.976a2.346,2.346,0,0,1-2.778,1.894A3.765,3.765,0,0,1,314.3,228.8c-.884-5.935-4.167-4.672-7.955-2.778-3.536,1.768-7.2,3.157-10.86,4.672-1.01.379-2.147.505-2.778-.505-.884-1.389.126-1.894,1.263-2.147,1.768-.253,2.147-1.389,1.263-2.652-.758-1.136-1.768-.505-2.778,0-4.42,1.894-8.713,3.788-13.132,5.556-2.273.884-4.546,2.4-7.7.631,2.525-1.389,4.293-3.031,1.01-4.925-1.642-1.01-3.662-2.652-2.273,1.389l-6.44,1.894c1.389-4.293-4.42-7.955-1.768-12.754,3.409,1.642,1.515,5.177,4.167,6.819.126-6.314,3.536-2.147,5.682-1.894l-.126-.126a15.285,15.285,0,0,0,5.556,5.051c1.642-5.935.758-10.86-3.031-15.405-3.031-3.662-.758-4.167,2.525-3.662.631,6.314,10.607,10.986,2.525,18.436a6.885,6.885,0,0,0,1.263.505c2.147,0,5.3-.758,5.3-2.273.126-5.43,3.788-10.986,1.136-15.784-3.031-5.556-3.662-11.743-6.566-17.173,0-1.642-.884-3.536,1.389-5.43,3.283,5.935,2.9,12.754,5.935,18.436,3.031-4.42,1.01-10.228,5.43-15.279-.253,2.525-.505,3.788-.631,5.177,2.147-.379.884-2.9,2.778-3.157.884,1.515-.126,2.9-.253,4.167-.126,4.925-5.3,8.334-3.914,13.764.884,3.157,1.389,6.314,2.02,9.6.126.505,0,1.389-.884,1.263-1.894-.505-1.642-2.4-3.283-4.546,1.136,3.409-2.273,5.556.379,8.082,3.409-1.642,6.061-3.914,9.092-6.061,4.041-3.031,3.031-5.682,2.02-9.471a25.575,25.575,0,0,1,3.536,1.263c3.157,2.02,3.536-2.525,5.935-2.4-.253-2.02-.505-5.43-1.894-5.3-3.914.379-4.42-1.389-4.041-4.293a25.647,25.647,0,0,1,2.02-7.7c.758-1.515,2.4-.379,2.652,1.01.631,3.662,3.031,6.566,3.788,10.228.884,4.293,3.409,8.713,8.082,10.733-1.263,2.147-5.177,2.273-4.293,6.187,3.283.631,5.3-2.525,8.208-3.283,1.768-.505,2.02-3.536-1.389-3.915,2.273-2.525,2.525-5.3,2.02-8.587a115.386,115.386,0,0,1-2.02-16.163c-.253-13.764,2.4-27.149,5.682-40.408.505-2.02-.379-5.43,3.409-5.935-1.642,14.9-6.44,29.169-7.324,46.09,1.136-3.915,2.273-6.945,4.546-5.935,4.041,1.768-.126,6.187,1.894,8.965,2.4,0,4.167-3.031,6.819-1.642-.758,2.273-.379,3.788,1.263,6.314.505.758.379,2.02.505,3.031.379,2.02.631,4.167,1.136,6.187.505,1.768-.758,4.8,2.652,4.672,3.914-.126,3.157-3.283,3.157-5.682-.126-3.914-.126-9.6,2.02-10.733,6.061-2.9,4.167-7.829,4.293-11.87.505-12.754,1.263-25.507,3.662-38.008.758-3.662-1.263-4.925-3.788-4.8-2.273.126-4.925-.884-6.566-.253-4.672,2.02-10.733-2.147-14.269,3.536-1.389-1.389-.884-4.925-3.536-4.546-2.273.379-1.894,3.283-2.652,5.177-5.682,15.532-7.955,31.821-10.1,48.11-.253,1.642.631,3.788-1.768,3.788-1.768,0-3.157-1.263-4.041-3.283-2.02-4.925-.884-21.719,2.02-26.644.253,6.945-1.01,14.016.758,20.961.758-2.9.758-5.809,1.515-8.587,2.273-9.092.758-18.941,6.945-27.149,2.02-2.778,2.147-7.071,3.283-10.733.505-1.642.758-3.283-1.389-3.283-6.945,0-14.143-3.031-20.583,3.409A72.93,72.93,0,0,1,278.688,152.4c-3.662,1.515-5.177,3.914-6.061,7.7-2.525,10.607-1.136,21.972-5.3,32.326-2.02,5.051-2.02,11.238-4.925,15.532a13.849,13.849,0,0,0-2.778,7.324c-.253,3.031,1.642,7.071-2.9,8.713-1.136-6.819.758-13.764-2.147-20.961.884,7.324-.758,14.4,2.273,20.961.631.758,1.642,2.4,1.01,2.4C251.412,227.284,257.726,230.188,256.716,231.2Zm61.748-111.879c-.884,1.389-2.147,2.525-1.515,5.051,2.147-2.4,4.42-1.894,6.945-1.01,2.147.758,4.672,1.768,7.071.126a10.061,10.061,0,0,0,5.935,1.894c.631.884,2.02,1.768-.253,2.652-1.768.758-4.42-1.389-5.682,1.642,3.283,2.4,7.7-2.4,10.607,1.263.126,2.4-3.536,1.389-3.283,4.041,1.642-.379,3.157.379,4.42-1.642,1.515-2.273,4.672-3.283,6.693-2.147,4.546,2.525,9.471,1.515,14.269,2.273,7.955,1.136,15.784-.758,23.487-2.147,2.652-.505,7.2-.758,7.45-2.02,1.263-5.809,4.041-3.283,7.576-2.652,6.314,1.136,12.754-1.768,19.194-.126.126,0,.758-.505.758-.884.758-5.809,5.809-2.147,6.314-1.515,2.525,2.778,5.556,1.515,8.208,1.642,2.525.126,5.809,0,5.43-3.536-.505-3.788-3.283,0-4.925-.758-1.263-.505-3.409,0-3.409-1.894,0-2.02,2.273-1.894,3.536-1.642,3.914.884,7.324-1.389,11.112-1.136,1.515.126,3.031,0,2.9-2.273s-1.768-1.768-3.157-2.02c-1.515-.253-3.031,2.273-5.051-1.263,6.44.631,9.849-1.894,8.334-8.208-.379-1.515.884-3.536-1.515-4.293-.253,0-.505-.126-.631,0-1.263,1.389,1.515,1.768.884,3.157-.379.884-1.136.884-2.02,1.136-4.925,1.136-3.409-3.283-4.672-5.43-2.652,3.914-5.935,6.061-10.354,3.409-1.642-1.01-3.915-2.02.253-3.788,4.672-2.02,8.46-6.693,14.016-1.894,1.01.884,1.642-.253,2.4-1.01,1.136-1.136,3.283-1.136,3.031-3.409-.379-3.031,1.01-6.693-3.409-8.46,2.147-1.01,3.157-2.652,4.672-5.3.505-.884,1.136-3.031,3.283-2.147-1.768,2.147,3.157,2.778,1.136,4.925-5.051,5.43.253,5.809,3.536,7.071,1.768.631,4.041-.379,5.682,1.642-2.4,1.263-4.546.758-6.566,1.01s-4.672.758-5.177,2.778c-.631,2.525,2.9,1.515,3.914,3.031.253.253.126.758.126,1.515-7.324.505-5.43,6.061-5.935,10.733-.631,5.43,4.546,1.768,5.935,3.914-1.389,2.4-7.7-.379-5.556,4.293,1.136,2.525,5.682,2.273,9.218,2.147-1.136-2.525-3.662-.631-4.42-2.4,3.409-4.8,9.976,3.283,13.006-3.031-1.894-1.642-3.662,1.768-5.682.126.884-2.02,3.157-2.273,4.293-3.536,1.642-1.768,4.8-4.42,3.409-6.187-1.894-2.525-2.147-3.283.884-3.409,2.147-.126,4.8-3.914,6.566.253,1.01,2.4.758,4.8-2.652,5.051-2.652.253-2.9,2.4-4.167,3.914,3.536.884,2.778-.126,5.051-1.894a13.87,13.87,0,0,1,12-2.9c-4.672,5.682-10.86,8.208-18.436,11.617,7.955,1.389,11.238-3.031,15.279-5.43,2.4-1.515,8.965-.884,8.46.631-1.263,3.914.379,4.8,3.662,4.925,2.778.126,3.914,3.409,2.9,4.293-2.525,2.273-.126,3.283.631,4.546,3.283,5.809,8.587,9.344,14.522,11.238,3.409,1.01,4.546,5.177,7.7,5.177,8.334.126,15.532,3.157,18.941,9.218,1.894,3.409,5.556,1.263,7.955,3.283,1.01.884,2.273,1.389,1.515,2.9-.631,1.389-1.642.379-2.652.253-1.389-.253-3.409-2.778-4.167-.253-.631,2.273,2.273,4.672,4.167,4.041,4.42-1.389,4.546,1.894,6.187,4.167,1.263,1.642,0,4.293,2.526,5.43a8.145,8.145,0,0,0,.631-4.041c0-4.167,1.389-9.344-3.031-11.87-7.071-4.041-10.1-11.617-16.289-16.416,8.082,1.01,9.723,10.354,16.921,12.5,2.652-2.4,1.01-5.935-.253-7.2-4.925-4.925-5.809-12.5-11.743-16.416-1.515-1.01-1.389-2.4-2.147-3.662-1.515-2.778.253-5.177.758-7.7.758-4.293-5.809-.126-5.809-4.167,0-3.914-2.9-6.693-2.9-10.86,0-3.788-3.662-7.576-5.809-11.743-.379,1.894-.758,3.283-1.136,5.43-2.273-3.662-6.566-4.672-6.566-9.092,1.642-1.642,2.4,1.642,3.914.379-.253-1.768-1.894-1.389-2.778-2.147-1.136-.884-2.525-2.147-1.263-3.662,1.515-1.768,2.4.379,3.536.631,5.3.884,6.314,5.3,7.829,9.092a12.537,12.537,0,0,0,6.566,7.324c-3.409-4.293-5.177-8.208-4.925-12.88.126-1.515-.758.505-1.136.253a7.438,7.438,0,0,1-3.409-6.693c.253-3.788,2.147-1.01,3.409-.126.126.126,1.01-.631,1.263-1.136.379-.631-.126-1.136-.758-1.389-5.809-1.894-7.955-6.314-7.071-13.764-2.02,3.409,1.136,5.682-1.136,6.693-2.526,1.136-2.652-1.894-3.536-3.283-.631-1.136-1.136-2.02-2.652-2.273-7.071-1.136-12.249-5.935-18.057-9.723-1.01-.631-2.778-1.01-1.515-2.525,1.136-1.389,2.147.126,3.157.758,3.283,2.273,6.819,4.167,9.849,6.693,2.02,1.642,4.42,2.4,5.935.758s.253-3.914-1.768-5.3c-2.4-1.515-1.136-3.409,0-4.8,1.894-2.4,2.652.505,3.536,1.263,1.389,1.263,2.525,2.147,4.293-.631-5.682.505-5.051-4.546-6.566-6.945-3.536-.505-1.263,4.8-4.167,3.536-1.768-.758-3.031-3.157-3.662-5.556-1.263-5.051-4.42-8.839-8.587-11.743.505-2.9,2.652-1.136,4.041-1.515,4.293,7.2,10.733,11.491,20.078,14.774-5.682-8.46-14.648-9.218-20.2-14.648-1.515-2.4-4.546-3.409-5.43-6.44,1.389-1.136,2.9.505,5.556.758-4.041-4.8-9.092-6.187-12-10.354-1.389-2.02-2.147,1.515-3.409,2.147-5.3,2.273-8.713-6.314-15.405-2.02-4.672,2.9-8.46-7.324-15.658-4.546,2.525,2.02,6.187.758,6.945,4.167-2.02,1.389-4.546.505-5.935-.126-4.8-2.4-8.713-.505-12.754,1.389-7.7,3.662-15.911,4.42-24.371,4.041-7.7-.379-15.532-.126-23.361-.253A32.7,32.7,0,0,0,391.45,17.29c1.894,1.894,4.42,0,6.061,2.4-1.768.253-3.283.379-4.546.505,4.041,3.788,8.713,1.263,13.385,1.263-4.293.505-6.187-2.02-7.829-5.177,3.914-1.894,7.829-.253,11.491.126,5.809.505,11.491-1.01,17.173-.631,1.389.126,2.652.505,2.525,2.147s-1.515.884-2.4,1.01c-7.576.884-15.027,2.147-21.972,5.556,1.642.505,3.536.631,5.177,3.409-9.471-.253-18.562-7.324-26.391.505,1.263.631,4.167.379,4.167,3.409-2.4,1.263-6.819-1.642-6.693,4.041,0,.631-5.556,1.389-8.587,2.147,4.167,2.652,9.6-2.02,14.774,3.031-6.061-.505-9.849,2.652-14.521,2.9-4.546.379-4.672-4.041-6.187-6.314-1.389-1.894,2.273-2.9,3.536-2.778,5.682.379,7.7-2.147,8.587-7.45a7.837,7.837,0,0,1,4.672-5.809c-3.662.253-5.43-2.147-7.2-4.42,2.4-1.136,4.672-2.778,6.566,1.01,1.263,2.525,3.283,1.515,5.051,0a46.51,46.51,0,0,0-37.251-3.788c1.642.884,1.01,2.273.505,3.662-1.389.505-2.652,1.136-4.041,1.642-1.642-.253-4.041,1.01-4.672-.631-1.01-2.652,2.147-4.041,4.167-7.071-2.778.758-5.051-1.263-5.682,2.525-.505,2.9-4.167,2.9-4.42,1.136-.505-3.914-2.147-.631-3.157-1.01-5.43-1.136-10.86-2.525-16.416-3.157-4.293-.505-9.6-1.642-13.006.126-7.2,3.662-14.143,1.894-21.34,1.389a5.674,5.674,0,0,0,.758,1.515,3.947,3.947,0,0,0,1.389,1.136c8.208,4.041,17.047,4.925,26.012,4.293,1.768-.126,5.3.505,5.3-1.768,0-3.283-3.157-1.01-4.925-1.389-1.389-.379-2.9-.505-4.293-.758l.126.126c1.768-4.041,5.556-4.293,8.839-3.283,5.809,1.642,11.491,4.041,17.678,1.768-.253,1.389-3.157,3.031.884,3.788,3.409.758,6.566,2.525,10.1,2.652.126,0,.379.505.505.758-.884,1.894-3.662-.631-4.167,2.02,4.293,1.01,8.713-1.263,13.259.253-2.02,1.768-4.546.379-6.061,2.525,1.894,2.147,3.662,1.642,5.935.379,3.662-1.894,7.7-2.9,11.87-1.136,1.01.505,2.02,1.01,2.9,1.515-3.662,2.652-6.819,6.44-12.122,2.525-.631-.505-5.682-.379-5.809,3.788l.126-.126c-3.662.505-3.536.505-4.8-3.283a4.294,4.294,0,0,0-2.525-2.4c-3.031-.631-6.314-2.652-9.092.631l.126-.126c-.884-.253-1.642-1.01-1.389-1.768.631-2.02.126-3.031-1.768-3.157-1.263-.126-1.894-.505-1.768-1.894.253-3.031-.505-4.293-2.652-3.662-2.273.758-5.051.126-6.693,2.525,2.273.126,4.546.253,6.945.505-.379,2.525-3.662.758-3.788,3.157,1.768.505,4.167.126,4.293,3.031-5.051.758-8.46-3.914-13.638-3.283-3.914.505-8.208,5.43-12.249,0-5.809,4.546-12.754,1.389-18.941,3.157l-.379.379h-8.713c.884,1.263,2.273,1.389,2.652,2.02.758,1.263-.505,1.515-1.515,1.894-1.642.631-3.283,1.515-4.925,2.147l.126.126c-1.263-2.652-6.819,1.642-6.44-3.914,5.177,2.147,6.693-4.672,11.238-4.42,6.693.379,13.006-3.662,19.951-1.768,1.136.253,3.031.253,3.536-2.525-6.061,1.136-11.87,0-17.552-2.147,1.01,1.389,2.525,1.515,3.409,4.167-7.576-2.02-15.027,1.01-23.74-1.894,4.8-2.525,8.713.631,12.122-2.273,1.642-1.389,1.263-2.02.505-2.9-1.263-1.389-12-.379-13.006,1.389-1.894,3.283-5.051,2.147-7.071,1.263-3.157-1.389.884-2.9.758-4.672-2.525,1.389-5.177,1.01-7.576,1.263,3.283,7.2,11.238,5.3,16.921,7.955,2.147,1.01,3.914,2.273,4.293,4.041.631,2.9-3.283.631-3.914,2.778-2.652.884-5.43,1.894-8.082,2.778-.758.253-1.642.884-1.894-.379a2.815,2.815,0,0,1,.505-2.273,15.5,15.5,0,0,1,3.283-1.515c2.02-.505,4.546.126,6.061-3.031-5.3-.253-9.849-3.662-15.153-.884,2.273,3.536,7.2.253,9.218,4.041-2.525.126-5.051,0-7.2,1.515-2.525,1.894-4.672.253-5.809-1.515-.758-1.136-1.01-3.788-2.4-2.147-1.642,2.147-7.45,1.263-3.536,8.713-5.935-5.177-8.839-4.672-11.365.379-.758,1.642-3.536,3.788-6.44,4.041-.758-4.293,4.041-3.536,5.43-6.945-3.031.505-5.051,1.01-6.566,2.778-.631.758-1.263,1.136-2.147.631s-.758-1.263-.631-2.147a12.966,12.966,0,0,0,.126-3.157c-1.389,1.642-5.556-3.536-5.556,3.031-.126,4.041-1.768,9.849-6.566,12-8.334,3.788-13.385,10.354-17.3,18.057-.379.758-1.01,1.515,0,2.02,1.136.505,1.894.126,2.273-1.263,1.642-6.566,7.45-8.208,12.627-10.607-6.061,4.42-8.839,11.365-13.764,16.668-1.389,1.515-.884,5.935-3.788,4.672-3.157-1.389,1.136-4.041.884-6.314a12.342,12.342,0,0,0-1.263-1.768c-11.743,27.4-35.736,41.418-59.98,55.813,5.682,3.157,5.935-4.925,10.86-2.778-3.409,3.536-5.935,7.324-10.86,8.334-2.02.379-2.4,1.263-1.515,1.894,4.293,3.536-.505,3.283-1.768,4.167-2.4,1.768-6.061,1.894-7.829,4.546-1.515,2.147-3.031,4.42-4.041,3.914-7.071-3.031-5.43,3.788-7.576,6.44-2.02-.126-4.42,3.409-5.935.505-1.136-2.147,2.652-1.01,3.409-2.525-5.3-1.515-9.6,4.167-15.027,2.02-1.136-.379-3.283,1.263-3.536-.884-.379-2.4,2.778-1.136,4.041-2.9-3.409.505-6.187-.126-9.092,1.136-1.642.758-4.42.631-4.925,2.02-1.01,2.525,2.778,2.9,3.662,5.177.884,2.02,5.43,1.263,5.935.758,5.051-4.293,11.238.253,16.289-2.525,1.768-1.01,5.051.631,5.3-2.9,6.061-.505,12-1.136,17.552-3.662,12.375-5.556,24.623-11.238,36.872-16.921,1.01-.505,2.4-.884,2.273-2.525-.253-4.041,4.167-5.051,5.43-4.672,7.7,2.778,7.2-5.682,10.986-8.082,3.409-2.147,5.682-5.556,10.354-5.682,3.157-.126,5.935-1.768,8.713-3.914,4.546-3.409,4.925-9.471,8.46-12.5,5.682-4.8,8.713-10.86,12-17.047,1.894-3.536,3.157-7.45,6.314-10.481,2.02,5.051,1.263,10.1,2.02,15.027.884,5.43-.253,11.238,2.273,16.542.505,1.136,1.515,2.525-1.01,3.157-3.409.758-3.536,1.01-1.768,3.914,1.515,2.525,3.157,4.8,4.925,7.2.505.631,2.02.505,1.263,2.147-1.894,3.662-1.894,3.788,1.136,6.945,2.9,2.9,5.3,5.935,5.177,10.354,0,1.389-2.525,3.536.379,4.041,2.147.379,3.788-1.642,4.8-3.409.758-1.389.379-3.283.379-4.925a24.5,24.5,0,0,1,2.778-11.491c3.536,8.965-.505,17.426-1.515,26.012-.126.884-3.283,1.642-4.8.379-2.273-2.02-2.273-2.273-3.788-.379-3.409,4.293-6.566,8.713-10.733,12.5-2.4,2.147-2.778,2.02-2.778-1.01,1.263-1.263,2.9-2.525,3.788-4.041.379-.631-.379-2.147-.505-3.157-1.642,1.136-3.662,2.02-5.051,3.662-1.642,2.02,1.263,2.4,1.894,3.662-1.136.758-2.02,1.894-.884,3.157,2.147,2.4-.126,5.3,1.01,7.829-2.778.631-2.525,3.536-3.915,5.177-3.157,3.662.505,5.051,2.4,6.566,2.9,2.273,3.031-1.136,4.293-2.525,3.031-3.536-1.263-5.935-1.01-9.218.379-8.839,8.208-12.249,12.375-18.562a30.133,30.133,0,0,1-.505,8.965c-.505,2.652-.758,2.778-3.409,1.263-1.136-.631-1.389,0-1.642.631-.505,1.642-3.409,2.02-2.4,4.546.253.758.253.505.884.379,2.525-.253,2.778,0,1.894,2.02-2.778,5.682-2.273,11.365-.758,17.3.379,1.768.884,1.894,2.4,1.515,3.536-.758,4.546,1.263,4.167,4.293-.253,2.4.884,4.041,2.778,5.43-4.8-9.218-.253-18.31,0-27.528,3.915,1.263,5.935,3.409,3.662,7.45-.379.758-1.263,1.389-.253,2.02,5.177,2.9,3.788,7.7,3.915,12.122,0,2.02.631,4.42,3.283,5.177,1.01-2.652-.505-4.672-1.136-6.819-2.525-9.6.631-17.931,8.713-23.487,3.157-2.147,9.092-2.02,8.587-8.334-2.4,1.642-4.672,3.409-7.071,4.925a1.4,1.4,0,0,1-2.147-.505,1.35,1.35,0,0,1,.758-2.02c2.9-1.263,4.925-2.778,4.925-6.566,0-1.642,2.652-3.409,4.42-2.778,3.788,1.263,4.672-1.263,6.061-3.536,2.652-3.914,5.935-7.45,7.7-12,.758-1.894,2.652-2.147,4.293-1.263,1.263.631.631,1.894-.253,2.525-5.809,4.42-5.3,11.365-7.45,17.426a20.96,20.96,0,0,1,3.283-.631c6.187-.379,6.187-.379,5.682-5.556,0-.379.884-.758,1.389-1.136.631-.631,1.263-1.263,2.02-1.894,1.768,2.4,3.662,1.389,5.556.126,1.136-.379,2.147-.758,3.283-1.136,5.051-3.283,10.354-6.314,13.385-12,.505-.631,1.136-1.263,1.642-1.894,1.894-2.778,3.788-5.556,5.556-8.46.758,0,1.515-.126,2.273-.126-.505,1.136-.884,2.147-1.389,3.283C318.843,118.94,318.59,119.067,318.464,119.319Zm-8.839,98.367c.126-2.02,1.642-2.652,3.283-3.157,1.515-.505,3.788-1.263,2.525-3.283s-3.662-1.515-5.43-.126c-2.273,1.894-2.02,4.167-.379,6.566-2.02,2.525-5.43,2.525-8.208,4.041-1.515.758-3.283,1.642-2.525,3.662,1.01,2.4,2.9.631,4.041.126a63.746,63.746,0,0,0,7.829-3.788c1.515-.884,4.293-1.136,3.409-3.662C313.287,215.035,311.14,218.823,309.625,217.687Zm30.685-6.692c-.884,1.389-.758,3.031-3.536,3.283-4.041.379-7.7,2.525-11.238,4.42a2.307,2.307,0,0,0-1.263,3.031c.379,1.136,1.389.758,2.02.505,5.682-2.4,11.87-4.041,15.405-9.723,1.136-1.894-1.263-.631-1.389-1.515a27.049,27.049,0,0,1-7.7-14.9c-.505-3.157-3.031-1.389-3.788-2.9-1.642.884-.631,2.147-.505,3.283.253,1.642.758,3.283.884,4.8C329.829,210.237,331.218,211.5,340.309,210.994Zm66.546-70.84c4.925.126,3.788,3.788,4.167,6.693.631,6.314-2.273,12.627.505,20.078,1.642-7.071,5.3-12.375,6.566-18.815.884-4.672-.884-11.365,7.7-11.87-1.515-.126-2.4.631-3.283.505-5.177-.758-7.071,1.136-5.935,6.44.505,2.147-.253,4.546-.505,6.819-.253,1.515-.253,3.788-2.273,3.788-1.642,0-1.389-2.02-1.642-3.536-.758-4.546,0-8.839,1.642-13.385-1.389,1.01-2.525,4.167-3.409.126-.253-1.642-1.136-3.031-1.768-4.8-2.147,2.525-.253,5.682-1.768,7.955-1.136,3.914-1.894,7.829-4.041,11.491-2.525,4.42-2.02,9.218,1.01,13.638C407.74,157.2,407.866,148.741,406.856,140.155ZM167.061,170.587c4.672-1.515,4.546-6.187,6.187-9.849-1.642,1.389-3.283,2.778-5.051,4.167,1.263-6.061,5.177-10.986,9.723-12.627,6.314-2.273,1.515-5.935,1.263-9.344-2.9,1.768-5.809,3.031-8.082,5.051-2.4,2.02-5.556,3.157-6.819,6.314-2.02-1.263-.631-3.157-1.515-5.177-1.389,3.662-5.935,6.061-4.167,8.965,2.147,3.662-.126,5.682-1.642,6.819a8.63,8.63,0,0,0-3.788,7.2c.379,5.809-1.642,9.471-6.693,11.87-.126,0,.126.631.126,1.01C153.8,184.855,165.294,176.774,167.061,170.587Zm26.644-41.418c4.293,1.389,4.42,1.263,8.082-2.778a2.336,2.336,0,0,1,1.515-1.01c3.536,0,7.071.253,10.86.379-1.263,2.778-4.167,1.894-5.3,3.914,2.02,1.263,5.051-1.136,6.819,1.515-4.293,2.652-6.693,3.157-8.965,1.894-1.515-.758-16.289,4.167-17.173,5.809-.505,1.01-.884,2.02-.126,2.9a2.743,2.743,0,0,0,2.273.126c8.46-2.652,16.921,0,25.381-.379,3.662-.126,6.314-.631,7.955-4.041-3.283-2.778-7.7,3.409-10.86-1.894,3.915-.505,7.324-1.263,10.86-1.263,4.167,0,7.45-1.642,7.2-5.809-.379-4.925-4.672-2.147-7.955-2.02,1.263-2.652,5.051-4.546,1.768-7.071s-6.819,1.263-10.86.505c5.43-3.914-4.925-2.778-1.768-6.187-1.136-.884-2.147-.126-2.778.505-2.652,2.652-.126,4.8,1.136,7.7-2.273-2.02-5.809,2.778-6.187-.505-.379-3.536-3.157-.126-3.157-2.02-1.263,0-3.031,0-2.9,1.642.884,4.546-3.788,5.3-5.809,8.082-4.546-4.546,3.662-5.809,2.9-9.849-6.061,3.536-10.733,7.45-7.955,15.153C192.821,135.356,191.685,130.684,193.705,129.169ZM581.24,25.245h0c-1.136-3.157-3.157-2.4-5.3-.884-1.136.758-2.147,2.9-3.536,1.768-6.314-5.051-3.662.126-3.536,2.9.126,1.136.126,2.525-1.389,2.9-3.283-4.293-3.662-9.344-4.167-14.4-.126-1.515,2.02-4.42-2.02-4.546-2.9-.126-4.42,1.136-4.8,3.662-.631,3.662-2.526,4.546-6.44,2.652,1.01,1.01,1.263,1.515,1.515,1.515,3.283.253,4.925,1.768,4.925,5.177,0,2.02.631,4.8-1.642,5.43-2.4.631-5.3.379-6.945-2.525-.126-.253-1.136,0-1.642,0-.631-5.935,5.051-1.642,6.945-4.293-4.546-.126-8.46-1.768-13.259-3.409,2.526,3.409,4.167,5.809,5.809,8.082.758,3.662,2.147,6.44,6.693,4.167,1.642-.758,2.273.505,3.031,1.389a2.525,2.525,0,0,1,.505,2.9c-1.768,3.283-7.071,3.662-8.965.379-1.515-2.652-3.157-5.177-6.44-5.177-3.662,0-6.819-.631-7.324-5.051-.253-1.642-1.136-1.389-2.147-1.136-1.389.379-1.515,1.263-.505,2.147,2.02,1.768,2.02,4.8,4.8,6.314,1.894,1.01,4.293,2.778,2.778,5.809-3.283-.379-3.662-5.935-8.082-3.788a52.656,52.656,0,0,1,5.051,3.788c1.136.884,2.273,2.02,1.01,3.662-4.167,5.682-.505,6.945,4.42,7.829a11.035,11.035,0,0,0-1.01-1.263c-1.136-1.01-3.409-.758-3.409-3.031,0-.379.884-.758,1.389-1.01,2.147-1.136,3.283.631,4.041,1.894,2.9,4.42,7.45,6.187,12,8.587,5.935,3.031,13.006,3.662,18.057,8.587,1.515,1.389,3.662,1.894,5.682-.884,2.4-3.536,6.945-1.768,10.228-1.894,3.536-.253-1.263,3.788.758,5.43a7.59,7.59,0,0,0,1.768.884c.253-2.147-.631-4.546,2.02-5.43,1.136-.379,2.4,0,2.273,1.263-.253,2.147-.253,4.293-2.02,6.314-1.389,1.389-3.409-.631-4.293,1.515.631.253,1.263.884,1.642.758,3.662-1.136,10.354,4.041,10.354-5.051,0-1.136,2.9-2.147,3.536-.884.884,1.768,1.136,2.147,2.525.631,2.4-2.652.253-10.481-3.409-11.112-3.031-.505-3.536-2.4-3.788-4.672l.379-.379c2.778-.505,1.01-3.914,3.283-4.8,1.01-.505,2.526,2.147,2.526-.126,0-2.778-2.147-.379-3.283-.758a13.2,13.2,0,0,0-3.157,0c-3.409,0-3.662-2.9-4.672-5.177-.758-1.642-.126-3.157,1.515-3.536,2.273-.631,3.915.631,5.051,2.652.253.379.505.631.758,1.01.631.884,1.263.884,1.894.126.884-1.136-.126-1.136-.884-1.389a10.5,10.5,0,0,1-4.42-3.914c-1.894-3.662-8.082-3.914-6.44-9.849-2.273,1.136-2.652,2.525-2.147,4.041.253,1.136,1.642,2.4-.126,3.031-1.642.631-1.894-1.01-2.273-2.273-.379-1.389-1.515-2.778-1.389-4.167C586.165,23.1,583.26,25.119,581.24,25.245Zm-219.085,178.3c.505,0,.884-.126,1.389-.126.505-2.652.884-5.177,1.389-7.829.253-1.263,1.263-3.031,2.4-1.768,2.147,2.4.253,6.061,1.894,8.965,1.389,2.525-1.389,1.263-2.147,1.768-2.147,1.515-1.768,4.546-2.273,6.819-.253,1.01,1.136,2.9,2.778,2.9,1.768,0,4.041-.253,4.8-2.4.505-1.642,1.642-3.157.884-5.3a72.032,72.032,0,0,1-2.778-10.228c-.379-1.768-1.136-4.041.631-5.3a3.872,3.872,0,0,1,4.672.505c2.525,1.894,3.662.505,5.051-1.768,5.051-7.955,5.3-17.552,10.228-26.139,3.915-6.693,3.788-17.173,4.42-26.139.126-2.778-.126-4.041-3.662-3.536-9.976,1.515-19.951,3.662-30.306,2.778-2.652-.253-2.147,2.02-2.273,3.536a271.852,271.852,0,0,0-2.778,28.664c-.758,13.89-2.778,27.907,2.652,41.544.379.884,1.136,3.662-1.01,2.778-2.652-1.136-2.273.505-2.273,1.642-.126,1.642,1.136,2.273,2.525,2.147,3.914-.505,4.041-3.409,2.9-6.061-2.273-5.43-2.778-11.365-4.041-17.047-.253-1.263-1.01-2.652.884-3.031,1.515-.253,2.273,1.01,2.525,2.273C361.144,196.725,361.523,200.135,362.155,203.544ZM259.241,206.7c7.829-15.279,5.43-32.326,11.743-48.237C259.115,163.768,254.443,183.972,259.241,206.7ZM187.9,147.857c-6.061,7.071,6.44,48.363,16.794,55.687-2.4-9.723-6.693-18.31-9.471-27.4C192.443,166.925,190.422,157.454,187.9,147.857Zm381.6,18.436c-3.914-5.177,2.273-10.481-.505-16.037-.379-.884,1.389-5.3.126-8.46-1.01-2.652-2.652-4.672-5.177-3.662-2.02.884-2.9,3.536-2.02,6.187a79.18,79.18,0,0,1,2.4,12.122C564.824,159.853,564.067,164.652,569.5,166.293ZM440.823,129.421c-3.031,0-5.43-.631-6.693,2.147-5.682,12-7.2,25.129-10.1,38.008C427.565,155.56,434.131,142.806,440.823,129.421ZM96.6,141.544c-6.819-.126-13.132-3.409-20.2-2.4-6.945,1.01-14.016-.253-21.088-.379C68.947,143.059,82.963,140.281,96.6,141.544Zm300.153,15.911c-.884,9.6-1.136,19.194,3.409,28.285,3.409-3.031-2.778-4.42-.758-5.682,4.925-3.283,3.157-5.43-.379-8.082-.505-.379-.884-1.894-.505-2.273C402.057,165.03,398.4,161.369,396.754,157.454Zm-145.468,26.9c1.263-7.2,6.819-12,7.7-19.067C249.771,170.965,248.887,173.112,251.286,184.35Zm-49.626-81.068c9.976-.126,12.375-3.157,10.1-12.754C208.479,94.7,205.322,98.737,201.661,103.283Zm-136,47.605c-2.02,1.515-4.041,1.389-4.672.505-2.02-2.9-5.809-2.652-8.082-4.925-1.01-1.01-2.147-1.263-2.9.126-.253.505-1.01,1.894.253,2.02,7.2,1.01,12.5,7.324,21.593,7.955-4.8-2.525-3.536-8.839-9.723-8.46C63.391,149.246,64.4,149.878,65.664,150.888Zm-57.2-28.664c7.7,4.8,15.027,9.723,23.866,11.87C24.5,129.548,17.174,124.37,8.461,122.224ZM528.2,13.376c1.515,3.914.126,10.481,8.208,9.344-.884-2.652-4.42-2.02-3.914-4.42.505-2.273,2.778.253,4.041-.758C534.771,13.881,532.246,12.113,528.2,13.376ZM371.751,219.455c4.041.758,7.071-2.525,10.86-2.4.884,0,2.778-.379,2.778-1.894a2.651,2.651,0,0,0-3.031-2.525C378.065,213.52,373.014,213.52,371.751,219.455Zm51.141-63.011c-4.925-1.136-3.409,2.652-4.672,5.177-3.283,6.566-1.263,13.132-1.768,16.668C414.811,171.723,420.746,164.273,422.892,156.444Zm155.191-136c1.263-3.536.126-5.682-1.136-7.829-.758-1.389-1.768-1.768-2.778-.379-1.263,1.894-5.051.505-5.051,3.788,0,2.273,2.02,1.768,3.283,1.642C574.8,17.29,576.315,18.426,578.083,20.447ZM381.348,197.1c-4.8,4.041-4.672,9.6-5.935,15.658,2.273-1.136,5.177-1.642,4.672-2.652C377.56,205.312,381.6,201.4,381.348,197.1ZM193.074,228.925c-2.02-.631-3.662.884-4.925,1.768-2.02,1.389-4.925,1.389-6.061,3.914-.126.379.884,1.768,1.389,1.768,3.157.379,5.43-1.263,7.45-3.409C191.937,231.956,193.958,231.2,193.074,228.925ZM509.643,15.017c3.283,2.02,3.409,5.556,7.45,3.536,1.389-.631,4.8-.379,6.187,1.768,2.273,3.409-4.041,1.136-2.652,4.8,1.136-2.02,4.925,1.01,4.293-3.283-.253-1.263.884-4.546-1.894-4.167C518.482,18.553,515.577,15.143,509.643,15.017ZM94.075,137.755c7.2-.758,14.9,1.389,21.719-2.525-3.409,1.263-8.713-1.389-9.344-.505C102.788,140.028,97.485,133.083,94.075,137.755Zm80.436-7.45c1.389,3.788-6.945,7.955.379,11.491C178.426,138.134,176.785,134.22,174.512,130.305Zm20.835,99.63c4.293.631,7.071-2.525,10.481-3.409a1.535,1.535,0,0,0,1.01-2.4,6.137,6.137,0,0,0-1.768-1.389C202.544,226.021,196.231,224.127,195.347,229.935ZM57.077,154.8c-5.051-1.136-8.839-6.693-15.405-4.672C46.344,154.423,52.026,153.666,57.077,154.8Zm533.76-10.354c-1.01,8.46-1.768,16.037-2.652,23.613C591.089,160.611,591.721,153.034,590.837,144.448ZM179.31,130.684a10.368,10.368,0,0,0,1.389,7.576c.631,1.136,1.389,1.263,2.4.379,1.515-1.389,3.409-2.525,2.778-5.051-.126-.758-.379-2.147-1.263-1.263C181.836,135.23,181.2,131.189,179.31,130.684Zm361.27-29.169c2.652,4.546,4.293,9.849,10.228,11.87C546.641,109.6,546.136,103.409,540.58,101.515ZM23.741,145.963c4.42,2.147,8.46,5.43,14.521,5.682C33.716,146.847,28.539,147.1,23.741,145.963Zm503.833-1.389c3.157,3.283,7.829,2.525,9.723,6.187.631,1.136,1.894.379,2.652-.379,1.01-1.01.379-1.768-.631-2.4A27.316,27.316,0,0,0,527.573,144.574Zm5.177-78.542c.379-3.283.379-5.177.758-7.071.253-1.01,1.263-1.894-.126-2.525a3.261,3.261,0,0,0-2.4-.253c-1.263.505-1.01,1.894-.758,2.778C530.6,60.981,531.488,62.749,532.751,66.032Z" transform="translate(0.004 -0.036)" fill="#302d2a"/>
      <path id="Trazado_3124" data-name="Trazado 3124" d="M412.452,163.053c2.778-.758,4.546.884,5.177,3.157,1.389,4.672,3.662,4.42,7.324,2.525,2.4-1.389,4.8-3.283,7.829-3.031l-.126-.126c-1.768,3.536-5.682,4.041-8.713,5.556-.631.379-1.642.758-1.263,1.768.505,1.263,1.263,1.01,2.526.631,2.652-.884,4.672-3.662,7.955-3.031-4.293,5.682-11.87,6.693-16.794,11.491a3.21,3.21,0,0,1-2.4.126c-3.031-5.177-5.809-.505-8.839-.126-11.491,1.389-20.835,7.576-30.811,12.5a9.608,9.608,0,0,1-4.293.631c-.505,0-1.389-1.01-1.515-1.642-.253-.884.631-1.389,1.515-1.515,10.228-1.515,17.931-8.839,27.275-12.375,3.788-1.515,4.925-4.041,1.389-6.819-3.031-2.525-6.314-5.682-9.849-6.566-3.914-.884-5.682-2.778-6.314-5.809-3.031-13.006-5.3-26.139-11.112-38.387.505-.253,1.01-.379,1.515-.631,1.894,4.293,3.788,8.587,5.556,12.88.758,1.768.379,4.925,2.778,4.672,3.157-.379,1.263-3.283,1.263-5.177-.253-5.935-.631-12-1.01-17.931.505,0,1.01-.126,1.515-.126,1.01,8.46,2.02,16.921,3.031,25.255.884,7.2,3.409,14.774,10.481,15.911,4.8.758,5.3,3.409,7.7,6.061,1.01-7.955-.758-15.405-.379-22.982,2.4,6.819,4.041,13.764,3.662,20.961-.379,6.314-1.515,7.071-7.324,4.925a14.967,14.967,0,0,0-3.031-.379c2.778,3.536,3.409,7.955,7.45,9.976,1.515-1.389.379-2.147,0-3.031-.379-1.01-2.147-2.147-.253-3.031,1.263-.631,2.778-.631,3.283,1.642s3.283,4.041,4.672,3.662c1.768-.379,6.945-1.136,2.525-5.682-1.389-1.389-3.536-3.283-2.652-6.061Z" transform="translate(96.816 30.353)" fill="#302d2a"/>
      <path id="Trazado_3125" data-name="Trazado 3125" d="M110.2,180.927c6.945,4.925,11.238,12.249,17.426,17.931-2.273,1.894-3.157.126-4.293-1.01-4.167-4.167-8.208-8.334-12.5-12.5-1.389-1.389-3.788-3.031-4.925-1.389-4.672,6.693-4.672-.505-5.177-1.894-2.778-7.45-9.092-11.491-14.648-16.289-2.525-3.157-4.42-6.945-8.082-9.218,2.147-4.167,4.672-2.9,6.44,0a55.706,55.706,0,0,0,9.849,11.238c1.768,1.642,5.177,2.9,5.556,4.8,1.136,5.809,5.177,7.324,9.976,8.082Z" transform="translate(20.499 40.386)" fill="#302d2a"/>
      <path id="Trazado_3126" data-name="Trazado 3126" d="M443.152,162.508c-3.157.505-6.314,1.01-8.965-1.263-.505-.379-.884-.631-1.389-1.01.253-2.9-1.515-4.925-3.409-6.314-5.935-4.293-9.6-9.976-12.375-16.542-.631-.631-1.263-1.263-1.894-2.02-1.136-1.136-3.536-.126-4.42-2.9,3.914-1.01,6.314,1.01,8.334,3.536,4.546,5.556,8.839,11.238,13.259,16.794,1.389,1.768,3.031,3.283,5.809,6.187-1.894-7.955-4.672-14.016-2.9-20.961C437.849,146.219,440.5,154.427,443.152,162.508Z" transform="translate(107.912 34.686)" fill="#302d2a"/>
      <path id="Trazado_3127" data-name="Trazado 3127" d="M82.067,161.176c3.662,2.273,5.43,6.061,8.082,9.218,0,1.515.126,3.157.126,4.672-.253.126-.379.379-.631.505a62.3,62.3,0,0,1-8.713-11.238c-1.515-2.4-2.4-5.177-6.187-5.051-1.894.126-3.914-1.894-3.536-3.788,1.768-7.576-4.041-11.617-7.2-16.921-.379-.758-.631-1.515-1.01-2.273,1.389.379,2.9.758,4.293,1.136A191.155,191.155,0,0,0,82.067,161.176Z" transform="translate(16.558 35.766)" fill="#302d2a"/>
      <path id="Trazado_3128" data-name="Trazado 3128" d="M404.054,157.81c-1.642.379-.379,3.031-2.778,3.157-1.136-6.819.631-13.511,1.768-20.078.758-4.293,6.945-1.642,8.587-5.682.126-.253,1.263.884,1.389,1.642.631,6.187,1.263,12.5,1.768,18.689.126,1.136-.253,2.273-1.515,2.273-2.273.126-2.02-1.768-2.02-3.031.253-5.051,0-9.976-4.42-14.016-2.652,5.682-2.273,11.617-2.778,17.3A.175.175,0,0,1,404.054,157.81Z" transform="translate(105.34 35.469)" fill="#302d2a"/>
      <path id="Trazado_3129" data-name="Trazado 3129" d="M399.221,164.18c.126,2.02-1.389,1.389-2.4,1.768-6.945,3.157-13.764,6.061-20.078,10.733-4.42,3.283-10.354,4.672-15.658,6.945-1.01.379-2.147.379-2.652-.758-.631-1.642.631-2.147,1.894-2.525,10.354-3.536,19.32-9.849,29.3-14.016,1.768-.758,5.809-.631,3.283-4.8-.758-1.136.631-2.273,1.515-2.02C396.822,160.139,398.211,162.033,399.221,164.18Z" transform="translate(94.136 41.854)" fill="#302d2a"/>
      <path id="Trazado_3130" data-name="Trazado 3130" d="M353.6,112.9c4.672,14.774,6.945,30.053,11.743,44.7.379,1.263,1.136,2.525-.126,3.409-1.515.884-2.4-.631-2.778-1.642C357.388,144.09,355.242,128.558,353.6,112.9Z" transform="translate(92.91 29.618)" fill="#302d2a"/>
      <path id="Trazado_3131" data-name="Trazado 3131" d="M358.115,160.583c-3.031-2.9-5.177-5.809-4.925-9.976.379-4.8.379-4.8-3.283-7.45-1.389-1.01-1.136-3.031-.379-4.041,1.389-2.02-1.01-4.8,1.642-6.187,1.01-.505,1.642.505,1.894,1.01,1.515,3.157,3.662,6.314,4.041,9.6C357.862,149.092,356.473,154.774,358.115,160.583Z" transform="translate(91.678 34.844)" fill="#302d2a"/>
      <path id="Trazado_3132" data-name="Trazado 3132" d="M414.589,134.8c.631.631,1.263,1.263,1.894,2.02,2.02,7.829,2.778,15.658-.253,24.5C410.169,151.973,413.579,143.26,414.589,134.8Z" transform="translate(108.443 35.372)" fill="#302d2a"/>
      <path id="Trazado_3133" data-name="Trazado 3133" d="M84.705,153c8.334,8.46,16.794,16.921,25.129,25.381,1.894,1.894,1.136,2.9-1.263,2.9l-.253-.253c-7.955-9.218-18.562-16.037-24.118-27.4A2.754,2.754,0,0,1,84.705,153Z" transform="translate(22.128 40.153)" fill="#302d2a"/>
      <path id="Trazado_3134" data-name="Trazado 3134" d="M488.679,152.31c-3.914,5.556-7.829,11.112-11.87,16.668-.758,1.01-1.894,1.768-3.157.505-1.642-1.515-.126-2.9.631-3.788,4.293-4.925,8.839-9.6,13.259-14.4A2.982,2.982,0,0,0,488.679,152.31Z" transform="translate(124.26 39.707)" fill="#302d2a"/>
      <path id="Trazado_3135" data-name="Trazado 3135" d="M351.4,170.663c.884-5.556,9.471-15.911,13.89-16.163-4.42,5.809-6.566,13.132-13.89,16.163Z" transform="translate(92.332 40.547)" fill="#302d2a"/>
      <path id="Trazado_3136" data-name="Trazado 3136" d="M170.5,196.676l23.487-7.576c-7.2,4.293-14.648,8.208-22.982,9.344A7.239,7.239,0,0,0,170.5,196.676Z" transform="translate(44.802 49.638)" fill="#302d2a"/>
      <path id="Trazado_3137" data-name="Trazado 3137" d="M375.728,158.7c-2.525,4.546-6.187,5.177-8.713,7.324-2.525,2.273-3.283,4.925-1.768,8.587-3.283-.884-4.546-2.778-3.914-4.672C363.606,164,369.162,161.857,375.728,158.7Z" transform="translate(94.9 41.651)" fill="#302d2a"/>
      <path id="Trazado_3138" data-name="Trazado 3138" d="M182.5,187.758c-5.556,3.409-11.112,6.44-17.8,6.693,3.915-3.662,9.849-3.536,13.764-7.2l-.126.126c1.136-.126,2.4-.253,3.536-.379A3.349,3.349,0,0,0,182.5,187.758Z" transform="translate(43.279 49.087)" fill="#302d2a"/>
      <path id="Trazado_3139" data-name="Trazado 3139" d="M495.2,106.878c.631-6.44,4.42-13.006,10.1-17.678C501.387,96.019,498.357,101.449,495.2,106.878Z" transform="translate(130.114 23.391)" fill="#302d2a"/>
      <path id="Trazado_3140" data-name="Trazado 3140" d="M84.731,167.1c4.8,3.283,6.945,8.713,10.1,13.259-4.8-3.157-7.7-8.082-10.733-12.754A1.261,1.261,0,0,1,84.731,167.1Z" transform="translate(22.102 43.858)" fill="#302d2a"/>
      <path id="Trazado_3141" data-name="Trazado 3141" d="M457.811,174.927c-.379,2.525-2.526,2.652-3.788,2.9-2.147.379-5.682,2.778-6.314-.884-.505-2.778,3.283-1.389,5.051-1.642C454.276,175.18,455.665,173.412,457.811,174.927Z" transform="translate(117.624 45.754)" fill="#302d2a"/>
      <path id="Trazado_3142" data-name="Trazado 3142" d="M427.8,178c4.167,1.894,5.3,6.061,7.829,10.607A19.4,19.4,0,0,1,427.8,178Z" transform="translate(112.405 46.722)" fill="#302d2a"/>
      <path id="Trazado_3143" data-name="Trazado 3143" d="M227,123.276c.379-5.556,3.157-10.1,6.693-14.143,2.525-2.9,2.778-5.051-3.914-4.925,6.061-3.788,11.238-6.566,13.259-12.249a2.137,2.137,0,0,1,1.642-.379c1.01.379.884,1.263.505,2.02-.505,1.263-2.273,1.894-2.147,3.283,1.515.505,2.778,1.01,4.041,1.515.253.126.505.379.758.505.379-.758,1.136-1.894,1.01-2.02-2.778-2.9.758-4.42,1.389-6.566l-.126.126c1.515-1.01,3.409,3.914,4.672-.379.253-.758,1.136-.884,1.894.126.379.631-.505,3.536,1.515,1.515.631-.631,3.788-3.031,1.642-4.293-2.9-1.642-1.894-3.031-1.01-4.925,1.894-3.662,3.536-7.071,1.768-11.617-1.01-2.652,2.02-3.914,4.672-4.672-3.031,4.293-1.515,8.839-1.642,13.385,0,4.293-2.9,8.713,3.914,11.365-2.273.758-3.536,1.263-4.925,1.642.379.505.505,1.01.631,1.136,4.925.884,9.723,4.041,14.648-.126,1.263-1.01,2.9-.631,3.409,1.263.884,2.778-1.263,1.768-2.525,2.02-.884.126-3.031,0-2.02.884,2.9,2.652-6.945,5.682.631,7.7,2.652.758,2.147,2.147-.379,2.778a10.062,10.062,0,0,1-5.935-1.894c-4.293-1.136-9.218,0-12.5-4.167.253-.253.379-.505.631-.758,3.031-1.515,6.061-5.556,8.839.253.631,1.263,2.147,1.263,3.283.631a3.226,3.226,0,0,0,1.515-1.894c.379-1.642-1.263-1.894-2.273-2.273-3.283-1.389-6.693-2.147-10.1,0-.758,0-1.515.126-2.273.126-2.4-.505-2.9,3.662-5.682,2.4-.758-1.894,2.9-2.652,1.136-4.925-2.02,2.273-3.914,4.293-5.809,6.44a2.663,2.663,0,0,0-.505,2.9c.884,1.894,1.768.758,2.9.126,1.263-.631,1.642.884,2.4,1.389-.505.631-1.136,1.263-1.642,1.894-4.293,4.167-9.849,6.945-13.385,12-1.136.379-2.147.758-3.283,1.136,2.9-3.914,2.273-9.471,6.061-12.88.758-.758,4.167-.505,1.894-3.157-2.02-2.4-3.157-.379-4.167,1.136-3.157,4.925-6.314,9.849-9.471,14.648A10.981,10.981,0,0,1,227,123.276Z" transform="translate(59.647 17.348)" fill="#302d2a"/>
      <path id="Trazado_3144" data-name="Trazado 3144" d="M290.2,22.061c3.283-5.809,4.167-5.935,12.5-1.515a9.787,9.787,0,0,1-9.6,3.031C292.22,23.071,291.21,22.566,290.2,22.061Z" transform="translate(76.252 4.537)" fill="#302d2a"/>
      <path id="Trazado_3145" data-name="Trazado 3145" d="M279.341,14.954c4.672-1.136,8.46,1.768,12.5,2.9C286.033,20.636,278.2,20,275.3,16.722,276.689,16.09,278.078,15.585,279.341,14.954Z" transform="translate(72.337 3.815)" fill="#302d2a"/>
      <path id="Trazado_3146" data-name="Trazado 3146" d="M216.641,152.453c.126-2.273.253-4.041.379-5.682A1.733,1.733,0,0,1,219.04,145a1.482,1.482,0,0,1,1.515,1.642c-1.263,5.935,2.02,12.627-2.4,18.183-.758,1.01-1.136,2.4-2.778,1.894-1.263-.379-.758-1.768-1.136-2.652C212.853,159.524,219.167,156.494,216.641,152.453Z" transform="translate(56.242 38.049)" fill="#302d2a"/>
      <path id="Trazado_3147" data-name="Trazado 3147" d="M223.293,152.273c-.379,4.546-.758,9.092-1.01,13.511-.126,1.894-.505,3.283-2.9,2.9-1.389-5.3,1.515-10.228,1.263-15.405C220.515,151.263,222.157,152.02,223.293,152.273Z" transform="translate(57.545 39.87)" fill="#302d2a"/>
      <path id="Trazado_3148" data-name="Trazado 3148" d="M217.4,178.452c-1.894-3.157-5.43-4.546-7.829-6.945-.884-.884-2.02-1.894-.631-3.031,1.01-.884,1.894,0,2.652.758,2.147,1.894,4.546,3.662,6.693,5.682,2.147,1.894,1.768,3.031-1.01,3.536C217.269,178.326,217.4,178.452,217.4,178.452Z" transform="translate(54.73 44.123)" fill="#302d2a"/>
      <path id="Trazado_3149" data-name="Trazado 3149" d="M132.414,173.184c-2.02-6.945-4.041-14.016-5.935-20.961-.505-1.768-1.01-4.293,2.02-3.914,2.147.253,4.546.884,5.682,3.283.126.126,0,.505-.126.505-6.44,1.01-3.662,5.3-2.147,7.955,1.894,3.157,1.263,6.693,2.4,9.849.631,1.894.884,3.157-1.389,3.788C132.793,173.563,132.667,173.31,132.414,173.184Z" transform="translate(33.136 38.911)" fill="#302d2a"/>
      <path id="Trazado_3150" data-name="Trazado 3150" d="M111.55,162.231c-5.051-4.8-5.809-11.491-7.45-17.931,2.778,5.682,5.43,11.491,8.208,17.173A2.144,2.144,0,0,1,111.55,162.231Z" transform="translate(27.357 37.868)" fill="#302d2a"/>
      <path id="Trazado_3151" data-name="Trazado 3151" d="M397.48,70.962c8.082,6.187,15.91,12.249,23.866,18.183-.126.505-.379,1.01-.505,1.642-8.46-4.925-17.426-7.7-27.907-6.44,2.778-5.177,8.082-.884,10.1-4.672a4,4,0,0,0-5.43-1.263c-3.031,1.515-4.8-1.263-5.682-2.4-1.894-2.147,1.263-1.894,2.4-2.652,1.136-.631.126-1.389-.253-2.02-.631-1.01-1.01-2.525-2.778-1.768-3.031,1.515-6.187.631-9.218.884-1.136.126-3.157,1.01-3.157-.505.126-1.515-.758-3.788,1.263-4.8,2.525-1.389,5.177-2.778,7.829-3.914.884-.379,2.778-.126,2.9.253,3.915,11.112,13.132,3.914,19.7,5.935,2.02.631,9.344,7.2,9.218,9.218a1.736,1.736,0,0,1-1.01,1.263c-1.263.253-2.778.379-3.283-1.136-.884-2.778-1.136-6.44-4.672-6.566C406.572,69.826,401.9,67.426,397.48,70.962Z" transform="translate(99.539 15.995)" fill="#302d2a"/>
      <path id="Trazado_3152" data-name="Trazado 3152" d="M369.364,15.2c-2.02,2.147-6.314.758-6.566,4.041-.379,4.167,3.915,4.546,8.713,5.682-6.187,2.4-10.1,5.177-15.027,2.525a15.471,15.471,0,0,1-1.642-.631c1.263-7.576-5.3-3.157-7.7-5.051-.758,2.652,3.788,1.136,2.652,5.051A51.465,51.465,0,0,0,325.8,22.9c1.768-2.525,3.409-2.652,5.051-2.525a25.317,25.317,0,0,0,15.405-3.788,5.726,5.726,0,0,1,5.43-.758c3.788,1.642,6.187.253,9.092-2.02C363.808,11.281,366.839,12.165,369.364,15.2Z" transform="translate(85.606 3.194)" fill="#302d2a"/>
      <path id="Trazado_3153" data-name="Trazado 3153" d="M220.868,27.2c1.263,5.43-2.778,12.122-8.334,13.638,0-1.894,2.778-3.283.758-5.556s-4.293.379-5.177,0c-6.693-2.652-5.809,3.409-7.324,6.187-1.01,1.894-1.389,4.293-3.662,4.672-2.652.379-1.389-2.525-2.273-3.662-1.263-1.894-3.536-2.02-5.556-3.536,7.45-7.2,14.648-13.89,26.139-10.86,1.768.505,3.788-.505,5.43-.884Z" transform="translate(49.742 7.101)" fill="#302d2a"/>
      <path id="Trazado_3154" data-name="Trazado 3154" d="M336.194,30.611c3.283,0,6.187-2.525,9.849-1.01-.631,3.283-4.42,1.136-5.556,3.662-.253.884.758.631,1.136.631,2.273-.126,4.546.126,4.42,2.9-.126,2.4-3.157,2.02-4.167,1.515-4.925-2.525-6.819,2.147-10.1,3.536a10.994,10.994,0,0,0-1.389,1.136c2.147,2.02,5.177-.126,7.071,1.894-9.723,2.778-12.122,2.02-13.132-4.041-.253-1.389-.253-1.389,3.662-2.147-4.546-5.682-9.6-4.672-15.405-1.263a10.227,10.227,0,0,1-10.481-.758c5.3-.379,9.976-1.263,14.648-4.925,2.147-1.768,7.829.126,11.617,2.147,4.8,2.652,8.334,1.01,8.082-3.662Z" transform="translate(79.379 7.604)" fill="#302d2a"/>
      <path id="Trazado_3155" data-name="Trazado 3155" d="M228.179,60.379c-1.01,2.652-1.642,7.576-2.273,7.955-7.2,3.283-.884,9.6-3.536,13.764-.631.884-.379,2.525,1.01,3.788,4.167-3.157,5.43-7.829,6.061-14.143,3.662,3.914,6.819,6.061,2.02,10.354-1.768,1.642-5.3,2.4-4.041,6.693.253,1.01-5.177.126-7.45,2.273-1.894-2.147,1.768-3.409-.253-5.809-2.525-3.031-3.914-4.041-6.061-.253-.631,1.136-1.136,2.525-2.652,1.136a1.3,1.3,0,0,1,.126-2.147c6.061-4.42,5.43-12.754,10.607-17.931,2.02-2.02,3.662-4.42,6.187-6.061C227.8,60.126,228.179,60.379,228.179,60.379Z" transform="translate(55.311 15.719)" fill="#302d2a"/>
      <path id="Trazado_3156" data-name="Trazado 3156" d="M268.6,27.242c-6.314-2.652-11.491,1.768-16.921,3.409-3.409,1.01-5.935,3.157-10.228,2.4-2.9-.505-6.314,1.768-9.471,2.652-2.02.505-3.915,2.4-7.576-.253,10.607-3.283,20.078-6.187,29.927-9.218-2.525-1.768-4.925-1.263-7.576-.505-2.9.758-5.682,2.147-8.965,1.01-1.01-.379-3.031,1.515-3.157-1.136-.126-1.894,1.768-2.02,3.283-2.273,8.839-1.263,17.678-1.642,26.644,0,2.525.505,3.662,1.768,4.041,4.041C268.47,27.368,268.6,27.242,268.6,27.242Z" transform="translate(58.964 5.796)" fill="#302d2a"/>
      <path id="Trazado_3157" data-name="Trazado 3157" d="M256.6,62.905c4.8-5.556,11.238-8.082,18.183-10.354-2.525-2.9-4.672,0-6.819.379-1.136.253-2.4,1.389-3.031-.505-.379-1.136.758-2.147,1.642-2.273,5.809-.884,11.617-1.768,18.057-2.652-1.263,3.283-3.914,2.4-4.925,4.42,0,.631.884.253,1.263.126,7.324-1.136,14.521-3.409,22.1-2.02,1.768.253,4.546-.884,4.672,1.642.126,2.273-2.778,2.4-4.546,2.02-11.112-2.525-21.593,2.02-32.2,3.283C266.576,57.476,260.767,59.243,256.6,62.905Z" transform="translate(67.424 12.434)" fill="#302d2a"/>
      <path id="Trazado_3158" data-name="Trazado 3158" d="M226.466,47.867c1.263,0,2.525,1.642,3.409.631,3.157-3.914,8.208-2.652,12-4.8,1.136,2.778-2.778,3.283-2.147,6.061.884,3.662,3.409,1.263,5.3,1.642-1.136,7.324-6.945,4.293-10.86,5.556-.758-2.147,1.768-2.273,1.894-3.788-3.914-.884-7.071-.126-8.713,3.914-.379,0-.884.126-1.263.126l-1.515-.379c-.379-2.652,2.778-3.157,3.788-5.3-3.157-.505-3.662,3.157-6.187,2.778-1.136-1.642.884-3.031.505-4.546,0-.505-.126-1.01-.126-1.515C223.815,48.12,225.2,47.993,226.466,47.867Z" transform="translate(58.287 11.436)" fill="#302d2a"/>
      <path id="Trazado_3159" data-name="Trazado 3159" d="M218.067,66.2c-8.082,10.733-15.279,20.961-18.183,33.715-2.147-.505-2.525-1.894-2.02-3.788.884-2.778,3.283-5.556-1.263-7.7-1.01-.379-.253-1.894.631-2.652a1.989,1.989,0,0,1,1.642-.505c3.157.758,3.031.758,4.293-1.894a91.874,91.874,0,0,1,4.672-10.1C209.859,69.862,212.511,66.579,218.067,66.2Z" transform="translate(51.533 17.348)" fill="#302d2a"/>
      <path id="Trazado_3160" data-name="Trazado 3160" d="M367.1,24.721c-.505,2.652-2.652,2.147-3.409,3.536.631,1.768,3.536-.884,3.536,1.515,0,1.642-1.642,2.4-3.283,2.02-2.273-.505-4.293.379-6.44,1.136-4.167,1.389-1.642,2.778,0,5.177-5.935-1.515-11.617-.253-16.668-3.157-.884-.505-2.778,0-2.525-1.768.379-1.894,2.273-1.642,3.662-1.389,2.778.758,5.051,2.02,8.587,1.389,4.42-.884,6.566-3.409,9.471-5.935A8.066,8.066,0,0,1,367.1,24.721Z" transform="translate(88.885 6.423)" fill="#302d2a"/>
      <path id="Trazado_3161" data-name="Trazado 3161" d="M353.627,48.779c-3.536,2.273-9.092-1.01-11.112,4.546-5.177-2.273-10.481.126-15.784-.758-1.01-.126-1.389-1.515-.884-1.768,2.273-.884-.758-4.293,2.273-4.546,1.642-.126,3.409-.505,4.925,0a25.846,25.846,0,0,0,14.521.631C349.965,46.379,352.238,46.253,353.627,48.779Z" transform="translate(85.559 12.04)" fill="#302d2a"/>
      <path id="Trazado_3162" data-name="Trazado 3162" d="M267.9,37.759c.253-4.293,4.672-2.9,7.576-5.3-3.914-.126-6.693,1.768-10.481.505,4.8-4.546,9.849-3.031,14.4-2.525,4.42.505,7.7,5.3,12.88,4.167-7.7,3.914-16.542-1.136-23.866,3.788A3.455,3.455,0,0,0,267.9,37.759Z" transform="translate(69.631 7.78)" fill="#302d2a"/>
      <path id="Trazado_3163" data-name="Trazado 3163" d="M229.226,54l1.515.379c-.253.505-.631,1.136-.884,1.642-5.43,3.536-11.617,5.3-17.426,7.955-1.768.758-2.778,3.536-3.914,5.43-.631,1.136-.253,3.536-2.525,2.147a2.657,2.657,0,0,1-.505-4.293C212.558,61.451,218.619,53.749,229.226,54Z" transform="translate(53.759 14.141)" fill="#302d2a"/>
      <path id="Trazado_3164" data-name="Trazado 3164" d="M226.387,22c1.01,2.525,6.566-1.389,5.682,4.293A7.086,7.086,0,0,1,223.1,32.1c-.758-.253-1.642-.758-2.273-.505-1.642.505-3.031.631-3.031-1.515a2.771,2.771,0,0,1,2.4-3.031c2.525-.631,5.556-1.01,5.809-4.546C226.008,22.379,226.387,22,226.387,22Z" transform="translate(57.23 5.735)" fill="#302d2a"/>
      <path id="Trazado_3165" data-name="Trazado 3165" d="M257.824,33.611c2.525,0,4.925-2.778,7.7-.758-.126,3.031-3.662,1.389-4.42,3.536,3.409,2.4,7.324-1.136,10.607.758l.505.505c-3.283,6.187-8.587,1.263-12.754,2.273,0,.253-.126.379-.126.505,0,1.01,4.167.126,1.263,1.768-2.652,1.515-6.314,1.01-10.1,1.515,1.137-4.8,8.713-4.293,7.324-10.1Z" transform="translate(65.822 8.393)" fill="#302d2a"/>
      <path id="Trazado_3166" data-name="Trazado 3166" d="M175.544,51.2c-6.945,5.051-4.041,15.784-12.375,21.34-.505-3.662,1.768-4.293,2.652-5.809,1.263-2.273,1.263-4.041-1.894-5.051-4.42-1.389-.379-4.672,0-4.8C168.22,55.872,170.746,52.084,175.544,51.2Z" transform="translate(42.536 13.407)" fill="#302d2a"/>
      <path id="Trazado_3167" data-name="Trazado 3167" d="M343.7,84.7a29.374,29.374,0,0,1-10.86,3.409c-2.273.253-5.051.505-4.672-3.157.253-3.031-2.147-2.147-3.409-2.147-3.283-.253-6.566-.126-10.86-.126,6.061-4.167,16.289-3.536,19.446,1.136,1.389,2.147,2.652,1.01,4.041,1.389C339.534,85.583,341.175,82.931,343.7,84.7Z" transform="translate(82.479 20.947)" fill="#302d2a"/>
      <path id="Trazado_3168" data-name="Trazado 3168" d="M287.493,99.492a14.693,14.693,0,0,0,9.849,6.187c-5.051,2.273-9.344.253-13.638-2.147-.379-.253-.379-1.01-.505-1.642,3.157.126,1.768-5.177,5.682-4.672,3.283.505,6.566.758,9.723-.758,1.642-.758,2.273,0,2.4,1.642s0,2.778-2.273,2.4C295.2,99.871,291.408,100.881,287.493,99.492Z" transform="translate(74.413 25.221)" fill="#302d2a"/>
      <path id="Trazado_3169" data-name="Trazado 3169" d="M350.821,44.487c-6.44-.379-11.365-2.525-16.921-1.768V41.077c4.546-1.642,8.965-3.283,14.521-5.177-4.546,5.3-1.642,6.314,2.525,6.693,1.01.126,2.273,0,2.147,1.515a2.218,2.218,0,0,1-1.894,2.273c-3.283-.126-6.187,2.4-9.976,1.263C343.371,43.982,346.78,45.371,350.821,44.487Z" transform="translate(87.734 9.387)" fill="#302d2a"/>
      <path id="Trazado_3170" data-name="Trazado 3170" d="M308.779,85.693c-5.43.505-10.354,3.409-15.911-.126-2.4-1.515-6.945-1.136-10.1,1.389a4.544,4.544,0,0,1-5.3.253,2.408,2.408,0,0,1-.253-1.642,4.749,4.749,0,0,1,4.293-2.02c2.652,0,5.43.631,7.324-2.273a2.4,2.4,0,0,1,2.273-.126C296.4,85.82,302.97,84.431,308.779,85.693Z" transform="translate(72.826 21.215)" fill="#302d2a"/>
      <path id="Trazado_3171" data-name="Trazado 3171" d="M289.819,18.957c-.379-2.525-.379-2.525,2.02-4.041-2.778-2.147-5.935.253-8.839-.758,4.925-4.672,14.648-4.041,19.572,1.01C298.279,16.306,293.986,17.695,289.819,18.957Z" transform="translate(74.361 2.842)" fill="#302d2a"/>
      <path id="Trazado_3172" data-name="Trazado 3172" d="M324.256,50.833c-3.536,0-6.061,3.157-9.6.884-1.894-1.136-1.642,0-1.515,1.515C313.27,55.378,311.25,55,309.861,55c-1.515,0-3.157-.884-3.536-2.147-.631-1.894,1.389-2.147,2.525-2.9C315.8,45.655,319.079,45.655,324.256,50.833Z" transform="translate(80.458 12.259)" fill="#302d2a"/>
      <path id="Trazado_3173" data-name="Trazado 3173" d="M250.819,69.616c-.884-2.4.379-6.061-4.8-5.051-2.9.631-2.147-3.409-1.01-3.788,3.409-1.263,2.273-3.914,2.273-7.576,4.672,5.556,8.334,9.976,9.6,16.668-2.273-.631-4.293-1.389-6.061-.253Z" transform="translate(64.113 13.932)" fill="#302d2a"/>
      <path id="Trazado_3174" data-name="Trazado 3174" d="M350.2,49.679c2.02-1.768,4.041-1.263,5.682-1.01a2.241,2.241,0,0,0,3.031-2.147c-.505-5.051,5.682-6.314,5.682-10.986,0-.253,1.389-.631,2.526-1.136-.126,7.576-4.293,12.88-8.965,17.3C355.756,53.972,352.852,51.321,350.2,49.679Z" transform="translate(92.017 8.993)" fill="#302d2a"/>
      <path id="Trazado_3175" data-name="Trazado 3175" d="M330.518,57.205c-5.051.631-8.082,3.031-12,1.642-2.525-1.01-4.925.253-7.324,1.01-1.389.505-2.778,1.389-4.041.126-.884-1.01.631-1.894.631-2.778-.126-2.4,1.515-2.9,3.157-2.9,3.283-.126,5.43,3.157,9.092,2.652C322.942,56.321,325.972,53.922,330.518,57.205Z" transform="translate(80.635 14.22)" fill="#302d2a"/>
      <path id="Trazado_3176" data-name="Trazado 3176" d="M260.073,34.375c-1.515-.379-4.42,3.409-4.672-1.515,0-.884-1.515-1.515-2.273.253-1.136,2.525-8.208,4.42-10.1,2.778-1.136-1.01-.505-2.02.505-2.525,3.536-1.515,7.071-3.031,10.733-4.42,3.409-1.263,4.167,3.409,7.2,3.157l-.126-.126c-.505.884-.884,1.642-1.263,2.4Z" transform="translate(63.699 7.502)" fill="#302d2a"/>
      <path id="Trazado_3177" data-name="Trazado 3177" d="M395.376,17c4.293.126,4.167,5.43,7.7,6.566-.126.758-.379,1.515-.505,2.273-4.293-2.9-9.092-2.147-13.764-2.02-2.9.126-1.768-2.9-3.409-3.788l.126.126c.884-.884,1.894-1.894,3.157-.884C392.093,21.925,393.734,19.525,395.376,17Z" transform="translate(101.265 4.421)" fill="#302d2a"/>
      <path id="Trazado_3178" data-name="Trazado 3178" d="M333.483,31.636c-6.187-3.662-13.259-2.02-20.583-3.031a8.689,8.689,0,0,1,9.092-3.157c3.662.631,7.324,1.389,10.986,2.147,1.515.253,3.788-.126,3.788,2.02,0,.631-2.273,1.389-3.409,2.147A.124.124,0,0,1,333.483,31.636Z" transform="translate(82.216 6.579)" fill="#302d2a"/>
      <path id="Trazado_3179" data-name="Trazado 3179" d="M257.574,33.624c-1.515-3.031,2.273-4.167,2.4-6.566l-.126.126c1.894-2.652,6.187-.631,7.7-4.041l-.126.126c3.662-1.515,4.42,2.525,7.071,4.041-6.44.126-11.238,4.293-16.921,6.314Z" transform="translate(67.586 5.98)" fill="#302d2a"/>
      <path id="Trazado_3180" data-name="Trazado 3180" d="M406.342,90.8c3.031,6.945,12,4.42,16.668,10.733-4.041.758-6.061-3.662-8.334-1.768-2.652,2.273,3.283,3.409,1.515,6.693-2.526-1.642-6.44-1.01-5.682-6.693.253-2.147-3.662-4.925-5.809-7.45A19.42,19.42,0,0,0,406.342,90.8Z" transform="translate(106.336 23.811)" fill="#302d2a"/>
      <path id="Trazado_3181" data-name="Trazado 3181" d="M317.234,77.605c-9.092,5.682-16.163,3.031-23.234-.505C301.2,79.247,308.521,76.721,317.234,77.605Z" transform="translate(77.251 20.211)" fill="#302d2a"/>
      <path id="Trazado_3182" data-name="Trazado 3182" d="M224.765,32.793c-2.147,6.945-8.713,8.208-14.4,10.607-.884.379-1.515,1.389-2.4.379-.884-1.136.126-2.02,1.01-2.4,2.02-1.01,4.167-1.642,6.314-2.525,2.02-.758,4.672-.631,2.525-4.42C216.431,31.909,218.957,31.025,224.765,32.793Z" transform="translate(54.558 8.327)" fill="#302d2a"/>
      <path id="Trazado_3183" data-name="Trazado 3183" d="M295.731,38.952c8.713-1.01,17.426,1.389,26.265.884-8.965,1.01-17.931,4.8-26.9,0A5.349,5.349,0,0,0,295.731,38.952Z" transform="translate(77.54 10.123)" fill="#302d2a"/>
      <path id="Trazado_3184" data-name="Trazado 3184" d="M225.08,47.594c0,.505.126,1.01.126,1.515-3.283,2.525-6.44,5.177-9.849,7.7a3.783,3.783,0,0,1-2.273.758c-.253,0-.884-.884-.884-1.389-.126-1.389,9.471-10.228,11.238-10.481A21.943,21.943,0,0,1,225.08,47.594Z" transform="translate(55.758 11.961)" fill="#302d2a"/>
      <path id="Trazado_3185" data-name="Trazado 3185" d="M300.25,40.218c-8.208-1.136-16.289,1.01-24.75,1.894,3.536-5.051,19.7-6.566,25.381-2.652C300.628,39.713,300.5,39.966,300.25,40.218Z" transform="translate(72.39 9.74)" fill="#302d2a"/>
      <path id="Trazado_3186" data-name="Trazado 3186" d="M436.31,106.742c-9.218-2.02-14.143-8.965-18.31-16.542C424.819,94.872,427.976,103.711,436.31,106.742Z" transform="translate(109.83 23.653)" fill="#302d2a"/>
      <path id="Trazado_3187" data-name="Trazado 3187" d="M198.722,53.057c-1.768-.758-1.894-1.768-1.01-3.031a11.615,11.615,0,0,1,7.071-4.8c3.409-.758,7.324-.379,10.1-3.283.758-.758,2.02-1.136,2.525.126.631,1.389-.631,1.515-1.515,2.147a28.459,28.459,0,0,1-8.46,3.788c-2.9.631-6.566.126-7.576,4.293C199.858,52.552,199.1,52.8,198.722,53.057Z" transform="translate(51.811 10.792)" fill="#302d2a"/>
      <path id="Trazado_3188" data-name="Trazado 3188" d="M294.594,93.962c-6.566,1.515-13.259,2.652-19.194,6.061C276.915,94.593,287.143,91.689,294.594,93.962Z" transform="translate(72.364 24.437)" fill="#302d2a"/>
      <path id="Trazado_3189" data-name="Trazado 3189" d="M342.838,28.487c-5.177.379-10.1-1.263-15.153-2.02-1.136-.126-2.652-.505-2.273-2.273.379-1.642,1.894-1.515,3.031-1.263,4.925,1.263,9.723,2.652,14.648,3.914A8.7,8.7,0,0,1,342.838,28.487Z" transform="translate(85.488 5.94)" fill="#302d2a"/>
      <path id="Trazado_3190" data-name="Trazado 3190" d="M235.661,35.8c-5.3,7.071-14.269,7.829-20.961,12.5C220.761,42.619,227.959,38.831,235.661,35.8Z" transform="translate(56.415 9.36)" fill="#302d2a"/>
      <path id="Trazado_3191" data-name="Trazado 3191" d="M287.564,58.884c-4.546.505-5.051,7.955-10.733,5.935-1.01-.379-3.031.631-3.031-.884,0-.758.126-2.9,1.894-3.283C279.609,59.641,283.271,57.621,287.564,58.884Z" transform="translate(71.943 15.32)" fill="#302d2a"/>
      <path id="Trazado_3192" data-name="Trazado 3192" d="M391.9,13.826c.505,1.389,2.652,1.01,2.778,2.778-1.515.505-3.031,2.9-4.293,1.389-2.778-3.409-7.45-2.02-10.354-4.546-.379-.253.126-2.147.758-2.778,1.136-1.263,2.652-.884,3.914,0A12.486,12.486,0,0,0,391.9,13.826Z" transform="translate(99.819 2.544)" fill="#302d2a"/>
      <path id="Trazado_3193" data-name="Trazado 3193" d="M168.7,48c-1.263,1.768-2.652,5.809-3.914,4.42-2.4-2.652-5.935,2.525-6.187-1.263-.126-2.02,2.02-5.682,5.177-5.556C164.915,45.727,168.2,44.969,168.7,48Z" transform="translate(41.675 11.935)" fill="#302d2a"/>
      <path id="Trazado_3194" data-name="Trazado 3194" d="M189.4,129.854c3.536-3.409.505-10.228,6.187-12.754C199.376,124.171,193.693,126.7,189.4,129.854Z" transform="translate(49.768 30.721)" fill="#302d2a"/>
      <path id="Trazado_3195" data-name="Trazado 3195" d="M263.2,59.425c6.819-3.914,12.627-1.768,19.067-2.525C277.216,60.688,277.216,60.688,263.2,59.425Z" transform="translate(69.158 14.904)" fill="#302d2a"/>
      <path id="Trazado_3196" data-name="Trazado 3196" d="M383.5,43.487c6.819-1.515,11.743,1.263,17.552,5.43a21.985,21.985,0,0,0-6.44.631c-1.136.253-4.293,2.273-3.409-2.652C391.834,43.992,386.152,45.76,383.5,43.487Z" transform="translate(100.766 11.27)" fill="#302d2a"/>
      <path id="Trazado_3197" data-name="Trazado 3197" d="M339.418,58.8c-4.041,3.409-7.7-.758-11.743-.505a1.226,1.226,0,0,1-1.263-1.642c.253-1.01.884-1.263,1.768-1.389C332.6,54.509,336.64,54.887,339.418,58.8Z" transform="translate(85.752 14.391)" fill="#302d2a"/>
      <path id="Trazado_3198" data-name="Trazado 3198" d="M388.709,20.556c-5.177,1.01-9.6-2.652-14.648-2.525a1.541,1.541,0,0,1-.758-1.389C373.43,15.379,374.44,15,375.576,15c5.177.126,9.723,1.389,13.133,5.556Z" transform="translate(98.082 3.895)" fill="#302d2a"/>
      <path id="Trazado_3199" data-name="Trazado 3199" d="M352.949,68.172c2.273-.379,4.293.126,4.293,3.409-.126,3.788-3.031,3.283-5.43,3.283-1.01,0-2.273,0-2.147-1.389.253-2.02,2.525-.884,3.409-2.02-1.263-.505-3.283.505-3.662-1.515C348.909,66.531,351.434,68.3,352.949,68.172Z" transform="translate(91.793 17.775)" fill="#302d2a"/>
      <path id="Trazado_3200" data-name="Trazado 3200" d="M285.184,101.615c-5.556,3.031-9.849.758-14.143,1.263a1.388,1.388,0,0,1-1.642-1.389c0-1.136.884-1.389,1.642-1.389C275.461,100.353,280.007,99.469,285.184,101.615Z" transform="translate(70.787 26.254)" fill="#302d2a"/>
      <path id="Trazado_3201" data-name="Trazado 3201" d="M314.494,44.88c-4.672,2.652-8.965,2.652-11.87,5.3a1.235,1.235,0,0,1-2.02-.631,3.705,3.705,0,0,1,.758-2.147C304.519,43.618,308.559,43.365,314.494,44.88Z" transform="translate(78.981 11.518)" fill="#302d2a"/>
      <path id="Trazado_3202" data-name="Trazado 3202" d="M222.715,48.6,221.2,46.7c1.01-.758,2.02-1.389,3.031-2.147,2.02-1.389,4.672-4.546,6.566-1.136,1.642,2.778-2.652,3.283-4.167,4.925C225.367,48.469,223.978,48.6,222.715,48.6Z" transform="translate(58.123 10.96)" fill="#302d2a"/>
      <path id="Trazado_3203" data-name="Trazado 3203" d="M350.1,61.009c5.3-2.147,10.1-3.914,14.774-5.809C364.116,59.241,355.025,63.282,350.1,61.009Z" transform="translate(91.99 14.458)" fill="#302d2a"/>
      <path id="Trazado_3204" data-name="Trazado 3204" d="M239.428,74.9c-.253,3.788-2.02,7.071-.379,10.354.253.505-.379,3.157-1.894,2.525-2.4-.884-3.536-4.42-3.031-5.682C235.135,79.825,235.766,76.542,239.428,74.9Z" transform="translate(61.488 19.633)" fill="#302d2a"/>
      <path id="Trazado_3205" data-name="Trazado 3205" d="M246.361,86.98c-3.662-1.263-6.44-2.4-3.157-7.2,1.515-2.147,2.652-1.136,4.041-1.01,3.031.379.631,2.02.631,3.157,0,1.894-.253,3.788-1.768,5.177A.441.441,0,0,0,246.361,86.98Z" transform="translate(63.521 20.56)" fill="#302d2a"/>
      <path id="Trazado_3206" data-name="Trazado 3206" d="M343.687,24.1a2.492,2.492,0,0,1,1.136.126c2.9,1.389,6.692.631,8.965,3.409.126.126-.253,1.263-.758,1.389-3.536,1.389-6.187-1.894-9.471-2.02-.884,0-2.273-.631-1.515-2.02A10.438,10.438,0,0,1,343.687,24.1Z" transform="translate(89.817 6.286)" fill="#302d2a"/>
      <path id="Trazado_3207" data-name="Trazado 3207" d="M396.06,32.651c-.379,2.4-1.515,3.031-3.283,2.778-2.02-.379-4.167-.505-5.177-2.778,1.768-.631,1.136-4.167,3.409-3.536C393.03,29.621,394.545,31.515,396.06,32.651Z" transform="translate(101.843 7.584)" fill="#302d2a"/>
      <path id="Trazado_3208" data-name="Trazado 3208" d="M128.663,85.7c0,1.768-8.965,8.208-10.354,7.45-.884-.379-1.389-1.515-.631-2.02,3.283-2.147,5.682-5.556,9.6-6.819C128.031,84.061,128.789,84.566,128.663,85.7Z" transform="translate(30.827 22.09)" fill="#302d2a"/>
      <path id="Trazado_3209" data-name="Trazado 3209" d="M268.893,45.977c-1.389,2.4-4.041,1.768-5.935,2.652-1.515.631-2.9-.379-2.652-2.273.379-3.157,3.157-3.536,5.556-4.041C268.767,41.683,266.62,45.472,268.893,45.977Z" transform="translate(68.39 11.053)" fill="#302d2a"/>
      <path id="Trazado_3210" data-name="Trazado 3210" d="M249.9,66.2a10.885,10.885,0,0,0,2.147,5.682c.884,1.136,1.263,3.031,0,3.914-1.01.631-2.4,1.642-3.914.758-1.642-1.01-1.01-2.652-1.01-3.914.126-2.525.631-4.925,2.778-6.44Z" transform="translate(64.903 17.348)" fill="#302d2a"/>
      <path id="Trazado_3211" data-name="Trazado 3211" d="M204.614,102.7c-3.157,4.041-4.041,8.082-8.208,10.986C196.154,107.751,197.29,103.836,204.614,102.7Z" transform="translate(51.601 26.938)" fill="#302d2a"/>
      <path id="Trazado_3212" data-name="Trazado 3212" d="M278.3,27.361c4.672-1.136,8.965,1.389,13.89,1.389-4.546,3.662-11.238,2.778-13.89-1.389Z" transform="translate(73.126 7.066)" fill="#302d2a"/>
      <path id="Trazado_3213" data-name="Trazado 3213" d="M224.71,56.316c.253-.505.631-1.136.884-1.642a4.3,4.3,0,0,1,1.263-.126c1.642.379,2.652-2.02,5.177-.884-1.894,3.536-3.283,7.071-7.45,8.587l-.379-.379C223.953,59.978,225.72,58.21,224.71,56.316Z" transform="translate(58.906 13.973)" fill="#302d2a"/>
      <path id="Trazado_3214" data-name="Trazado 3214" d="M265.467,87.962c-2.4-1.894-6.44,0-6.566-3.788-.126-2.652,5.051-4.293,9.723-3.536C269.634,83.922,258.522,81.27,265.467,87.962Z" transform="translate(68.028 21.093)" fill="#302d2a"/>
      <path id="Trazado_3215" data-name="Trazado 3215" d="M407.778,35.629c-3.915-3.031-6.945-5.3-9.849-7.7a1.465,1.465,0,0,1-.253-2.147,1.588,1.588,0,0,1,1.642-.253C401.969,28.305,407.147,29.063,407.778,35.629Z" transform="translate(104.394 6.627)" fill="#302d2a"/>
      <path id="Trazado_3216" data-name="Trazado 3216" d="M359.5,19.753c3.409-5.556,7.7-3.662,12.5-1.263A95.144,95.144,0,0,0,359.5,19.753Z" transform="translate(94.46 4.193)" fill="#302d2a"/>
      <path id="Trazado_3217" data-name="Trazado 3217" d="M306.7,60.584c6.187-.631,10.86.253,15.279-.884C317.812,62.857,313.519,65,306.7,60.584Z" transform="translate(80.587 15.64)" fill="#302d2a"/>
      <path id="Trazado_3218" data-name="Trazado 3218" d="M422.6,109.882c-3.662-2.4-9.849.758-12.5-5.682C415.151,105.084,419.823,105.21,422.6,109.882Z" transform="translate(107.755 27.332)" fill="#302d2a"/>
      <path id="Trazado_3219" data-name="Trazado 3219" d="M378.5,75.425c.253-.758.253-1.01.379-1.136a13.827,13.827,0,0,1,9.976-2.147,2.154,2.154,0,0,1,.126,1.642C388.476,75.173,383.3,75.93,378.5,75.425Z" transform="translate(99.452 18.856)" fill="#302d2a"/>
      <path id="Trazado_3220" data-name="Trazado 3220" d="M211.169,53.6c-2.273,3.536-3.157,5.43-5.935,6.314-2.02.631-3.662,3.031-5.43,4.8C199.678,60.166,199.678,60.166,211.169,53.6Z" transform="translate(52.496 14.037)" fill="#302d2a"/>
      <path id="Trazado_3221" data-name="Trazado 3221" d="M250.01,63.8c-2.9,3.788-5.682,7.576-8.587,11.365C240.539,68.472,245.085,65.947,250.01,63.8Z" transform="translate(63.408 16.717)" fill="#302d2a"/>
      <path id="Trazado_3222" data-name="Trazado 3222" d="M160.983,61.7c1.642,7.2-6.314,5.3-7.829,9.471-.505-.253-1.263-.505-1.515-.884-.631-1.136.505-1.894,1.136-2.652C155.048,64.983,159.467,65.488,160.983,61.7Z" transform="translate(39.798 16.165)" fill="#302d2a"/>
      <path id="Trazado_3223" data-name="Trazado 3223" d="M466.384,40.352c-1.642-2.147-3.283-4.167-4.8-6.314-1.01-1.515,0-2.778,1.263-3.662a1.568,1.568,0,0,1,2.525.758c2.147,6.693,9.344,8.587,12.754,14.143l-.379.379c-1.515.126-3.157.253-4.672.253C471.435,43.256,469.541,41.109,466.384,40.352Z" transform="translate(121.174 7.839)" fill="#302d2a"/>
      <path id="Trazado_3224" data-name="Trazado 3224" d="M462.724,20c1.642,5.177-2.147,7.955-5.177,10.733-1.642,1.515-4.041.631-5.935-.379-.379-.126-.631-1.136-.505-1.515,1.01-2.147,2.9-.758,4.42-1.01.379-.126.758-.253,1.389-.505-3.662-6.945,3.536-4.925,5.809-7.324Z" transform="translate(118.52 5.209)" fill="#302d2a"/>
      <path id="Trazado_3225" data-name="Trazado 3225" d="M465.365,38.2c3.157.631,4.925,2.9,6.693,5.43.631,1.263,3.283.379,2.9,2.525-.126.758-1.389,1.389-2.273,1.894-1.768.884-2.9-.126-3.157-1.642C469.027,43.251,463.724,42.493,465.365,38.2Z" transform="translate(122.192 9.991)" fill="#302d2a"/>
      <path id="Trazado_3226" data-name="Trazado 3226" d="M170.9,152c4.8,3.914,7.45,7.829,8.587,12.88.253,1.263.758,2.525-.379,3.409s-2.273.379-3.536-.126c-5.809-2.9-8.587-8.334-11.87-13.259a8.845,8.845,0,0,1,1.263-1.01c3.157,3.409,6.314,6.819,9.6,10.481C174.433,160.082,170.393,157.43,170.9,152Z" transform="translate(43.016 39.891)" fill="#302d2a"/>
      <path id="Trazado_3227" data-name="Trazado 3227" d="M186.718,164.2c3.283,4.546,4.42,9.849,5.177,15.279-3.409.379-6.819.884-9.6-2.147-.884-1.01-2.9-1.136-2.273-2.9.631-2.02,2.273-1.136,3.662-.884,1.515.379,3.157.758,5.051,1.136C188.359,170.766,185.834,167.736,186.718,164.2Z" transform="translate(47.273 43.096)" fill="#302d2a"/>
      <path id="Trazado_3228" data-name="Trazado 3228" d="M246.521,13.5C241.6,18.171,236.8,14.761,232,13.246c4.8-1.768,9.723.379,14.521.253Z" transform="translate(60.961 3.25)" fill="#302d2a"/>
    </g>
  </g>
</svg>
